<svg xmlns="http://www.w3.org/2000/svg" xmlns:xlink="http://www.w3.org/1999/xlink" contentStyleType="text/css" height="646.8px" preserveAspectRatio="none" style="width:587px;height:646px;background:#FFFFFF;" version="1.1" viewBox="0 0 587 646" width="588px" zoomAndPan="magnify"><defs/><g><rect fill="#FFFFFF" height="489.4668" style="stroke:#181818;stroke-width:0.6999999999999998;" width="7" x="128.342" y="81.8385"/><rect fill="#FFFFFF" height="233.5334" style="stroke:#181818;stroke-width:0.6999999999999998;" width="7" x="262.3862" y="103.7422"/><rect fill="#FFFFFF" height="189.726" style="stroke:#181818;stroke-width:0.6999999999999998;" width="7" x="362.5867" y="125.6459"/><rect fill="#FFFFFF" height="145.9186" style="stroke:#181818;stroke-width:0.6999999999999998;" width="7" x="465.3288" y="147.5496"/><line style="stroke:#181818;stroke-width:0.3499999999999999;stroke-dasharray:5.0,5.0;" x1="18.9" x2="18.9" y1="58.5348" y2="588.8053"/><line style="stroke:#181818;stroke-width:0.3499999999999999;stroke-dasharray:5.0,5.0;" x1="131.7118" x2="131.7118" y1="58.5348" y2="588.8053"/><line style="stroke:#181818;stroke-width:0.3499999999999999;stroke-dasharray:5.0,5.0;" x1="265.7149" x2="265.7149" y1="58.5348" y2="588.8053"/><line style="stroke:#181818;stroke-width:0.3499999999999999;stroke-dasharray:5.0,5.0;" x1="365.6427" x2="365.6427" y1="58.5348" y2="588.8053"/><line style="stroke:#181818;stroke-width:0.3499999999999999;stroke-dasharray:5.0,5.0;" x1="468.194" x2="468.194" y1="58.5348" y2="588.8053"/><text fill="#000000" font-family="sans-serif" font-size="9.8" lengthAdjust="spacing" textLength="27.7778" x="3.5" y="56.0752">Player</text><ellipse cx="19.4889" cy="9.45" fill="#E2E2F0" rx="5.6" ry="5.6" style="stroke:#181818;stroke-width:0.3499999999999999;"/><path d="M19.4889,15.05 L19.4889,33.95 M10.3889,20.65 L28.5889,20.65 M19.4889,33.95 L10.3889,44.45 M19.4889,33.95 L28.5889,44.45 " fill="none" style="stroke:#181818;stroke-width:0.3499999999999999;"/><text fill="#000000" font-family="sans-serif" font-size="9.8" lengthAdjust="spacing" textLength="27.7778" x="3.5" y="598.6805">Player</text><ellipse cx="19.4889" cy="607.09" fill="#E2E2F0" rx="5.6" ry="5.6" style="stroke:#181818;stroke-width:0.3499999999999999;"/><path d="M19.4889,612.69 L19.4889,631.59 M10.3889,618.29 L28.5889,618.29 M19.4889,631.59 L10.3889,642.09 M19.4889,631.59 L28.5889,642.09 " fill="none" style="stroke:#181818;stroke-width:0.3499999999999999;"/><rect fill="#E2E2F0" height="22.8348" rx="1.75" ry="1.75" style="stroke:#181818;stroke-width:0.3499999999999999;" width="80.0604" x="91.8118" y="35"/><text fill="#000000" font-family="sans-serif" font-size="9.8" lengthAdjust="spacing" textLength="70.2604" x="96.7118" y="50.4752">StatisticsScreen</text><rect fill="#E2E2F0" height="22.8348" rx="1.75" ry="1.75" style="stroke:#181818;stroke-width:0.3499999999999999;" width="80.0604" x="91.8118" y="588.1053"/><text fill="#000000" font-family="sans-serif" font-size="9.8" lengthAdjust="spacing" textLength="70.2604" x="96.7118" y="603.5805">StatisticsScreen</text><rect fill="#E2E2F0" height="22.8348" rx="1.75" ry="1.75" style="stroke:#181818;stroke-width:0.3499999999999999;" width="96.9425" x="217.4149" y="35"/><text fill="#000000" font-family="sans-serif" font-size="9.8" lengthAdjust="spacing" textLength="87.1425" x="222.3149" y="50.4752">StatisticsViewModel</text><rect fill="#E2E2F0" height="22.8348" rx="1.75" ry="1.75" style="stroke:#181818;stroke-width:0.3499999999999999;" width="96.9425" x="217.4149" y="588.1053"/><text fill="#000000" font-family="sans-serif" font-size="9.8" lengthAdjust="spacing" textLength="87.1425" x="222.3149" y="603.5805">StatisticsViewModel</text><rect fill="#E2E2F0" height="22.8348" rx="1.75" ry="1.75" style="stroke:#181818;stroke-width:0.3499999999999999;" width="87.688" x="322.2427" y="35"/><text fill="#000000" font-family="sans-serif" font-size="9.8" lengthAdjust="spacing" textLength="77.888" x="327.1427" y="50.4752">StatisticsManager</text><rect fill="#E2E2F0" height="22.8348" rx="1.75" ry="1.75" style="stroke:#181818;stroke-width:0.3499999999999999;" width="87.688" x="322.2427" y="588.1053"/><text fill="#000000" font-family="sans-serif" font-size="9.8" lengthAdjust="spacing" textLength="77.888" x="327.1427" y="603.5805">StatisticsManager</text><rect fill="#E2E2F0" height="22.8348" rx="1.75" ry="1.75" style="stroke:#181818;stroke-width:0.3499999999999999;" width="74.0694" x="431.794" y="35"/><text fill="#000000" font-family="sans-serif" font-size="9.8" lengthAdjust="spacing" textLength="64.2694" x="436.694" y="50.4752">PlayerAnalysis</text><rect fill="#E2E2F0" height="22.8348" rx="1.75" ry="1.75" style="stroke:#181818;stroke-width:0.3499999999999999;" width="74.0694" x="431.794" y="588.1053"/><text fill="#000000" font-family="sans-serif" font-size="9.8" lengthAdjust="spacing" textLength="64.2694" x="436.694" y="603.5805">PlayerAnalysis</text><rect fill="#FFFFFF" height="489.4668" style="stroke:#181818;stroke-width:0.6999999999999998;" width="7" x="128.342" y="81.8385"/><rect fill="#FFFFFF" height="233.5334" style="stroke:#181818;stroke-width:0.6999999999999998;" width="7" x="262.3862" y="103.7422"/><rect fill="#FFFFFF" height="189.726" style="stroke:#181818;stroke-width:0.6999999999999998;" width="7" x="362.5867" y="125.6459"/><rect fill="#FFFFFF" height="145.9186" style="stroke:#181818;stroke-width:0.6999999999999998;" width="7" x="465.3288" y="147.5496"/><polygon fill="#181818" points="119.942,79.0385,126.942,81.8385,119.942,84.6385,122.742,81.8385" style="stroke:#181818;stroke-width:0.6999999999999998;"/><line style="stroke:#181818;stroke-width:0.6999999999999998;" x1="19.4889" x2="124.142" y1="81.8385" y2="81.8385"/><text fill="#000000" font-family="sans-serif" font-size="9.1" lengthAdjust="spacing" textLength="58.6612" x="44.5848" y="78.1546">View Statistics</text><polygon fill="#181818" points="253.9862,100.9422,260.9862,103.7422,253.9862,106.5422,256.7862,103.7422" style="stroke:#181818;stroke-width:0.6999999999999998;"/><line style="stroke:#181818;stroke-width:0.6999999999999998;" x1="135.342" x2="258.1862" y1="103.7422" y2="103.7422"/><text fill="#000000" font-family="sans-serif" font-size="9.1" lengthAdjust="spacing" textLength="72.8311" x="162.4485" y="100.0583">Request Statistics</text><polygon fill="#181818" points="354.1867,122.8459,361.1867,125.6459,354.1867,128.4459,356.9867,125.6459" style="stroke:#181818;stroke-width:0.6999999999999998;"/><line style="stroke:#181818;stroke-width:0.6999999999999998;" x1="269.3862" x2="358.3867" y1="125.6459" y2="125.6459"/><text fill="#000000" font-family="sans-serif" font-size="9.1" lengthAdjust="spacing" textLength="79.9005" x="276.0362" y="121.962">getGameStatistics()</text><polygon fill="#181818" points="456.9288,144.7496,463.9288,147.5496,456.9288,150.3496,459.7288,147.5496" style="stroke:#181818;stroke-width:0.6999999999999998;"/><line style="stroke:#181818;stroke-width:0.6999999999999998;" x1="369.5867" x2="461.1288" y1="147.5496" y2="147.5496"/><text fill="#000000" font-family="sans-serif" font-size="9.1" lengthAdjust="spacing" textLength="82.4421" x="376.2367" y="143.8657">analyzePlayerData()</text><line style="stroke:#181818;stroke-width:0.6999999999999998;" x1="472.3288" x2="501.7288" y1="169.4533" y2="169.4533"/><line style="stroke:#181818;stroke-width:0.6999999999999998;" x1="501.7288" x2="501.7288" y1="169.4533" y2="178.5533"/><line style="stroke:#181818;stroke-width:0.6999999999999998;" x1="473.0288" x2="501.7288" y1="178.5533" y2="178.5533"/><polygon fill="#181818" points="480.0288,175.7533,473.0288,178.5533,480.0288,181.3533,477.2288,178.5533" style="stroke:#181818;stroke-width:0.6999999999999998;"/><text fill="#000000" font-family="sans-serif" font-size="9.1" lengthAdjust="spacing" textLength="76.8701" x="477.2288" y="165.7694">calculateWinRate()</text><line style="stroke:#181818;stroke-width:0.6999999999999998;" x1="472.3288" x2="501.7288" y1="200.457" y2="200.457"/><line style="stroke:#181818;stroke-width:0.6999999999999998;" x1="501.7288" x2="501.7288" y1="200.457" y2="209.557"/><line style="stroke:#181818;stroke-width:0.6999999999999998;" x1="473.0288" x2="501.7288" y1="209.557" y2="209.557"/><polygon fill="#181818" points="480.0288,206.757,473.0288,209.557,480.0288,212.357,477.2288,209.557" style="stroke:#181818;stroke-width:0.6999999999999998;"/><text fill="#000000" font-family="sans-serif" font-size="9.1" lengthAdjust="spacing" textLength="72.3157" x="477.2288" y="196.7731">assessPlayStyle()</text><line style="stroke:#181818;stroke-width:0.6999999999999998;" x1="472.3288" x2="501.7288" y1="231.4607" y2="231.4607"/><line style="stroke:#181818;stroke-width:0.6999999999999998;" x1="501.7288" x2="501.7288" y1="231.4607" y2="240.5607"/><line style="stroke:#181818;stroke-width:0.6999999999999998;" x1="473.0288" x2="501.7288" y1="240.5607" y2="240.5607"/><polygon fill="#181818" points="480.0288,237.7607,473.0288,240.5607,480.0288,243.3607,477.2288,240.5607" style="stroke:#181818;stroke-width:0.6999999999999998;"/><text fill="#000000" font-family="sans-serif" font-size="9.1" lengthAdjust="spacing" textLength="94.568" x="477.2288" y="227.7769">measureImprovement()</text><line style="stroke:#181818;stroke-width:0.6999999999999998;" x1="472.3288" x2="501.7288" y1="262.4645" y2="262.4645"/><line style="stroke:#181818;stroke-width:0.6999999999999998;" x1="501.7288" x2="501.7288" y1="262.4645" y2="271.5645"/><line style="stroke:#181818;stroke-width:0.6999999999999998;" x1="473.0288" x2="501.7288" y1="271.5645" y2="271.5645"/><polygon fill="#181818" points="480.0288,268.7645,473.0288,271.5645,480.0288,274.3645,477.2288,271.5645" style="stroke:#181818;stroke-width:0.6999999999999998;"/><text fill="#000000" font-family="sans-serif" font-size="9.1" lengthAdjust="spacing" textLength="106.2141" x="477.2288" y="258.7806">analyzeDecisionPatterns()</text><polygon fill="#181818" points="377.2867,290.6682,370.2867,293.4682,377.2867,296.2682,374.4867,293.4682" style="stroke:#181818;stroke-width:0.6999999999999998;"/><line style="stroke:#181818;stroke-width:0.6999999999999998;stroke-dasharray:2.0,2.0;" x1="373.0867" x2="468.1288" y1="293.4682" y2="293.4682"/><text fill="#000000" font-family="sans-serif" font-size="9.1" lengthAdjust="spacing" textLength="59.6788" x="389.3683" y="289.7843">PlayerAnalysis</text><polygon fill="#181818" points="277.0862,312.5719,270.0862,315.3719,277.0862,318.1719,274.2862,315.3719" style="stroke:#181818;stroke-width:0.6999999999999998;"/><line style="stroke:#181818;stroke-width:0.6999999999999998;stroke-dasharray:2.0,2.0;" x1="272.8862" x2="365.3867" y1="315.3719" y2="315.3719"/><text fill="#000000" font-family="sans-serif" font-size="9.1" lengthAdjust="spacing" textLength="61.1895" x="287.1417" y="311.688">GameStatistics</text><polygon fill="#181818" points="143.042,334.4756,136.042,337.2756,143.042,340.0756,140.242,337.2756" style="stroke:#181818;stroke-width:0.6999999999999998;"/><line style="stroke:#181818;stroke-width:0.6999999999999998;stroke-dasharray:2.0,2.0;" x1="138.842" x2="265.1862" y1="337.2756" y2="337.2756"/><text fill="#000000" font-family="sans-serif" font-size="9.1" lengthAdjust="spacing" textLength="40.9722" x="180.128" y="333.5917">Update UI</text><line style="stroke:#181818;stroke-width:0.6999999999999998;" x1="135.342" x2="164.742" y1="359.1793" y2="359.1793"/><line style="stroke:#181818;stroke-width:0.6999999999999998;" x1="164.742" x2="164.742" y1="359.1793" y2="368.2793"/><line style="stroke:#181818;stroke-width:0.6999999999999998;" x1="136.042" x2="164.742" y1="368.2793" y2="368.2793"/><polygon fill="#181818" points="143.042,365.4793,136.042,368.2793,143.042,371.0793,140.242,368.2793" style="stroke:#181818;stroke-width:0.6999999999999998;"/><text fill="#000000" font-family="sans-serif" font-size="9.1" lengthAdjust="spacing" textLength="68.7743" x="140.242" y="355.4954">Display Statistics</text><line style="stroke:#181818;stroke-width:0.6999999999999998;" x1="135.342" x2="164.742" y1="390.183" y2="390.183"/><line style="stroke:#181818;stroke-width:0.6999999999999998;" x1="164.742" x2="164.742" y1="390.183" y2="399.283"/><line style="stroke:#181818;stroke-width:0.6999999999999998;" x1="136.042" x2="164.742" y1="399.283" y2="399.283"/><polygon fill="#181818" points="143.042,396.483,136.042,399.283,143.042,402.083,140.242,399.283" style="stroke:#181818;stroke-width:0.6999999999999998;"/><text fill="#000000" font-family="sans-serif" font-size="9.1" lengthAdjust="spacing" textLength="62.7136" x="140.242" y="386.4991">Show Win Rate</text><line style="stroke:#181818;stroke-width:0.6999999999999998;" x1="135.342" x2="164.742" y1="421.1867" y2="421.1867"/><line style="stroke:#181818;stroke-width:0.6999999999999998;" x1="164.742" x2="164.742" y1="421.1867" y2="430.2867"/><line style="stroke:#181818;stroke-width:0.6999999999999998;" x1="136.042" x2="164.742" y1="430.2867" y2="430.2867"/><polygon fill="#181818" points="143.042,427.4867,136.042,430.2867,143.042,433.0867,140.242,430.2867" style="stroke:#181818;stroke-width:0.6999999999999998;"/><text fill="#000000" font-family="sans-serif" font-size="9.1" lengthAdjust="spacing" textLength="84.9748" x="140.242" y="417.5028">Show Games Played</text><line style="stroke:#181818;stroke-width:0.6999999999999998;" x1="135.342" x2="164.742" y1="452.1904" y2="452.1904"/><line style="stroke:#181818;stroke-width:0.6999999999999998;" x1="164.742" x2="164.742" y1="452.1904" y2="461.2904"/><line style="stroke:#181818;stroke-width:0.6999999999999998;" x1="136.042" x2="164.742" y1="461.2904" y2="461.2904"/><polygon fill="#181818" points="143.042,458.4904,136.042,461.2904,143.042,464.0904,140.242,461.2904" style="stroke:#181818;stroke-width:0.6999999999999998;"/><text fill="#000000" font-family="sans-serif" font-size="9.1" lengthAdjust="spacing" textLength="65.7528" x="140.242" y="448.5065">Show Play Style</text><line style="stroke:#181818;stroke-width:0.6999999999999998;" x1="135.342" x2="164.742" y1="483.1941" y2="483.1941"/><line style="stroke:#181818;stroke-width:0.6999999999999998;" x1="164.742" x2="164.742" y1="483.1941" y2="492.2941"/><line style="stroke:#181818;stroke-width:0.6999999999999998;" x1="136.042" x2="164.742" y1="492.2941" y2="492.2941"/><polygon fill="#181818" points="143.042,489.4941,136.042,492.2941,143.042,495.0941,140.242,492.2941" style="stroke:#181818;stroke-width:0.6999999999999998;"/><text fill="#000000" font-family="sans-serif" font-size="9.1" lengthAdjust="spacing" textLength="110.2442" x="140.242" y="479.5103">Show Improvement Metrics</text><polygon fill="#181818" points="119.942,511.3979,126.942,514.1979,119.942,516.9979,122.742,514.1979" style="stroke:#181818;stroke-width:0.6999999999999998;"/><line style="stroke:#181818;stroke-width:0.6999999999999998;" x1="19.4889" x2="124.142" y1="514.1979" y2="514.1979"/><text fill="#000000" font-family="sans-serif" font-size="9.1" lengthAdjust="spacing" textLength="92.0531" x="27.8889" y="510.514">View Detailed Analysis</text><line style="stroke:#181818;stroke-width:0.6999999999999998;" x1="135.342" x2="164.742" y1="536.1016" y2="536.1016"/><line style="stroke:#181818;stroke-width:0.6999999999999998;" x1="164.742" x2="164.742" y1="536.1016" y2="545.2016"/><line style="stroke:#181818;stroke-width:0.6999999999999998;" x1="136.042" x2="164.742" y1="545.2016" y2="545.2016"/><polygon fill="#181818" points="143.042,542.4016,136.042,545.2016,143.042,548.0016,140.242,545.2016" style="stroke:#181818;stroke-width:0.6999999999999998;"/><text fill="#000000" font-family="sans-serif" font-size="9.1" lengthAdjust="spacing" textLength="96.6075" x="140.242" y="532.4177">Show Decision Patterns</text><line style="stroke:#181818;stroke-width:0.6999999999999998;" x1="135.342" x2="164.742" y1="570.6053" y2="570.6053"/><line style="stroke:#181818;stroke-width:0.6999999999999998;" x1="164.742" x2="164.742" y1="570.6053" y2="579.7053"/><line style="stroke:#181818;stroke-width:0.6999999999999998;" x1="131.842" x2="164.742" y1="579.7053" y2="579.7053"/><polygon fill="#181818" points="138.842,576.9053,131.842,579.7053,138.842,582.5053,136.042,579.7053" style="stroke:#181818;stroke-width:0.6999999999999998;"/><text fill="#000000" font-family="sans-serif" font-size="9.1" lengthAdjust="spacing" textLength="108.2358" x="140.242" y="566.9214">Show Performance Trends</text><!--SRC=[VPGnRy8m48Lt_ufJbxP3svsX4X9InH09aKB7wfGSgLN7INq6H7zzpoGX3iATiE5xzhltBEwPVlPa2tf1Y-R4cZztfZa-j_lQACNVshRei8O1ouWPAveRNLaeo7foIc7X6mShWoVP2UzreLkq7kvoZrwpx3al796z0sG8N_9ccIAtcevPKv8PuMsMWZEnNP4RqIdOUPhtevsfOQDKzoCylGwEPX3kXl7qC9a-eAUBPzKlBgfjDeDr28TzMYZ-LR-u26TGaN_3caRLm-ELhbS5pM1x1kUYVgbplq2FiMoSRbXDnGMQOc-4_D1sBH-YlGqYirGTBidzoQIvcf3tZfPrwve3rV8YqaTsnXTKQDQDNQ6NrsF3r95WZ6VQdIhfnf1zF74PqqXZMHnfA28kVjEM0P66hmMNxgBIWsAXkHM7SUctiFohEOA43I7jD15SSpTocQPMtONIHvg9ce2Cl0l6aazzGHwreNACD7dkK1iClVrZazokSJNA_mMyExAbEBYELPB-0m00]--></g></svg>