<svg xmlns="http://www.w3.org/2000/svg" xmlns:xlink="http://www.w3.org/1999/xlink" contentStyleType="text/css" height="924px" preserveAspectRatio="none" style="width:840px;height:924px;background:#FFFFFF;" version="1.1" viewBox="0 0 840 924" width="840px" zoomAndPan="magnify"><defs/><g><rect fill="#FFFFFF" height="699.2383" style="stroke:#181818;stroke-width:1.0;" width="10" x="183.3457" y="116.9121"/><rect fill="#FFFFFF" height="333.6191" style="stroke:#181818;stroke-width:1.0;" width="10" x="374.8374" y="148.2031"/><rect fill="#FFFFFF" height="271.0371" style="stroke:#181818;stroke-width:1.0;" width="10" x="517.981" y="179.4941"/><rect fill="#FFFFFF" height="208.4551" style="stroke:#181818;stroke-width:1.0;" width="10" x="664.7554" y="210.7852"/><line style="stroke:#181818;stroke-width:0.5;stroke-dasharray:5.0,5.0;" x1="27" x2="27" y1="83.6211" y2="841.1504"/><line style="stroke:#181818;stroke-width:0.5;stroke-dasharray:5.0,5.0;" x1="188.1597" x2="188.1597" y1="83.6211" y2="841.1504"/><line style="stroke:#181818;stroke-width:0.5;stroke-dasharray:5.0,5.0;" x1="379.5928" x2="379.5928" y1="83.6211" y2="841.1504"/><line style="stroke:#181818;stroke-width:0.5;stroke-dasharray:5.0,5.0;" x1="522.3467" x2="522.3467" y1="83.6211" y2="841.1504"/><line style="stroke:#181818;stroke-width:0.5;stroke-dasharray:5.0,5.0;" x1="668.8486" x2="668.8486" y1="83.6211" y2="841.1504"/><text fill="#000000" font-family="sans-serif" font-size="14" lengthAdjust="spacing" textLength="39.6826" x="5" y="80.1074">Player</text><ellipse cx="27.8413" cy="13.5" fill="#E2E2F0" rx="8" ry="8" style="stroke:#181818;stroke-width:0.5;"/><path d="M27.8413,21.5 L27.8413,48.5 M14.8413,29.5 L40.8413,29.5 M27.8413,48.5 L14.8413,63.5 M27.8413,48.5 L40.8413,63.5 " fill="none" style="stroke:#181818;stroke-width:0.5;"/><text fill="#000000" font-family="sans-serif" font-size="14" lengthAdjust="spacing" textLength="39.6826" x="5" y="855.2578">Player</text><ellipse cx="27.8413" cy="867.2715" fill="#E2E2F0" rx="8" ry="8" style="stroke:#181818;stroke-width:0.5;"/><path d="M27.8413,875.2715 L27.8413,902.2715 M14.8413,883.2715 L40.8413,883.2715 M27.8413,902.2715 L14.8413,917.2715 M27.8413,902.2715 L40.8413,917.2715 " fill="none" style="stroke:#181818;stroke-width:0.5;"/><rect fill="#E2E2F0" height="32.6211" rx="2.5" ry="2.5" style="stroke:#181818;stroke-width:0.5;" width="114.3721" x="131.1597" y="50"/><text fill="#000000" font-family="sans-serif" font-size="14" lengthAdjust="spacing" textLength="100.3721" x="138.1597" y="72.1074">StatisticsScreen</text><rect fill="#E2E2F0" height="32.6211" rx="2.5" ry="2.5" style="stroke:#181818;stroke-width:0.5;" width="114.3721" x="131.1597" y="840.1504"/><text fill="#000000" font-family="sans-serif" font-size="14" lengthAdjust="spacing" textLength="100.3721" x="138.1597" y="862.2578">StatisticsScreen</text><rect fill="#E2E2F0" height="32.6211" rx="2.5" ry="2.5" style="stroke:#181818;stroke-width:0.5;" width="138.4893" x="310.5928" y="50"/><text fill="#000000" font-family="sans-serif" font-size="14" lengthAdjust="spacing" textLength="124.4893" x="317.5928" y="72.1074">StatisticsViewModel</text><rect fill="#E2E2F0" height="32.6211" rx="2.5" ry="2.5" style="stroke:#181818;stroke-width:0.5;" width="138.4893" x="310.5928" y="840.1504"/><text fill="#000000" font-family="sans-serif" font-size="14" lengthAdjust="spacing" textLength="124.4893" x="317.5928" y="862.2578">StatisticsViewModel</text><rect fill="#E2E2F0" height="32.6211" rx="2.5" ry="2.5" style="stroke:#181818;stroke-width:0.5;" width="125.2686" x="460.3467" y="50"/><text fill="#000000" font-family="sans-serif" font-size="14" lengthAdjust="spacing" textLength="111.2686" x="467.3467" y="72.1074">StatisticsManager</text><rect fill="#E2E2F0" height="32.6211" rx="2.5" ry="2.5" style="stroke:#181818;stroke-width:0.5;" width="125.2686" x="460.3467" y="840.1504"/><text fill="#000000" font-family="sans-serif" font-size="14" lengthAdjust="spacing" textLength="111.2686" x="467.3467" y="862.2578">StatisticsManager</text><rect fill="#E2E2F0" height="32.6211" rx="2.5" ry="2.5" style="stroke:#181818;stroke-width:0.5;" width="105.8135" x="616.8486" y="50"/><text fill="#000000" font-family="sans-serif" font-size="14" lengthAdjust="spacing" textLength="91.8135" x="623.8486" y="72.1074">PlayerAnalysis</text><rect fill="#E2E2F0" height="32.6211" rx="2.5" ry="2.5" style="stroke:#181818;stroke-width:0.5;" width="105.8135" x="616.8486" y="840.1504"/><text fill="#000000" font-family="sans-serif" font-size="14" lengthAdjust="spacing" textLength="91.8135" x="623.8486" y="862.2578">PlayerAnalysis</text><rect fill="#FFFFFF" height="699.2383" style="stroke:#181818;stroke-width:1.0;" width="10" x="183.3457" y="116.9121"/><rect fill="#FFFFFF" height="333.6191" style="stroke:#181818;stroke-width:1.0;" width="10" x="374.8374" y="148.2031"/><rect fill="#FFFFFF" height="271.0371" style="stroke:#181818;stroke-width:1.0;" width="10" x="517.981" y="179.4941"/><rect fill="#FFFFFF" height="208.4551" style="stroke:#181818;stroke-width:1.0;" width="10" x="664.7554" y="210.7852"/><polygon fill="#181818" points="171.3457,112.9121,181.3457,116.9121,171.3457,120.9121,175.3457,116.9121" style="stroke:#181818;stroke-width:1.0;"/><line style="stroke:#181818;stroke-width:1.0;" x1="27.8413" x2="177.3457" y1="116.9121" y2="116.9121"/><text fill="#000000" font-family="sans-serif" font-size="13" lengthAdjust="spacing" textLength="83.8018" x="63.6926" y="111.6494">View Statistics</text><polygon fill="#181818" points="362.8374,144.2031,372.8374,148.2031,362.8374,152.2031,366.8374,148.2031" style="stroke:#181818;stroke-width:1.0;"/><line style="stroke:#181818;stroke-width:1.0;" x1="193.3457" x2="368.8374" y1="148.2031" y2="148.2031"/><text fill="#000000" font-family="sans-serif" font-size="13" lengthAdjust="spacing" textLength="104.0444" x="232.0693" y="142.9404">Request Statistics</text><polygon fill="#181818" points="505.981,175.4941,515.981,179.4941,505.981,183.4941,509.981,179.4941" style="stroke:#181818;stroke-width:1.0;"/><line style="stroke:#181818;stroke-width:1.0;" x1="384.8374" x2="511.981" y1="179.4941" y2="179.4941"/><text fill="#000000" font-family="sans-serif" font-size="13" lengthAdjust="spacing" textLength="114.1436" x="394.3374" y="174.2314">getGameStatistics()</text><polygon fill="#181818" points="652.7554,206.7852,662.7554,210.7852,652.7554,214.7852,656.7554,210.7852" style="stroke:#181818;stroke-width:1.0;"/><line style="stroke:#181818;stroke-width:1.0;" x1="527.981" x2="658.7554" y1="210.7852" y2="210.7852"/><text fill="#000000" font-family="sans-serif" font-size="13" lengthAdjust="spacing" textLength="117.7744" x="537.481" y="205.5225">analyzePlayerData()</text><line style="stroke:#181818;stroke-width:1.0;" x1="674.7554" x2="716.7554" y1="242.0762" y2="242.0762"/><line style="stroke:#181818;stroke-width:1.0;" x1="716.7554" x2="716.7554" y1="242.0762" y2="255.0762"/><line style="stroke:#181818;stroke-width:1.0;" x1="675.7554" x2="716.7554" y1="255.0762" y2="255.0762"/><polygon fill="#181818" points="685.7554,251.0762,675.7554,255.0762,685.7554,259.0762,681.7554,255.0762" style="stroke:#181818;stroke-width:1.0;"/><text fill="#000000" font-family="sans-serif" font-size="13" lengthAdjust="spacing" textLength="109.8145" x="681.7554" y="236.8135">calculateWinRate()</text><line style="stroke:#181818;stroke-width:1.0;" x1="674.7554" x2="716.7554" y1="286.3672" y2="286.3672"/><line style="stroke:#181818;stroke-width:1.0;" x1="716.7554" x2="716.7554" y1="286.3672" y2="299.3672"/><line style="stroke:#181818;stroke-width:1.0;" x1="675.7554" x2="716.7554" y1="299.3672" y2="299.3672"/><polygon fill="#181818" points="685.7554,295.3672,675.7554,299.3672,685.7554,303.3672,681.7554,299.3672" style="stroke:#181818;stroke-width:1.0;"/><text fill="#000000" font-family="sans-serif" font-size="13" lengthAdjust="spacing" textLength="103.3081" x="681.7554" y="281.1045">assessPlayStyle()</text><line style="stroke:#181818;stroke-width:1.0;" x1="674.7554" x2="716.7554" y1="330.6582" y2="330.6582"/><line style="stroke:#181818;stroke-width:1.0;" x1="716.7554" x2="716.7554" y1="330.6582" y2="343.6582"/><line style="stroke:#181818;stroke-width:1.0;" x1="675.7554" x2="716.7554" y1="343.6582" y2="343.6582"/><polygon fill="#181818" points="685.7554,339.6582,675.7554,343.6582,685.7554,347.6582,681.7554,343.6582" style="stroke:#181818;stroke-width:1.0;"/><text fill="#000000" font-family="sans-serif" font-size="13" lengthAdjust="spacing" textLength="135.0972" x="681.7554" y="325.3955">measureImprovement()</text><line style="stroke:#181818;stroke-width:1.0;" x1="674.7554" x2="716.7554" y1="374.9492" y2="374.9492"/><line style="stroke:#181818;stroke-width:1.0;" x1="716.7554" x2="716.7554" y1="374.9492" y2="387.9492"/><line style="stroke:#181818;stroke-width:1.0;" x1="675.7554" x2="716.7554" y1="387.9492" y2="387.9492"/><polygon fill="#181818" points="685.7554,383.9492,675.7554,387.9492,685.7554,391.9492,681.7554,387.9492" style="stroke:#181818;stroke-width:1.0;"/><text fill="#000000" font-family="sans-serif" font-size="13" lengthAdjust="spacing" textLength="151.7344" x="681.7554" y="369.6865">analyzeDecisionPatterns()</text><polygon fill="#181818" points="538.981,415.2402,528.981,419.2402,538.981,423.2402,534.981,419.2402" style="stroke:#181818;stroke-width:1.0;"/><line style="stroke:#181818;stroke-width:1.0;stroke-dasharray:2.0,2.0;" x1="532.981" x2="668.7554" y1="419.2402" y2="419.2402"/><text fill="#000000" font-family="sans-serif" font-size="13" lengthAdjust="spacing" textLength="85.2554" x="556.2405" y="413.9775">PlayerAnalysis</text><polygon fill="#181818" points="395.8374,446.5313,385.8374,450.5313,395.8374,454.5313,391.8374,450.5313" style="stroke:#181818;stroke-width:1.0;"/><line style="stroke:#181818;stroke-width:1.0;stroke-dasharray:2.0,2.0;" x1="389.8374" x2="521.981" y1="450.5313" y2="450.5313"/><text fill="#000000" font-family="sans-serif" font-size="13" lengthAdjust="spacing" textLength="87.4136" x="410.2024" y="445.2686">GameStatistics</text><polygon fill="#181818" points="204.3457,477.8223,194.3457,481.8223,204.3457,485.8223,200.3457,481.8223" style="stroke:#181818;stroke-width:1.0;"/><line style="stroke:#181818;stroke-width:1.0;stroke-dasharray:2.0,2.0;" x1="198.3457" x2="378.8374" y1="481.8223" y2="481.8223"/><text fill="#000000" font-family="sans-serif" font-size="13" lengthAdjust="spacing" textLength="58.5317" x="257.3257" y="476.5596">Update UI</text><line style="stroke:#181818;stroke-width:1.0;" x1="193.3457" x2="235.3457" y1="513.1133" y2="513.1133"/><line style="stroke:#181818;stroke-width:1.0;" x1="235.3457" x2="235.3457" y1="513.1133" y2="526.1133"/><line style="stroke:#181818;stroke-width:1.0;" x1="194.3457" x2="235.3457" y1="526.1133" y2="526.1133"/><polygon fill="#181818" points="204.3457,522.1133,194.3457,526.1133,204.3457,530.1133,200.3457,526.1133" style="stroke:#181818;stroke-width:1.0;"/><text fill="#000000" font-family="sans-serif" font-size="13" lengthAdjust="spacing" textLength="98.249" x="200.3457" y="507.8506">Display Statistics</text><line style="stroke:#181818;stroke-width:1.0;" x1="193.3457" x2="235.3457" y1="557.4043" y2="557.4043"/><line style="stroke:#181818;stroke-width:1.0;" x1="235.3457" x2="235.3457" y1="557.4043" y2="570.4043"/><line style="stroke:#181818;stroke-width:1.0;" x1="194.3457" x2="235.3457" y1="570.4043" y2="570.4043"/><polygon fill="#181818" points="204.3457,566.4043,194.3457,570.4043,204.3457,574.4043,200.3457,570.4043" style="stroke:#181818;stroke-width:1.0;"/><text fill="#000000" font-family="sans-serif" font-size="13" lengthAdjust="spacing" textLength="89.5908" x="200.3457" y="552.1416">Show Win Rate</text><line style="stroke:#181818;stroke-width:1.0;" x1="193.3457" x2="235.3457" y1="601.6953" y2="601.6953"/><line style="stroke:#181818;stroke-width:1.0;" x1="235.3457" x2="235.3457" y1="601.6953" y2="614.6953"/><line style="stroke:#181818;stroke-width:1.0;" x1="194.3457" x2="235.3457" y1="614.6953" y2="614.6953"/><polygon fill="#181818" points="204.3457,610.6953,194.3457,614.6953,204.3457,618.6953,200.3457,614.6953" style="stroke:#181818;stroke-width:1.0;"/><text fill="#000000" font-family="sans-serif" font-size="13" lengthAdjust="spacing" textLength="121.3926" x="200.3457" y="596.4326">Show Games Played</text><line style="stroke:#181818;stroke-width:1.0;" x1="193.3457" x2="235.3457" y1="645.9863" y2="645.9863"/><line style="stroke:#181818;stroke-width:1.0;" x1="235.3457" x2="235.3457" y1="645.9863" y2="658.9863"/><line style="stroke:#181818;stroke-width:1.0;" x1="194.3457" x2="235.3457" y1="658.9863" y2="658.9863"/><polygon fill="#181818" points="204.3457,654.9863,194.3457,658.9863,204.3457,662.9863,200.3457,658.9863" style="stroke:#181818;stroke-width:1.0;"/><text fill="#000000" font-family="sans-serif" font-size="13" lengthAdjust="spacing" textLength="93.9326" x="200.3457" y="640.7236">Show Play Style</text><line style="stroke:#181818;stroke-width:1.0;" x1="193.3457" x2="235.3457" y1="690.2773" y2="690.2773"/><line style="stroke:#181818;stroke-width:1.0;" x1="235.3457" x2="235.3457" y1="690.2773" y2="703.2773"/><line style="stroke:#181818;stroke-width:1.0;" x1="194.3457" x2="235.3457" y1="703.2773" y2="703.2773"/><polygon fill="#181818" points="204.3457,699.2773,194.3457,703.2773,204.3457,707.2773,200.3457,703.2773" style="stroke:#181818;stroke-width:1.0;"/><text fill="#000000" font-family="sans-serif" font-size="13" lengthAdjust="spacing" textLength="157.4917" x="200.3457" y="685.0146">Show Improvement Metrics</text><polygon fill="#181818" points="171.3457,730.5684,181.3457,734.5684,171.3457,738.5684,175.3457,734.5684" style="stroke:#181818;stroke-width:1.0;"/><line style="stroke:#181818;stroke-width:1.0;" x1="27.8413" x2="177.3457" y1="734.5684" y2="734.5684"/><text fill="#000000" font-family="sans-serif" font-size="13" lengthAdjust="spacing" textLength="131.5044" x="39.8413" y="729.3057">View Detailed Analysis</text><line style="stroke:#181818;stroke-width:1.0;" x1="193.3457" x2="235.3457" y1="765.8594" y2="765.8594"/><line style="stroke:#181818;stroke-width:1.0;" x1="235.3457" x2="235.3457" y1="765.8594" y2="778.8594"/><line style="stroke:#181818;stroke-width:1.0;" x1="194.3457" x2="235.3457" y1="778.8594" y2="778.8594"/><polygon fill="#181818" points="204.3457,774.8594,194.3457,778.8594,204.3457,782.8594,200.3457,778.8594" style="stroke:#181818;stroke-width:1.0;"/><text fill="#000000" font-family="sans-serif" font-size="13" lengthAdjust="spacing" textLength="138.0107" x="200.3457" y="760.5967">Show Decision Patterns</text><line style="stroke:#181818;stroke-width:1.0;" x1="193.3457" x2="235.3457" y1="815.1504" y2="815.1504"/><line style="stroke:#181818;stroke-width:1.0;" x1="235.3457" x2="235.3457" y1="815.1504" y2="828.1504"/><line style="stroke:#181818;stroke-width:1.0;" x1="188.3457" x2="235.3457" y1="828.1504" y2="828.1504"/><polygon fill="#181818" points="198.3457,824.1504,188.3457,828.1504,198.3457,832.1504,194.3457,828.1504" style="stroke:#181818;stroke-width:1.0;"/><text fill="#000000" font-family="sans-serif" font-size="13" lengthAdjust="spacing" textLength="154.6226" x="200.3457" y="809.8877">Show Performance Trends</text><!--SRC=[VPGnRy8m48Lt_ufJbxP3svsX4X9InH09aKB7wfGSgLN7INq6H7zzpoGX3iATiE5xzhltBEwPVlPa2tf1Y-R4cZztfZa-j_lQACNVshRei8O1ouWPAveRNLaeo7foIc7X6mShWoVP2UzreLkq7kvoZrwpx3al796z0sG8N_9ccIAtcevPKv8PuMsMWZEnNP4RqIdOUPhtevsfOQDKzoCylGwEPX3kXl7qC9a-eAUBPzKlBgfjDeDr28TzMYZ-LR-u26TGaN_3caRLm-ELhbS5pM1x1kUYVgbplq2FiMoSRbXDnGMQOc-4_D1sBH-YlGqYirGTBidzoQIvcf3tZfPrwve3rV8YqaTsnXTKQDQDNQ6NrsF3r95WZ6VQdIhfnf1zF74PqqXZMHnfA28kVjEM0P66hmMNxgBIWsAXkHM7SUctiFohEOA43I7jD15SSpTocQPMtONIHvg9ce2Cl0l6aazzGHwreNACD7dkK1iClVrZazokSJNA_mMyExAbEBYELPB-0m00]--></g></svg>