<svg xmlns="http://www.w3.org/2000/svg" xmlns:xlink="http://www.w3.org/1999/xlink" contentStyleType="text/css" height="674px" preserveAspectRatio="none" style="width:970px;height:674px;background:#FFFFFF;" version="1.1" viewBox="0 0 970 674" width="970px" zoomAndPan="magnify"><defs/><g><rect fill="#FFFFFF" height="464.7051" style="stroke:#181818;stroke-width:1.0;" width="10" x="195.4609" y="116.9121"/><rect fill="#FFFFFF" height="433.4141" style="stroke:#181818;stroke-width:1.0;" width="10" x="361.7354" y="148.2031"/><rect fill="#FFFFFF" height="402.123" style="stroke:#181818;stroke-width:1.0;" width="10" x="555.457" y="179.4941"/><rect fill="#FFFFFF" height="370.832" style="stroke:#181818;stroke-width:1.0;" width="10" x="766.5205" y="210.7852"/><rect fill="#FFFFFF" height="282.959" style="stroke:#181818;stroke-width:1.0;" width="10" x="887.0063" y="299.6582"/><rect fill="none" height="348.832" style="stroke:#000000;stroke-width:1.5;" width="953.8579" x="10" y="225.7852"/><line style="stroke:#181818;stroke-width:0.5;stroke-dasharray:5.0,5.0;" x1="37" x2="37" y1="83.6211" y2="591.6172"/><line style="stroke:#181818;stroke-width:0.5;stroke-dasharray:5.0,5.0;" x1="200.4336" x2="200.4336" y1="83.6211" y2="591.6172"/><line style="stroke:#181818;stroke-width:0.5;stroke-dasharray:5.0,5.0;" x1="366.6494" x2="366.6494" y1="83.6211" y2="591.6172"/><line style="stroke:#181818;stroke-width:0.5;stroke-dasharray:5.0,5.0;" x1="559.5986" x2="559.5986" y1="83.6211" y2="591.6172"/><line style="stroke:#181818;stroke-width:0.5;stroke-dasharray:5.0,5.0;" x1="770.8862" x2="770.8862" y1="83.6211" y2="591.6172"/><line style="stroke:#181818;stroke-width:0.5;stroke-dasharray:5.0,5.0;" x1="891.1548" x2="891.1548" y1="83.6211" y2="591.6172"/><text fill="#000000" font-family="sans-serif" font-size="14" lengthAdjust="spacing" textLength="29.5586" x="20" y="80.1074">User</text><ellipse cx="37.7793" cy="13.5" fill="#E2E2F0" rx="8" ry="8" style="stroke:#181818;stroke-width:0.5;"/><path d="M37.7793,21.5 L37.7793,48.5 M24.7793,29.5 L50.7793,29.5 M37.7793,48.5 L24.7793,63.5 M37.7793,48.5 L50.7793,63.5 " fill="none" style="stroke:#181818;stroke-width:0.5;"/><text fill="#000000" font-family="sans-serif" font-size="14" lengthAdjust="spacing" textLength="29.5586" x="20" y="605.7246">User</text><ellipse cx="37.7793" cy="617.7383" fill="#E2E2F0" rx="8" ry="8" style="stroke:#181818;stroke-width:0.5;"/><path d="M37.7793,625.7383 L37.7793,652.7383 M24.7793,633.7383 L50.7793,633.7383 M37.7793,652.7383 L24.7793,667.7383 M37.7793,652.7383 L50.7793,667.7383 " fill="none" style="stroke:#181818;stroke-width:0.5;"/><rect fill="#E2E2F0" height="32.6211" rx="2.5" ry="2.5" style="stroke:#181818;stroke-width:0.5;" width="98.0547" x="151.4336" y="50"/><text fill="#000000" font-family="sans-serif" font-size="14" lengthAdjust="spacing" textLength="84.0547" x="158.4336" y="72.1074">SignInScreen</text><rect fill="#E2E2F0" height="32.6211" rx="2.5" ry="2.5" style="stroke:#181818;stroke-width:0.5;" width="98.0547" x="151.4336" y="590.6172"/><text fill="#000000" font-family="sans-serif" font-size="14" lengthAdjust="spacing" textLength="84.0547" x="158.4336" y="612.7246">SignInScreen</text><rect fill="#E2E2F0" height="32.6211" rx="2.5" ry="2.5" style="stroke:#181818;stroke-width:0.5;" width="122.1719" x="305.6494" y="50"/><text fill="#000000" font-family="sans-serif" font-size="14" lengthAdjust="spacing" textLength="108.1719" x="312.6494" y="72.1074">SignInViewModel</text><rect fill="#E2E2F0" height="32.6211" rx="2.5" ry="2.5" style="stroke:#181818;stroke-width:0.5;" width="122.1719" x="305.6494" y="590.6172"/><text fill="#000000" font-family="sans-serif" font-size="14" lengthAdjust="spacing" textLength="108.1719" x="312.6494" y="612.7246">SignInViewModel</text><rect fill="#E2E2F0" height="32.6211" rx="2.5" ry="2.5" style="stroke:#181818;stroke-width:0.5;" width="109.7168" x="505.5986" y="50"/><text fill="#000000" font-family="sans-serif" font-size="14" lengthAdjust="spacing" textLength="95.7168" x="512.5986" y="72.1074">AuthRepository</text><rect fill="#E2E2F0" height="32.6211" rx="2.5" ry="2.5" style="stroke:#181818;stroke-width:0.5;" width="109.7168" x="505.5986" y="590.6172"/><text fill="#000000" font-family="sans-serif" font-size="14" lengthAdjust="spacing" textLength="95.7168" x="512.5986" y="612.7246">AuthRepository</text><rect fill="#E2E2F0" height="32.6211" rx="2.5" ry="2.5" style="stroke:#181818;stroke-width:0.5;" width="97.2686" x="722.8862" y="50"/><text fill="#000000" font-family="sans-serif" font-size="14" lengthAdjust="spacing" textLength="83.2686" x="729.8862" y="72.1074">FirebaseAuth</text><rect fill="#E2E2F0" height="32.6211" rx="2.5" ry="2.5" style="stroke:#181818;stroke-width:0.5;" width="97.2686" x="722.8862" y="590.6172"/><text fill="#000000" font-family="sans-serif" font-size="14" lengthAdjust="spacing" textLength="83.2686" x="729.8862" y="612.7246">FirebaseAuth</text><rect fill="#E2E2F0" height="32.6211" rx="2.5" ry="2.5" style="stroke:#181818;stroke-width:0.5;" width="123.7031" x="830.1548" y="50"/><text fill="#000000" font-family="sans-serif" font-size="14" lengthAdjust="spacing" textLength="109.7031" x="837.1548" y="72.1074">FirebaseFirestore</text><rect fill="#E2E2F0" height="32.6211" rx="2.5" ry="2.5" style="stroke:#181818;stroke-width:0.5;" width="123.7031" x="830.1548" y="590.6172"/><text fill="#000000" font-family="sans-serif" font-size="14" lengthAdjust="spacing" textLength="109.7031" x="837.1548" y="612.7246">FirebaseFirestore</text><rect fill="#FFFFFF" height="464.7051" style="stroke:#181818;stroke-width:1.0;" width="10" x="195.4609" y="116.9121"/><rect fill="#FFFFFF" height="433.4141" style="stroke:#181818;stroke-width:1.0;" width="10" x="361.7354" y="148.2031"/><rect fill="#FFFFFF" height="402.123" style="stroke:#181818;stroke-width:1.0;" width="10" x="555.457" y="179.4941"/><rect fill="#FFFFFF" height="370.832" style="stroke:#181818;stroke-width:1.0;" width="10" x="766.5205" y="210.7852"/><rect fill="#FFFFFF" height="282.959" style="stroke:#181818;stroke-width:1.0;" width="10" x="887.0063" y="299.6582"/><polygon fill="#181818" points="183.4609,112.9121,193.4609,116.9121,183.4609,120.9121,187.4609,116.9121" style="stroke:#181818;stroke-width:1.0;"/><line style="stroke:#181818;stroke-width:1.0;" x1="37.7793" x2="189.4609" y1="116.9121" y2="116.9121"/><text fill="#000000" font-family="sans-serif" font-size="13" lengthAdjust="spacing" textLength="72.249" x="44.7793" y="111.6494">Click Sign In</text><polygon fill="#181818" points="349.7354,144.2031,359.7354,148.2031,349.7354,152.2031,353.7354,148.2031" style="stroke:#181818;stroke-width:1.0;"/><line style="stroke:#181818;stroke-width:1.0;" x1="205.4609" x2="355.7354" y1="148.2031" y2="148.2031"/><text fill="#000000" font-family="sans-serif" font-size="13" lengthAdjust="spacing" textLength="137.2744" x="212.4609" y="142.9404">signIn(email, password)</text><polygon fill="#181818" points="543.457,175.4941,553.457,179.4941,543.457,183.4941,547.457,179.4941" style="stroke:#181818;stroke-width:1.0;"/><line style="stroke:#181818;stroke-width:1.0;" x1="371.7354" x2="549.457" y1="179.4941" y2="179.4941"/><text fill="#000000" font-family="sans-serif" font-size="13" lengthAdjust="spacing" textLength="164.7217" x="378.7354" y="174.2314">signInUser(email, password)</text><polygon fill="#181818" points="754.5205,206.7852,764.5205,210.7852,754.5205,214.7852,758.5205,210.7852" style="stroke:#181818;stroke-width:1.0;"/><line style="stroke:#181818;stroke-width:1.0;" x1="565.457" x2="760.5205" y1="210.7852" y2="210.7852"/><text fill="#000000" font-family="sans-serif" font-size="13" lengthAdjust="spacing" textLength="182.0635" x="572.457" y="205.5225">signInWithEmailAndPassword()</text><path d="M10,225.7852 L70.1709,225.7852 L70.1709,235.0762 L60.1709,245.0762 L10,245.0762 L10,225.7852 " fill="#EEEEEE" style="stroke:#000000;stroke-width:1.5;"/><rect fill="none" height="348.832" style="stroke:#000000;stroke-width:1.5;" width="953.8579" x="10" y="225.7852"/><text fill="#000000" font-family="sans-serif" font-size="13" font-weight="bold" lengthAdjust="spacing" textLength="15.1709" x="25" y="240.8135">alt</text><text fill="#000000" font-family="sans-serif" font-size="11" font-weight="bold" lengthAdjust="spacing" textLength="145.46" x="85.1709" y="239.6553">[Successful Authentication]</text><polygon fill="#181818" points="576.457,264.3672,566.457,268.3672,576.457,272.3672,572.457,268.3672" style="stroke:#181818;stroke-width:1.0;"/><line style="stroke:#181818;stroke-width:1.0;stroke-dasharray:2.0,2.0;" x1="570.457" x2="765.5205" y1="268.3672" y2="268.3672"/><text fill="#000000" font-family="sans-serif" font-size="13" lengthAdjust="spacing" textLength="63.5908" x="582.457" y="263.1045">AuthResult</text><polygon fill="#181818" points="875.0063,295.6582,885.0063,299.6582,875.0063,303.6582,879.0063,299.6582" style="stroke:#181818;stroke-width:1.0;"/><line style="stroke:#181818;stroke-width:1.0;" x1="565.457" x2="881.0063" y1="299.6582" y2="299.6582"/><text fill="#000000" font-family="sans-serif" font-size="13" lengthAdjust="spacing" textLength="92.4727" x="572.457" y="294.3955">Get User Profile</text><polygon fill="#181818" points="576.457,326.9492,566.457,330.9492,576.457,334.9492,572.457,330.9492" style="stroke:#181818;stroke-width:1.0;"/><line style="stroke:#181818;stroke-width:1.0;stroke-dasharray:2.0,2.0;" x1="570.457" x2="886.0063" y1="330.9492" y2="330.9492"/><text fill="#000000" font-family="sans-serif" font-size="13" lengthAdjust="spacing" textLength="64.2954" x="582.457" y="325.6865">UserProfile</text><polygon fill="#181818" points="382.7354,358.2402,372.7354,362.2402,382.7354,366.2402,378.7354,362.2402" style="stroke:#181818;stroke-width:1.0;"/><line style="stroke:#181818;stroke-width:1.0;stroke-dasharray:2.0,2.0;" x1="376.7354" x2="554.457" y1="362.2402" y2="362.2402"/><text fill="#000000" font-family="sans-serif" font-size="13" lengthAdjust="spacing" textLength="121.3799" x="388.7354" y="356.9775">Success(AuthResult)</text><polygon fill="#181818" points="216.4609,389.5313,206.4609,393.5313,216.4609,397.5313,212.4609,393.5313" style="stroke:#181818;stroke-width:1.0;"/><line style="stroke:#181818;stroke-width:1.0;stroke-dasharray:2.0,2.0;" x1="210.4609" x2="360.7354" y1="393.5313" y2="393.5313"/><text fill="#000000" font-family="sans-serif" font-size="13" lengthAdjust="spacing" textLength="92.498" x="222.4609" y="388.2686">Update UI State</text><polygon fill="#181818" points="48.7793,420.8223,38.7793,424.8223,48.7793,428.8223,44.7793,424.8223" style="stroke:#181818;stroke-width:1.0;"/><line style="stroke:#181818;stroke-width:1.0;stroke-dasharray:2.0,2.0;" x1="42.7793" x2="194.4609" y1="424.8223" y2="424.8223"/><text fill="#000000" font-family="sans-serif" font-size="13" lengthAdjust="spacing" textLength="133.6816" x="54.7793" y="419.5596">Navigate to Main Menu</text><line style="stroke:#000000;stroke-width:1.0;stroke-dasharray:2.0,2.0;" x1="10" x2="963.8579" y1="433.8223" y2="433.8223"/><text fill="#000000" font-family="sans-serif" font-size="11" font-weight="bold" lengthAdjust="spacing" textLength="119.1631" x="15" y="445.6924">[Authentication Failed]</text><polygon fill="#181818" points="576.457,468.7441,566.457,472.7441,576.457,476.7441,572.457,472.7441" style="stroke:#181818;stroke-width:1.0;"/><line style="stroke:#181818;stroke-width:1.0;stroke-dasharray:2.0,2.0;" x1="570.457" x2="765.5205" y1="472.7441" y2="472.7441"/><text fill="#000000" font-family="sans-serif" font-size="13" lengthAdjust="spacing" textLength="57.0908" x="582.457" y="467.4814">Exception</text><polygon fill="#181818" points="382.7354,500.0352,372.7354,504.0352,382.7354,508.0352,378.7354,504.0352" style="stroke:#181818;stroke-width:1.0;"/><line style="stroke:#181818;stroke-width:1.0;stroke-dasharray:2.0,2.0;" x1="376.7354" x2="554.457" y1="504.0352" y2="504.0352"/><text fill="#000000" font-family="sans-serif" font-size="13" lengthAdjust="spacing" textLength="90.2954" x="388.7354" y="498.7725">Error(message)</text><polygon fill="#181818" points="216.4609,531.3262,206.4609,535.3262,216.4609,539.3262,212.4609,535.3262" style="stroke:#181818;stroke-width:1.0;"/><line style="stroke:#181818;stroke-width:1.0;stroke-dasharray:2.0,2.0;" x1="210.4609" x2="360.7354" y1="535.3262" y2="535.3262"/><text fill="#000000" font-family="sans-serif" font-size="13" lengthAdjust="spacing" textLength="65.019" x="222.4609" y="530.0635">Show Error</text><polygon fill="#181818" points="48.7793,562.6172,38.7793,566.6172,48.7793,570.6172,44.7793,566.6172" style="stroke:#181818;stroke-width:1.0;"/><line style="stroke:#181818;stroke-width:1.0;stroke-dasharray:2.0,2.0;" x1="42.7793" x2="194.4609" y1="566.6172" y2="566.6172"/><text fill="#000000" font-family="sans-serif" font-size="13" lengthAdjust="spacing" textLength="131.4854" x="54.7793" y="561.3545">Display Error Message</text><!--SRC=[VPB1Ri8m38RlUGgBoq0Qsvt395XXwg4JMaLtdBBKGBIGT4aAu-qNfmNQWTP36pUVxTz_SkVmkqOjy97NVlknLkRmKDKxnHWNtbXOERIiujPB8IkkFGnokT6fpeL5r0FW3bRfBQ2GUCXCYIeoHTPdfg7P6rR6oT3a614A-z12Mlpa3WcE22rk8_HreHH6BfanHi9X_1JKJU1PIV45f0jIJOF9FVT8mjag9QZ89k2Yx27kk5JtK77d3iQMemiUPc15HZX9FILGdt-IubICtfH80vmItwNVpYblgijbcpZiPCPX6LSUybe8T6vTg_WJTPYVUsaqW_3GBnYVLJNEkbhvk7lgdCmcy88-dYSihLbBXH4uzmkcKPpCEiM8xi9DjTQmLjRmqd4K8VAeDNvLbOtHaFkmYDlaE6s7qXDuvNkv8SGRoBZKaA6k6Ig7VqQ5HN0AoriJpty4LcSxUXBdrXext0MLV8DNwlAjEJJ8jR14kahnOxCTLCKA37N9M8dzC-h4yRGxSRWodIZSjry0]--></g></svg>