<svg xmlns="http://www.w3.org/2000/svg" xmlns:xlink="http://www.w3.org/1999/xlink" contentStyleType="text/css" height="927px" preserveAspectRatio="none" style="width:891px;height:927px;background:#FFFFFF;" version="1.1" viewBox="0 0 891 927" width="891px" zoomAndPan="magnify"><defs/><g><rect fill="#FFFFFF" height="31.291" style="stroke:#181818;stroke-width:1.0;" width="10" x="138.3076" y="116.9121"/><rect fill="#FFFFFF" height="31.291" style="stroke:#181818;stroke-width:1.0;" width="10" x="246.3555" y="179.4941"/><rect fill="#FFFFFF" height="623.5" style="stroke:#181818;stroke-width:1.0;" width="10" x="362.9619" y="210.7852"/><rect fill="none" height="288.25" style="stroke:#000000;stroke-width:1.5;" width="579.2661" x="10" y="257.0762"/><rect fill="none" height="161.0859" style="stroke:#000000;stroke-width:1.5;" width="559.2661" x="20" y="377.2402"/><rect fill="none" height="267.959" style="stroke:#000000;stroke-width:1.5;" width="864.8511" x="20" y="559.3262"/><line style="stroke:#181818;stroke-width:0.5;stroke-dasharray:5.0,5.0;" x1="52" x2="52" y1="83.6211" y2="844.2852"/><line style="stroke:#181818;stroke-width:0.5;stroke-dasharray:5.0,5.0;" x1="142.6802" x2="142.6802" y1="83.6211" y2="844.2852"/><line style="stroke:#181818;stroke-width:0.5;stroke-dasharray:5.0,5.0;" x1="250.9351" x2="250.9351" y1="83.6211" y2="844.2852"/><line style="stroke:#181818;stroke-width:0.5;stroke-dasharray:5.0,5.0;" x1="367.7759" x2="367.7759" y1="83.6211" y2="844.2852"/><line style="stroke:#181818;stroke-width:0.5;stroke-dasharray:5.0,5.0;" x1="508.6665" x2="508.6665" y1="83.6211" y2="844.2852"/><line style="stroke:#181818;stroke-width:0.5;stroke-dasharray:5.0,5.0;" x1="641.2661" x2="641.2661" y1="83.6211" y2="844.2852"/><line style="stroke:#181818;stroke-width:0.5;stroke-dasharray:5.0,5.0;" x1="794.5347" x2="794.5347" y1="83.6211" y2="844.2852"/><text fill="#000000" font-family="sans-serif" font-size="14" lengthAdjust="spacing" textLength="39.6826" x="30" y="80.1074">Player</text><ellipse cx="52.8413" cy="13.5" fill="#E2E2F0" rx="8" ry="8" style="stroke:#181818;stroke-width:0.5;"/><path d="M52.8413,21.5 L52.8413,48.5 M39.8413,29.5 L65.8413,29.5 M52.8413,48.5 L39.8413,63.5 M52.8413,48.5 L65.8413,63.5 " fill="none" style="stroke:#181818;stroke-width:0.5;"/><text fill="#000000" font-family="sans-serif" font-size="14" lengthAdjust="spacing" textLength="39.6826" x="30" y="858.3926">Player</text><ellipse cx="52.8413" cy="870.4063" fill="#E2E2F0" rx="8" ry="8" style="stroke:#181818;stroke-width:0.5;"/><path d="M52.8413,878.4063 L52.8413,905.4063 M39.8413,886.4063 L65.8413,886.4063 M52.8413,905.4063 L39.8413,920.4063 M52.8413,905.4063 L65.8413,920.4063 " fill="none" style="stroke:#181818;stroke-width:0.5;"/><rect fill="#E2E2F0" height="32.6211" rx="2.5" ry="2.5" style="stroke:#181818;stroke-width:0.5;" width="83.2549" x="101.6802" y="50"/><text fill="#000000" font-family="sans-serif" font-size="14" lengthAdjust="spacing" textLength="69.2549" x="108.6802" y="72.1074">Main Menu</text><rect fill="#E2E2F0" height="32.6211" rx="2.5" ry="2.5" style="stroke:#181818;stroke-width:0.5;" width="83.2549" x="101.6802" y="843.2852"/><text fill="#000000" font-family="sans-serif" font-size="14" lengthAdjust="spacing" textLength="69.2549" x="108.6802" y="865.3926">Main Menu</text><rect fill="#E2E2F0" height="32.6211" rx="2.5" ry="2.5" style="stroke:#181818;stroke-width:0.5;" width="112.8408" x="194.9351" y="50"/><text fill="#000000" font-family="sans-serif" font-size="14" lengthAdjust="spacing" textLength="98.8408" x="201.9351" y="72.1074">Board Selection</text><rect fill="#E2E2F0" height="32.6211" rx="2.5" ry="2.5" style="stroke:#181818;stroke-width:0.5;" width="112.8408" x="194.9351" y="843.2852"/><text fill="#000000" font-family="sans-serif" font-size="14" lengthAdjust="spacing" textLength="98.8408" x="201.9351" y="865.3926">Board Selection</text><rect fill="#E2E2F0" height="32.6211" rx="2.5" ry="2.5" style="stroke:#181818;stroke-width:0.5;" width="100.3721" x="317.7759" y="50"/><text fill="#000000" font-family="sans-serif" font-size="14" lengthAdjust="spacing" textLength="86.3721" x="324.7759" y="72.1074">Game Screen</text><rect fill="#E2E2F0" height="32.6211" rx="2.5" ry="2.5" style="stroke:#181818;stroke-width:0.5;" width="100.3721" x="317.7759" y="843.2852"/><text fill="#000000" font-family="sans-serif" font-size="14" lengthAdjust="spacing" textLength="86.3721" x="324.7759" y="865.3926">Game Screen</text><rect fill="#E2E2F0" height="32.6211" rx="2.5" ry="2.5" style="stroke:#181818;stroke-width:0.5;" width="120.5996" x="448.6665" y="50"/><text fill="#000000" font-family="sans-serif" font-size="14" lengthAdjust="spacing" textLength="106.5996" x="455.6665" y="72.1074">GameViewModel</text><rect fill="#E2E2F0" height="32.6211" rx="2.5" ry="2.5" style="stroke:#181818;stroke-width:0.5;" width="120.5996" x="448.6665" y="843.2852"/><text fill="#000000" font-family="sans-serif" font-size="14" lengthAdjust="spacing" textLength="106.5996" x="455.6665" y="865.3926">GameViewModel</text><rect fill="#E2E2F0" height="32.6211" rx="2.5" ry="2.5" style="stroke:#181818;stroke-width:0.5;" width="125.2686" x="579.2661" y="50"/><text fill="#000000" font-family="sans-serif" font-size="14" lengthAdjust="spacing" textLength="111.2686" x="586.2661" y="72.1074">StatisticsManager</text><rect fill="#E2E2F0" height="32.6211" rx="2.5" ry="2.5" style="stroke:#181818;stroke-width:0.5;" width="125.2686" x="579.2661" y="843.2852"/><text fill="#000000" font-family="sans-serif" font-size="14" lengthAdjust="spacing" textLength="111.2686" x="586.2661" y="865.3926">StatisticsManager</text><rect fill="#E2E2F0" height="32.6211" rx="2.5" ry="2.5" style="stroke:#181818;stroke-width:0.5;" width="160.3164" x="714.5347" y="50"/><text fill="#000000" font-family="sans-serif" font-size="14" lengthAdjust="spacing" textLength="146.3164" x="721.5347" y="72.1074">LeaderboardRepository</text><rect fill="#E2E2F0" height="32.6211" rx="2.5" ry="2.5" style="stroke:#181818;stroke-width:0.5;" width="160.3164" x="714.5347" y="843.2852"/><text fill="#000000" font-family="sans-serif" font-size="14" lengthAdjust="spacing" textLength="146.3164" x="721.5347" y="865.3926">LeaderboardRepository</text><rect fill="#FFFFFF" height="31.291" style="stroke:#181818;stroke-width:1.0;" width="10" x="138.3076" y="116.9121"/><rect fill="#FFFFFF" height="31.291" style="stroke:#181818;stroke-width:1.0;" width="10" x="246.3555" y="179.4941"/><rect fill="#FFFFFF" height="623.5" style="stroke:#181818;stroke-width:1.0;" width="10" x="362.9619" y="210.7852"/><polygon fill="#181818" points="126.3076,112.9121,136.3076,116.9121,126.3076,120.9121,130.3076,116.9121" style="stroke:#181818;stroke-width:1.0;"/><line style="stroke:#181818;stroke-width:1.0;" x1="52.8413" x2="132.3076" y1="116.9121" y2="116.9121"/><text fill="#000000" font-family="sans-serif" font-size="13" lengthAdjust="spacing" textLength="66.4663" x="62.3413" y="111.6494">Start Game</text><polygon fill="#181818" points="239.3555,144.2031,249.3555,148.2031,239.3555,152.2031,243.3555,148.2031" style="stroke:#181818;stroke-width:1.0;"/><line style="stroke:#181818;stroke-width:1.0;" x1="143.3076" x2="245.3555" y1="148.2031" y2="148.2031"/><text fill="#000000" font-family="sans-serif" font-size="13" lengthAdjust="spacing" textLength="74.4326" x="160.1152" y="142.9404">Select Board</text><polygon fill="#181818" points="234.3555,175.4941,244.3555,179.4941,234.3555,183.4941,238.3555,179.4941" style="stroke:#181818;stroke-width:1.0;"/><line style="stroke:#181818;stroke-width:1.0;" x1="52.8413" x2="240.3555" y1="179.4941" y2="179.4941"/><text fill="#000000" font-family="sans-serif" font-size="13" lengthAdjust="spacing" textLength="83.1099" x="108.0435" y="174.2314">Choose Board</text><polygon fill="#181818" points="350.9619,206.7852,360.9619,210.7852,350.9619,214.7852,354.9619,210.7852" style="stroke:#181818;stroke-width:1.0;"/><line style="stroke:#181818;stroke-width:1.0;" x1="251.3555" x2="356.9619" y1="210.7852" y2="210.7852"/><text fill="#000000" font-family="sans-serif" font-size="13" lengthAdjust="spacing" textLength="66.4663" x="273.9255" y="205.5225">Start Game</text><polygon fill="#181818" points="496.9663,238.0762,506.9663,242.0762,496.9663,246.0762,500.9663,242.0762" style="stroke:#181818;stroke-width:1.0;"/><line style="stroke:#181818;stroke-width:1.0;" x1="372.9619" x2="502.9663" y1="242.0762" y2="242.0762"/><text fill="#000000" font-family="sans-serif" font-size="13" lengthAdjust="spacing" textLength="85.979" x="397.9746" y="236.8135">Initialize Game</text><path d="M10,257.0762 L82.4346,257.0762 L82.4346,266.3672 L72.4346,276.3672 L10,276.3672 L10,257.0762 " fill="#EEEEEE" style="stroke:#000000;stroke-width:1.5;"/><rect fill="none" height="288.25" style="stroke:#000000;stroke-width:1.5;" width="579.2661" x="10" y="257.0762"/><text fill="#000000" font-family="sans-serif" font-size="13" font-weight="bold" lengthAdjust="spacing" textLength="27.4346" x="25" y="272.1045">loop</text><text fill="#000000" font-family="sans-serif" font-size="11" font-weight="bold" lengthAdjust="spacing" textLength="75.7754" x="97.4346" y="270.9463">[Game Round]</text><polygon fill="#181818" points="350.9619,295.6582,360.9619,299.6582,350.9619,303.6582,354.9619,299.6582" style="stroke:#181818;stroke-width:1.0;"/><line style="stroke:#181818;stroke-width:1.0;" x1="52.8413" x2="356.9619" y1="299.6582" y2="299.6582"/><text fill="#000000" font-family="sans-serif" font-size="13" lengthAdjust="spacing" textLength="52.0127" x="181.8953" y="294.3955">Roll Dice</text><polygon fill="#181818" points="496.9663,326.9492,506.9663,330.9492,496.9663,334.9492,500.9663,330.9492" style="stroke:#181818;stroke-width:1.0;"/><line style="stroke:#181818;stroke-width:1.0;" x1="372.9619" x2="502.9663" y1="330.9492" y2="330.9492"/><text fill="#000000" font-family="sans-serif" font-size="13" lengthAdjust="spacing" textLength="72.9663" x="404.481" y="325.6865">Process Roll</text><polygon fill="#181818" points="383.9619,358.2402,373.9619,362.2402,383.9619,366.2402,379.9619,362.2402" style="stroke:#181818;stroke-width:1.0;"/><line style="stroke:#181818;stroke-width:1.0;stroke-dasharray:2.0,2.0;" x1="377.9619" x2="507.9663" y1="362.2402" y2="362.2402"/><text fill="#000000" font-family="sans-serif" font-size="13" lengthAdjust="spacing" textLength="79.4917" x="401.2183" y="356.9775">Update Score</text><path d="M20,377.2402 L80.1709,377.2402 L80.1709,386.5313 L70.1709,396.5313 L20,396.5313 L20,377.2402 " fill="#EEEEEE" style="stroke:#000000;stroke-width:1.5;"/><rect fill="none" height="161.0859" style="stroke:#000000;stroke-width:1.5;" width="559.2661" x="20" y="377.2402"/><text fill="#000000" font-family="sans-serif" font-size="13" font-weight="bold" lengthAdjust="spacing" textLength="15.1709" x="35" y="392.2686">alt</text><text fill="#000000" font-family="sans-serif" font-size="11" font-weight="bold" lengthAdjust="spacing" textLength="95.3101" x="95.1709" y="391.1104">[Continue Rolling]</text><polygon fill="#181818" points="350.9619,415.8223,360.9619,419.8223,350.9619,423.8223,354.9619,419.8223" style="stroke:#181818;stroke-width:1.0;"/><line style="stroke:#181818;stroke-width:1.0;" x1="52.8413" x2="356.9619" y1="419.8223" y2="419.8223"/><text fill="#000000" font-family="sans-serif" font-size="13" lengthAdjust="spacing" textLength="59.2554" x="178.2739" y="414.5596">Roll Again</text><line style="stroke:#000000;stroke-width:1.0;stroke-dasharray:2.0,2.0;" x1="20" x2="579.2661" y1="428.8223" y2="428.8223"/><text fill="#000000" font-family="sans-serif" font-size="11" font-weight="bold" lengthAdjust="spacing" textLength="70.8931" x="25" y="440.6924">[Bank Points]</text><polygon fill="#181818" points="350.9619,463.7441,360.9619,467.7441,350.9619,471.7441,354.9619,467.7441" style="stroke:#181818;stroke-width:1.0;"/><line style="stroke:#181818;stroke-width:1.0;" x1="52.8413" x2="356.9619" y1="467.7441" y2="467.7441"/><text fill="#000000" font-family="sans-serif" font-size="13" lengthAdjust="spacing" textLength="69.3735" x="173.2148" y="462.4814">Bank Points</text><polygon fill="#181818" points="496.9663,495.0352,506.9663,499.0352,496.9663,503.0352,500.9663,499.0352" style="stroke:#181818;stroke-width:1.0;"/><line style="stroke:#181818;stroke-width:1.0;" x1="372.9619" x2="502.9663" y1="499.0352" y2="499.0352"/><text fill="#000000" font-family="sans-serif" font-size="13" lengthAdjust="spacing" textLength="69.3735" x="406.2773" y="493.7725">Save Points</text><polygon fill="#181818" points="383.9619,526.3262,373.9619,530.3262,383.9619,534.3262,379.9619,530.3262" style="stroke:#181818;stroke-width:1.0;"/><line style="stroke:#181818;stroke-width:1.0;stroke-dasharray:2.0,2.0;" x1="377.9619" x2="507.9663" y1="530.3262" y2="530.3262"/><text fill="#000000" font-family="sans-serif" font-size="13" lengthAdjust="spacing" textLength="112.0044" x="384.9619" y="525.0635">Update Total Score</text><path d="M20,559.3262 L80.1709,559.3262 L80.1709,568.6172 L70.1709,578.6172 L20,578.6172 L20,559.3262 " fill="#EEEEEE" style="stroke:#000000;stroke-width:1.5;"/><rect fill="none" height="267.959" style="stroke:#000000;stroke-width:1.5;" width="864.8511" x="20" y="559.3262"/><text fill="#000000" font-family="sans-serif" font-size="13" font-weight="bold" lengthAdjust="spacing" textLength="15.1709" x="35" y="574.3545">alt</text><text fill="#000000" font-family="sans-serif" font-size="11" font-weight="bold" lengthAdjust="spacing" textLength="103.8555" x="95.1709" y="573.1963">[Win Condition Met]</text><polygon fill="#181818" points="383.9619,597.9082,373.9619,601.9082,383.9619,605.9082,379.9619,601.9082" style="stroke:#181818;stroke-width:1.0;"/><line style="stroke:#181818;stroke-width:1.0;" x1="377.9619" x2="507.9663" y1="601.9082" y2="601.9082"/><text fill="#000000" font-family="sans-serif" font-size="13" lengthAdjust="spacing" textLength="67.1836" x="407.3723" y="596.6455">Game Over</text><polygon fill="#181818" points="629.9004,629.1992,639.9004,633.1992,629.9004,637.1992,633.9004,633.1992" style="stroke:#181818;stroke-width:1.0;"/><line style="stroke:#181818;stroke-width:1.0;" x1="372.9619" x2="635.9004" y1="633.1992" y2="633.1992"/><text fill="#000000" font-family="sans-serif" font-size="13" lengthAdjust="spacing" textLength="97.5444" x="458.6589" y="627.9365">Update Statistics</text><line style="stroke:#181818;stroke-width:1.0;" x1="641.9004" x2="683.9004" y1="664.4902" y2="664.4902"/><line style="stroke:#181818;stroke-width:1.0;" x1="683.9004" x2="683.9004" y1="664.4902" y2="677.4902"/><line style="stroke:#181818;stroke-width:1.0;" x1="642.9004" x2="683.9004" y1="677.4902" y2="677.4902"/><polygon fill="#181818" points="652.9004,673.4902,642.9004,677.4902,652.9004,681.4902,648.9004,677.4902" style="stroke:#181818;stroke-width:1.0;"/><text fill="#000000" font-family="sans-serif" font-size="13" lengthAdjust="spacing" textLength="134.3989" x="648.9004" y="659.2275">Update Player Analysis</text><polygon fill="#181818" points="782.6929,704.7813,792.6929,708.7813,782.6929,712.7813,786.6929,708.7813" style="stroke:#181818;stroke-width:1.0;"/><line style="stroke:#181818;stroke-width:1.0;" x1="641.9004" x2="788.6929" y1="708.7813" y2="708.7813"/><text fill="#000000" font-family="sans-serif" font-size="13" lengthAdjust="spacing" textLength="119.2598" x="658.6667" y="703.5186">Update Leaderboard</text><polygon fill="#181818" points="63.8413,736.0723,53.8413,740.0723,63.8413,744.0723,59.8413,740.0723" style="stroke:#181818;stroke-width:1.0;"/><line style="stroke:#181818;stroke-width:1.0;stroke-dasharray:2.0,2.0;" x1="57.8413" x2="361.9619" y1="740.0723" y2="740.0723"/><text fill="#000000" font-family="sans-serif" font-size="13" lengthAdjust="spacing" textLength="79.479" x="168.1621" y="734.8096">Show Results</text><line style="stroke:#000000;stroke-width:1.0;stroke-dasharray:2.0,2.0;" x1="20" x2="884.8511" y1="749.0723" y2="749.0723"/><text fill="#000000" font-family="sans-serif" font-size="11" font-weight="bold" lengthAdjust="spacing" textLength="71.5215" x="25" y="760.9424">[Player Quits]</text><polygon fill="#181818" points="350.9619,783.9941,360.9619,787.9941,350.9619,791.9941,354.9619,787.9941" style="stroke:#181818;stroke-width:1.0;"/><line style="stroke:#181818;stroke-width:1.0;" x1="52.8413" x2="356.9619" y1="787.9941" y2="787.9941"/><text fill="#000000" font-family="sans-serif" font-size="13" lengthAdjust="spacing" textLength="60.6836" x="177.5598" y="782.7314">Exit Game</text><polygon fill="#181818" points="629.9004,815.2852,639.9004,819.2852,629.9004,823.2852,633.9004,819.2852" style="stroke:#181818;stroke-width:1.0;"/><line style="stroke:#181818;stroke-width:1.0;" x1="372.9619" x2="635.9004" y1="819.2852" y2="819.2852"/><text fill="#000000" font-family="sans-serif" font-size="13" lengthAdjust="spacing" textLength="132.2217" x="441.3203" y="814.0225">Save Current Progress</text><!--SRC=[TPHDZzCm48Rl_XNMNZWjt7j0AWKX929A0-M81cV8ZjQrW-sqb5_FUEnDaswtKgiuyyp7-sRILn7_ZEWClkdXW3z_MtzwFOm7grHy93T0W8D-GXgC4NfSM-gTDkWI1gN091_qriAPJymdCZI0I_gk0NAwGJVUQOXoiOo_yn0wtQ95ayWxeUJU4ll8S-dM1CI2vFDpOazuQdo7TcBspP9g4oIAV8uDE9OHXCntunByZD1X-9KdsU7W8x70iy2pY595ihv_Az9MkL98PJhsX8wGi8ZEFnaJRQigk2hjSCdEgbPyy-1zn8fFS3aM1vdDNHSJpEeMz98gSJ6r9kwRbVxaA15O-bVZode_oANU-T5rIlFdCblfj_FMwlTaKABN9RV16ruOeIPWt-ZxAV_xqEM1MkC3Tym8sAGttYLo8qeYkLu2BxPVzxnbWg3DDe5xr5jFZX_gItctcElXMpZYBURM_Dzy0bjLo21iL_wghEO7lmEigAEyuloCqyAAfqhI_ikHtw3vCBAR5vkc_HL8Wi-fAdRjm9uZNQ6p_PqIvZjzQSvmgSHMFFYJtc4SBNiX9jSUNqUgxbmx_E4lrJsy8KUitOmXy1z8Nf8-y9OKmsPRAzd_0G00]--></g></svg>