<svg xmlns="http://www.w3.org/2000/svg" xmlns:xlink="http://www.w3.org/1999/xlink" contentStyleType="text/css" height="1091px" preserveAspectRatio="none" style="width:1011px;height:1091px;background:#FFFFFF;" version="1.1" viewBox="0 0 1011 1091" width="1011px" zoomAndPan="magnify"><defs/><g><rect fill="#FFFFFF" height="881.6152" style="stroke:#181818;stroke-width:1.0;" width="10" x="197.6348" y="116.9121"/><rect fill="#FFFFFF" height="364.9102" style="stroke:#181818;stroke-width:1.0;" width="10" x="373.9683" y="223.7852"/><rect fill="#FFFFFF" height="226.7461" style="stroke:#181818;stroke-width:1.0;" width="10" x="538.0571" y="286.3672"/><rect fill="#FFFFFF" height="75.582" style="stroke:#181818;stroke-width:1.0;" width="10" x="741.1523" y="361.9492"/><rect fill="none" height="312.25" style="stroke:#000000;stroke-width:1.5;" width="994.8223" x="10" y="679.2773"/><line style="stroke:#181818;stroke-width:0.5;stroke-dasharray:5.0,5.0;" x1="42" x2="42" y1="83.6211" y2="1008.5273"/><line style="stroke:#181818;stroke-width:0.5;stroke-dasharray:5.0,5.0;" x1="202.104" x2="202.104" y1="83.6211" y2="1008.5273"/><line style="stroke:#181818;stroke-width:0.5;stroke-dasharray:5.0,5.0;" x1="378.1582" x2="378.1582" y1="83.6211" y2="1008.5273"/><line style="stroke:#181818;stroke-width:0.5;stroke-dasharray:5.0,5.0;" x1="542.416" x2="542.416" y1="83.6211" y2="1008.5273"/><line style="stroke:#181818;stroke-width:0.5;stroke-dasharray:5.0,5.0;" x1="745.6284" x2="745.6284" y1="83.6211" y2="1008.5273"/><line style="stroke:#181818;stroke-width:0.5;stroke-dasharray:5.0,5.0;" x1="875.6763" x2="875.6763" y1="83.6211" y2="1008.5273"/><text fill="#000000" font-family="sans-serif" font-size="14" lengthAdjust="spacing" textLength="39.6826" x="20" y="80.1074">Player</text><ellipse cx="42.8413" cy="13.5" fill="#E2E2F0" rx="8" ry="8" style="stroke:#181818;stroke-width:0.5;"/><path d="M42.8413,21.5 L42.8413,48.5 M29.8413,29.5 L55.8413,29.5 M42.8413,48.5 L29.8413,63.5 M42.8413,48.5 L55.8413,63.5 " fill="none" style="stroke:#181818;stroke-width:0.5;"/><text fill="#000000" font-family="sans-serif" font-size="14" lengthAdjust="spacing" textLength="39.6826" x="20" y="1022.6348">Player</text><ellipse cx="42.8413" cy="1034.6484" fill="#E2E2F0" rx="8" ry="8" style="stroke:#181818;stroke-width:0.5;"/><path d="M42.8413,1042.6484 L42.8413,1069.6484 M29.8413,1050.6484 L55.8413,1050.6484 M42.8413,1069.6484 L29.8413,1084.6484 M42.8413,1069.6484 L55.8413,1084.6484 " fill="none" style="stroke:#181818;stroke-width:0.5;"/><rect fill="#E2E2F0" height="32.6211" rx="2.5" ry="2.5" style="stroke:#181818;stroke-width:0.5;" width="133.0615" x="136.104" y="50"/><text fill="#000000" font-family="sans-serif" font-size="14" lengthAdjust="spacing" textLength="119.0615" x="143.104" y="72.1074">VirtualModeScreen</text><rect fill="#E2E2F0" height="32.6211" rx="2.5" ry="2.5" style="stroke:#181818;stroke-width:0.5;" width="133.0615" x="136.104" y="1007.5273"/><text fill="#000000" font-family="sans-serif" font-size="14" lengthAdjust="spacing" textLength="119.0615" x="143.104" y="1029.6348">VirtualModeScreen</text><rect fill="#E2E2F0" height="32.6211" rx="2.5" ry="2.5" style="stroke:#181818;stroke-width:0.5;" width="141.6201" x="308.1582" y="50"/><text fill="#000000" font-family="sans-serif" font-size="14" lengthAdjust="spacing" textLength="127.6201" x="315.1582" y="72.1074">DetectionViewModel</text><rect fill="#E2E2F0" height="32.6211" rx="2.5" ry="2.5" style="stroke:#181818;stroke-width:0.5;" width="141.6201" x="308.1582" y="1007.5273"/><text fill="#000000" font-family="sans-serif" font-size="14" lengthAdjust="spacing" textLength="127.6201" x="315.1582" y="1029.6348">DetectionViewModel</text><rect fill="#E2E2F0" height="32.6211" rx="2.5" ry="2.5" style="stroke:#181818;stroke-width:0.5;" width="139.2822" x="473.416" y="50"/><text fill="#000000" font-family="sans-serif" font-size="14" lengthAdjust="spacing" textLength="125.2822" x="480.416" y="72.1074">RoboflowRepository</text><rect fill="#E2E2F0" height="32.6211" rx="2.5" ry="2.5" style="stroke:#181818;stroke-width:0.5;" width="139.2822" x="473.416" y="1007.5273"/><text fill="#000000" font-family="sans-serif" font-size="14" lengthAdjust="spacing" textLength="125.2822" x="480.416" y="1029.6348">RoboflowRepository</text><rect fill="#E2E2F0" height="32.6211" rx="2.5" ry="2.5" style="stroke:#181818;stroke-width:0.5;" width="119.0479" x="686.6284" y="50"/><text fill="#000000" font-family="sans-serif" font-size="14" lengthAdjust="spacing" textLength="105.0479" x="693.6284" y="72.1074">RoboflowService</text><rect fill="#E2E2F0" height="32.6211" rx="2.5" ry="2.5" style="stroke:#181818;stroke-width:0.5;" width="119.0479" x="686.6284" y="1007.5273"/><text fill="#000000" font-family="sans-serif" font-size="14" lengthAdjust="spacing" textLength="105.0479" x="693.6284" y="1029.6348">RoboflowService</text><rect fill="#E2E2F0" height="32.6211" rx="2.5" ry="2.5" style="stroke:#181818;stroke-width:0.5;" width="120.5996" x="815.6763" y="50"/><text fill="#000000" font-family="sans-serif" font-size="14" lengthAdjust="spacing" textLength="106.5996" x="822.6763" y="72.1074">GameViewModel</text><rect fill="#E2E2F0" height="32.6211" rx="2.5" ry="2.5" style="stroke:#181818;stroke-width:0.5;" width="120.5996" x="815.6763" y="1007.5273"/><text fill="#000000" font-family="sans-serif" font-size="14" lengthAdjust="spacing" textLength="106.5996" x="822.6763" y="1029.6348">GameViewModel</text><rect fill="#FFFFFF" height="881.6152" style="stroke:#181818;stroke-width:1.0;" width="10" x="197.6348" y="116.9121"/><rect fill="#FFFFFF" height="364.9102" style="stroke:#181818;stroke-width:1.0;" width="10" x="373.9683" y="223.7852"/><rect fill="#FFFFFF" height="226.7461" style="stroke:#181818;stroke-width:1.0;" width="10" x="538.0571" y="286.3672"/><rect fill="#FFFFFF" height="75.582" style="stroke:#181818;stroke-width:1.0;" width="10" x="741.1523" y="361.9492"/><polygon fill="#181818" points="185.6348,112.9121,195.6348,116.9121,185.6348,120.9121,189.6348,116.9121" style="stroke:#181818;stroke-width:1.0;"/><line style="stroke:#181818;stroke-width:1.0;" x1="42.8413" x2="191.6348" y1="116.9121" y2="116.9121"/><text fill="#000000" font-family="sans-serif" font-size="13" lengthAdjust="spacing" textLength="112.7217" x="49.8413" y="111.6494">Opens virtual mode</text><line style="stroke:#181818;stroke-width:1.0;" x1="207.6348" x2="249.6348" y1="148.2031" y2="148.2031"/><line style="stroke:#181818;stroke-width:1.0;" x1="249.6348" x2="249.6348" y1="148.2031" y2="161.2031"/><line style="stroke:#181818;stroke-width:1.0;" x1="208.6348" x2="249.6348" y1="161.2031" y2="161.2031"/><polygon fill="#181818" points="218.6348,157.2031,208.6348,161.2031,218.6348,165.2031,214.6348,161.2031" style="stroke:#181818;stroke-width:1.0;"/><text fill="#000000" font-family="sans-serif" font-size="13" lengthAdjust="spacing" textLength="142.3335" x="214.6348" y="142.9404">Initialize camera preview</text><polygon fill="#181818" points="53.8413,188.4941,43.8413,192.4941,53.8413,196.4941,49.8413,192.4941" style="stroke:#181818;stroke-width:1.0;"/><line style="stroke:#181818;stroke-width:1.0;" x1="47.8413" x2="196.6348" y1="192.4941" y2="192.4941"/><text fill="#000000" font-family="sans-serif" font-size="13" lengthAdjust="spacing" textLength="127.8862" x="59.8413" y="187.2314">Show camera preview</text><polygon fill="#181818" points="185.6348,219.7852,195.6348,223.7852,185.6348,227.7852,189.6348,223.7852" style="stroke:#181818;stroke-width:1.0;"/><line style="stroke:#181818;stroke-width:1.0;" x1="42.8413" x2="191.6348" y1="223.7852" y2="223.7852"/><text fill="#000000" font-family="sans-serif" font-size="13" lengthAdjust="spacing" textLength="85.2681" x="49.8413" y="218.5225">Capture image</text><polygon fill="#181818" points="361.9683,251.0762,371.9683,255.0762,361.9683,259.0762,365.9683,255.0762" style="stroke:#181818;stroke-width:1.0;"/><line style="stroke:#181818;stroke-width:1.0;" x1="207.6348" x2="367.9683" y1="255.0762" y2="255.0762"/><text fill="#000000" font-family="sans-serif" font-size="13" lengthAdjust="spacing" textLength="109.0972" x="214.6348" y="249.8135">detectDice(bitmap)</text><polygon fill="#181818" points="526.0571,282.3672,536.0571,286.3672,526.0571,290.3672,530.0571,286.3672" style="stroke:#181818;stroke-width:1.0;"/><line style="stroke:#181818;stroke-width:1.0;" x1="383.9683" x2="532.0571" y1="286.3672" y2="286.3672"/><text fill="#000000" font-family="sans-serif" font-size="13" lengthAdjust="spacing" textLength="109.0972" x="390.9683" y="281.1045">detectDice(bitmap)</text><line style="stroke:#181818;stroke-width:1.0;" x1="548.0571" x2="590.0571" y1="317.6582" y2="317.6582"/><line style="stroke:#181818;stroke-width:1.0;" x1="590.0571" x2="590.0571" y1="317.6582" y2="330.6582"/><line style="stroke:#181818;stroke-width:1.0;" x1="549.0571" x2="590.0571" y1="330.6582" y2="330.6582"/><polygon fill="#181818" points="559.0571,326.6582,549.0571,330.6582,559.0571,334.6582,555.0571,330.6582" style="stroke:#181818;stroke-width:1.0;"/><text fill="#000000" font-family="sans-serif" font-size="13" lengthAdjust="spacing" textLength="142.3652" x="555.0571" y="312.3955">Create detection request</text><polygon fill="#181818" points="729.1523,357.9492,739.1523,361.9492,729.1523,365.9492,733.1523,361.9492" style="stroke:#181818;stroke-width:1.0;"/><line style="stroke:#181818;stroke-width:1.0;" x1="548.0571" x2="735.1523" y1="361.9492" y2="361.9492"/><text fill="#000000" font-family="sans-serif" font-size="13" lengthAdjust="spacing" textLength="152.458" x="555.0571" y="356.6865">detectDice(apiKey, image)</text><line style="stroke:#181818;stroke-width:1.0;" x1="751.1523" x2="793.1523" y1="393.2402" y2="393.2402"/><line style="stroke:#181818;stroke-width:1.0;" x1="793.1523" x2="793.1523" y1="393.2402" y2="406.2402"/><line style="stroke:#181818;stroke-width:1.0;" x1="752.1523" x2="793.1523" y1="406.2402" y2="406.2402"/><polygon fill="#181818" points="762.1523,402.2402,752.1523,406.2402,762.1523,410.2402,758.1523,406.2402" style="stroke:#181818;stroke-width:1.0;"/><text fill="#000000" font-family="sans-serif" font-size="13" lengthAdjust="spacing" textLength="85.979" x="758.1523" y="387.9775">Process image</text><polygon fill="#181818" points="559.0571,433.5313,549.0571,437.5313,559.0571,441.5313,555.0571,437.5313" style="stroke:#181818;stroke-width:1.0;"/><line style="stroke:#181818;stroke-width:1.0;stroke-dasharray:2.0,2.0;" x1="553.0571" x2="745.1523" y1="437.5313" y2="437.5313"/><text fill="#000000" font-family="sans-serif" font-size="13" lengthAdjust="spacing" textLength="105.498" x="565.0571" y="432.2686">Return predictions</text><line style="stroke:#181818;stroke-width:1.0;" x1="548.0571" x2="590.0571" y1="468.8223" y2="468.8223"/><line style="stroke:#181818;stroke-width:1.0;" x1="590.0571" x2="590.0571" y1="468.8223" y2="481.8223"/><line style="stroke:#181818;stroke-width:1.0;" x1="549.0571" x2="590.0571" y1="481.8223" y2="481.8223"/><polygon fill="#181818" points="559.0571,477.8223,549.0571,481.8223,559.0571,485.8223,555.0571,481.8223" style="stroke:#181818;stroke-width:1.0;"/><text fill="#000000" font-family="sans-serif" font-size="13" lengthAdjust="spacing" textLength="169.0952" x="555.0571" y="463.5596">Map predictions to detections</text><polygon fill="#181818" points="394.9683,509.1133,384.9683,513.1133,394.9683,517.1133,390.9683,513.1133" style="stroke:#181818;stroke-width:1.0;"/><line style="stroke:#181818;stroke-width:1.0;stroke-dasharray:2.0,2.0;" x1="388.9683" x2="542.0571" y1="513.1133" y2="513.1133"/><text fill="#000000" font-family="sans-serif" font-size="13" lengthAdjust="spacing" textLength="101.8926" x="400.9683" y="507.8506">Return detections</text><line style="stroke:#181818;stroke-width:1.0;" x1="383.9683" x2="425.9683" y1="544.4043" y2="544.4043"/><line style="stroke:#181818;stroke-width:1.0;" x1="425.9683" x2="425.9683" y1="544.4043" y2="557.4043"/><line style="stroke:#181818;stroke-width:1.0;" x1="384.9683" x2="425.9683" y1="557.4043" y2="557.4043"/><polygon fill="#181818" points="394.9683,553.4043,384.9683,557.4043,394.9683,561.4043,390.9683,557.4043" style="stroke:#181818;stroke-width:1.0;"/><text fill="#000000" font-family="sans-serif" font-size="13" lengthAdjust="spacing" textLength="130.0889" x="390.9683" y="539.1416">Update detection state</text><polygon fill="#181818" points="218.6348,584.6953,208.6348,588.6953,218.6348,592.6953,214.6348,588.6953" style="stroke:#181818;stroke-width:1.0;"/><line style="stroke:#181818;stroke-width:1.0;stroke-dasharray:2.0,2.0;" x1="212.6348" x2="377.9683" y1="588.6953" y2="588.6953"/><text fill="#000000" font-family="sans-serif" font-size="13" lengthAdjust="spacing" textLength="110.5381" x="224.6348" y="583.4326">Emit Success state</text><line style="stroke:#181818;stroke-width:1.0;" x1="207.6348" x2="249.6348" y1="619.9863" y2="619.9863"/><line style="stroke:#181818;stroke-width:1.0;" x1="249.6348" x2="249.6348" y1="619.9863" y2="632.9863"/><line style="stroke:#181818;stroke-width:1.0;" x1="208.6348" x2="249.6348" y1="632.9863" y2="632.9863"/><polygon fill="#181818" points="218.6348,628.9863,208.6348,632.9863,218.6348,636.9863,214.6348,632.9863" style="stroke:#181818;stroke-width:1.0;"/><text fill="#000000" font-family="sans-serif" font-size="13" lengthAdjust="spacing" textLength="125.0107" x="214.6348" y="614.7236">Draw detection boxes</text><polygon fill="#181818" points="53.8413,660.2773,43.8413,664.2773,53.8413,668.2773,49.8413,664.2773" style="stroke:#181818;stroke-width:1.0;"/><line style="stroke:#181818;stroke-width:1.0;" x1="47.8413" x2="196.6348" y1="664.2773" y2="664.2773"/><text fill="#000000" font-family="sans-serif" font-size="13" lengthAdjust="spacing" textLength="130.7935" x="59.8413" y="659.0146">Show detection results</text><path d="M10,679.2773 L70.1709,679.2773 L70.1709,688.5684 L60.1709,698.5684 L10,698.5684 L10,679.2773 " fill="#EEEEEE" style="stroke:#000000;stroke-width:1.5;"/><rect fill="none" height="312.25" style="stroke:#000000;stroke-width:1.5;" width="994.8223" x="10" y="679.2773"/><text fill="#000000" font-family="sans-serif" font-size="13" font-weight="bold" lengthAdjust="spacing" textLength="15.1709" x="25" y="694.3057">alt</text><text fill="#000000" font-family="sans-serif" font-size="11" font-weight="bold" lengthAdjust="spacing" textLength="142.4468" x="85.1709" y="693.1475">[Player accepts detections]</text><polygon fill="#181818" points="185.6348,717.8594,195.6348,721.8594,185.6348,725.8594,189.6348,721.8594" style="stroke:#181818;stroke-width:1.0;"/><line style="stroke:#181818;stroke-width:1.0;" x1="42.8413" x2="191.6348" y1="721.8594" y2="721.8594"/><text fill="#000000" font-family="sans-serif" font-size="13" lengthAdjust="spacing" textLength="61.4072" x="49.8413" y="716.5967">Click Save</text><polygon fill="#181818" points="863.9761,749.1504,873.9761,753.1504,863.9761,757.1504,867.9761,753.1504" style="stroke:#181818;stroke-width:1.0;"/><line style="stroke:#181818;stroke-width:1.0;" x1="207.6348" x2="869.9761" y1="753.1504" y2="753.1504"/><text fill="#000000" font-family="sans-serif" font-size="13" lengthAdjust="spacing" textLength="124.3062" x="214.6348" y="747.8877">Save detected values</text><line style="stroke:#181818;stroke-width:1.0;" x1="875.9761" x2="917.9761" y1="784.4414" y2="784.4414"/><line style="stroke:#181818;stroke-width:1.0;" x1="917.9761" x2="917.9761" y1="784.4414" y2="797.4414"/><line style="stroke:#181818;stroke-width:1.0;" x1="876.9761" x2="917.9761" y1="797.4414" y2="797.4414"/><polygon fill="#181818" points="886.9761,793.4414,876.9761,797.4414,886.9761,801.4414,882.9761,797.4414" style="stroke:#181818;stroke-width:1.0;"/><text fill="#000000" font-family="sans-serif" font-size="13" lengthAdjust="spacing" textLength="109.8462" x="882.9761" y="779.1787">Update game state</text><polygon fill="#181818" points="218.6348,824.7324,208.6348,828.7324,218.6348,832.7324,214.6348,828.7324" style="stroke:#181818;stroke-width:1.0;"/><line style="stroke:#181818;stroke-width:1.0;stroke-dasharray:2.0,2.0;" x1="212.6348" x2="874.9761" y1="828.7324" y2="828.7324"/><text fill="#000000" font-family="sans-serif" font-size="13" lengthAdjust="spacing" textLength="108.3989" x="224.6348" y="823.4697">Emit updated state</text><polygon fill="#181818" points="53.8413,856.0234,43.8413,860.0234,53.8413,864.0234,49.8413,860.0234" style="stroke:#181818;stroke-width:1.0;"/><line style="stroke:#181818;stroke-width:1.0;" x1="47.8413" x2="196.6348" y1="860.0234" y2="860.0234"/><text fill="#000000" font-family="sans-serif" font-size="13" lengthAdjust="spacing" textLength="89.6035" x="59.8413" y="854.7607">Return to game</text><line style="stroke:#000000;stroke-width:1.0;stroke-dasharray:2.0,2.0;" x1="10" x2="1004.8223" y1="869.0234" y2="869.0234"/><text fill="#000000" font-family="sans-serif" font-size="11" font-weight="bold" lengthAdjust="spacing" textLength="81.9414" x="15" y="880.8936">[Player retakes]</text><polygon fill="#181818" points="185.6348,903.9453,195.6348,907.9453,185.6348,911.9453,189.6348,907.9453" style="stroke:#181818;stroke-width:1.0;"/><line style="stroke:#181818;stroke-width:1.0;" x1="42.8413" x2="191.6348" y1="907.9453" y2="907.9453"/><text fill="#000000" font-family="sans-serif" font-size="13" lengthAdjust="spacing" textLength="72.9663" x="49.8413" y="902.6826">Click Retake</text><line style="stroke:#181818;stroke-width:1.0;" x1="207.6348" x2="249.6348" y1="939.2363" y2="939.2363"/><line style="stroke:#181818;stroke-width:1.0;" x1="249.6348" x2="249.6348" y1="939.2363" y2="952.2363"/><line style="stroke:#181818;stroke-width:1.0;" x1="208.6348" x2="249.6348" y1="952.2363" y2="952.2363"/><polygon fill="#181818" points="218.6348,948.2363,208.6348,952.2363,218.6348,956.2363,214.6348,952.2363" style="stroke:#181818;stroke-width:1.0;"/><text fill="#000000" font-family="sans-serif" font-size="13" lengthAdjust="spacing" textLength="80.9199" x="214.6348" y="933.9736">Reset camera</text><polygon fill="#181818" points="53.8413,979.5273,43.8413,983.5273,53.8413,987.5273,49.8413,983.5273" style="stroke:#181818;stroke-width:1.0;"/><line style="stroke:#181818;stroke-width:1.0;" x1="47.8413" x2="196.6348" y1="983.5273" y2="983.5273"/><text fill="#000000" font-family="sans-serif" font-size="13" lengthAdjust="spacing" textLength="127.8862" x="59.8413" y="978.2646">Show camera preview</text><!--SRC=[VPDFZzCm4CNl_XIZvG8I795MFN2WtOqGgbWvsjwdoL2iEh6ndPJowHaxVzQ98dg86lldz-RDnFwgMeiE6x1ONV52PRXh0aTLmFQYIVWPUFMqHqzVcRiuqxNrtcZZuDtJu_FZysSXi0hy-gBnJaxmaQ0gPR4Dy71IBdIeZwQcid94xGEWXzEnN6872cohJ7jIT8kmJjpXT5noqfpDJsrkagpnYatlYPDo6ol9zQgYWLbP5jZGqgrWDp64W4zVOf4x-66fzT0FAQ1XDePLFGPAAGG_PlXRgu92hVuILApk4AoZdZqcQX3VGVdBtDR8sdcFDdIEG3KycZVJs999Zl_le4wjEt3CzsSL6hGV1A_7RIatTsSfxfgGSYBtZk9YFKs2FuJV7Vam8UL23AtwJlUFGtMv9hT4bjE15sSgydxC4DT7CqcShOtPQvNSlAXfAJ8NTaIRWn3CMv4-SLChHjLiDnVbj6DZ4lngwsLU7_XzGAOPF3KgGDbLASImdodceqZumU4j4poRF-GtHvytsNSwUBv2EemC8FlPuFCSmB_rzw5LTOKIUqgxeqqHeyN5yJJLqAFcEIQe6F8NMVuBVuLZj9bOnEyILsVCAj7OTHvBr1AaFKsrEWfufV-KBnEGgwPDIPx2U46sBBVk3xMroASJR-S_]--></g></svg>