<svg xmlns="http://www.w3.org/2000/svg" xmlns:xlink="http://www.w3.org/1999/xlink" contentStyleType="text/css" height="764px" preserveAspectRatio="none" style="width:788px;height:764px;background:#FFFFFF;" version="1.1" viewBox="0 0 788 764" width="788.8px" zoomAndPan="magnify"><defs/><g><!--cluster data--><g id="cluster_data"><polygon fill="none" points="226.088,12.8,234.088,4.8,775.688,4.8,775.688,742.4,767.688,750.4,226.088,750.4,226.088,12.8" style="stroke:#000000;stroke-width:1.2000000000000002;"/><line style="stroke:#000000;stroke-width:1.2000000000000002;" x1="767.688" x2="775.688" y1="12.8" y2="4.8"/><line style="stroke:#000000;stroke-width:1.2000000000000002;" x1="226.088" x2="767.688" y1="12.8" y2="12.8"/><line style="stroke:#000000;stroke-width:1.2000000000000002;" x1="767.688" x2="767.688" y1="12.8" y2="750.4"/><text fill="#000000" font-family="sans-serif" font-size="11.2" font-weight="bold" lengthAdjust="spacing" textLength="23.0289" x="486.1735" y="28.0859">data</text></g><!--cluster models--><g id="cluster_models"><polygon fill="#D3D3D3" points="276.888,50.4,284.888,42.4,756.488,42.4,756.488,255.2,748.488,263.2,276.888,263.2,276.888,50.4" style="stroke:#000000;stroke-width:1.2000000000000002;"/><line style="stroke:#000000;stroke-width:1.2000000000000002;" x1="748.488" x2="756.488" y1="50.4" y2="42.4"/><line style="stroke:#000000;stroke-width:1.2000000000000002;" x1="276.888" x2="748.488" y1="50.4" y2="50.4"/><line style="stroke:#000000;stroke-width:1.2000000000000002;" x1="748.488" x2="748.488" y1="50.4" y2="263.2"/><text fill="#000000" font-family="sans-serif" font-size="11.2" font-weight="bold" lengthAdjust="spacing" textLength="39.2109" x="493.8825" y="65.6859">models</text></g><!--cluster detection--><g id="cluster_detection"><polygon fill="none" points="417.288,88,425.288,80,567.688,80,567.688,236,559.688,244,417.288,244,417.288,88" style="stroke:#000000;stroke-width:1.2000000000000002;"/><line style="stroke:#000000;stroke-width:1.2000000000000002;" x1="559.688" x2="567.688" y1="88" y2="80"/><line style="stroke:#000000;stroke-width:1.2000000000000002;" x1="417.288" x2="559.688" y1="88" y2="88"/><line style="stroke:#000000;stroke-width:1.2000000000000002;" x1="559.688" x2="559.688" y1="88" y2="244"/><text fill="#000000" font-family="sans-serif" font-size="11.2" font-weight="bold" lengthAdjust="spacing" textLength="49.782" x="464.397" y="103.2859">detection</text></g><!--cluster enums--><g id="cluster_enums"><polygon fill="none" points="619.688,88,627.688,80,737.288,80,737.288,236,729.288,244,619.688,244,619.688,88" style="stroke:#000000;stroke-width:1.2000000000000002;"/><line style="stroke:#000000;stroke-width:1.2000000000000002;" x1="729.288" x2="737.288" y1="88" y2="80"/><line style="stroke:#000000;stroke-width:1.2000000000000002;" x1="619.688" x2="729.288" y1="88" y2="88"/><line style="stroke:#000000;stroke-width:1.2000000000000002;" x1="729.288" x2="729.288" y1="88" y2="244"/><text fill="#000000" font-family="sans-serif" font-size="11.2" font-weight="bold" lengthAdjust="spacing" textLength="36.0992" x="657.2384" y="103.2859">enums</text></g><!--cluster manager--><g id="cluster_manager"><polygon fill="#FFFFE0" points="245.288,392,253.288,384,590.888,384,590.888,723.2,582.888,731.2,245.288,731.2,245.288,392" style="stroke:#000000;stroke-width:1.2000000000000002;"/><line style="stroke:#000000;stroke-width:1.2000000000000002;" x1="582.888" x2="590.888" y1="392" y2="384"/><line style="stroke:#000000;stroke-width:1.2000000000000002;" x1="245.288" x2="582.888" y1="392" y2="392"/><line style="stroke:#000000;stroke-width:1.2000000000000002;" x1="582.888" x2="582.888" y1="392" y2="731.2"/><text fill="#000000" font-family="sans-serif" font-size="11.2" font-weight="bold" lengthAdjust="spacing" textLength="46.6867" x="391.5446" y="407.2859">manager</text></g><!--cluster games--><g id="cluster_games"><polygon fill="none" points="264.488,429.6,272.488,421.6,571.688,421.6,571.688,577.6,563.688,585.6,264.488,585.6,264.488,429.6" style="stroke:#000000;stroke-width:1.2000000000000002;"/><line style="stroke:#000000;stroke-width:1.2000000000000002;" x1="563.688" x2="571.688" y1="429.6" y2="421.6"/><line style="stroke:#000000;stroke-width:1.2000000000000002;" x1="264.488" x2="563.688" y1="429.6" y2="429.6"/><line style="stroke:#000000;stroke-width:1.2000000000000002;" x1="563.688" x2="563.688" y1="429.6" y2="585.6"/><text fill="#000000" font-family="sans-serif" font-size="11.2" font-weight="bold" lengthAdjust="spacing" textLength="35.4867" x="397.1446" y="444.8859">games</text></g><!--cluster repository--><g id="cluster_repository"><polygon fill="#ADD8E6" points="264.488,290.4,272.488,282.4,579.688,282.4,579.688,356.8,571.688,364.8,264.488,364.8,264.488,290.4" style="stroke:#000000;stroke-width:1.2000000000000002;"/><line style="stroke:#000000;stroke-width:1.2000000000000002;" x1="571.688" x2="579.688" y1="290.4" y2="282.4"/><line style="stroke:#000000;stroke-width:1.2000000000000002;" x1="264.488" x2="571.688" y1="290.4" y2="290.4"/><line style="stroke:#000000;stroke-width:1.2000000000000002;" x1="571.688" x2="571.688" y1="290.4" y2="364.8"/><text fill="#000000" font-family="sans-serif" font-size="11.2" font-weight="bold" lengthAdjust="spacing" textLength="54.7695" x="391.5032" y="305.6859">repository</text></g><!--cluster service--><g id="cluster_service"><polygon fill="#ADD8E6" points="610.088,290.4,618.088,282.4,746.888,282.4,746.888,356.8,738.888,364.8,610.088,364.8,610.088,290.4" style="stroke:#000000;stroke-width:1.2000000000000002;"/><line style="stroke:#000000;stroke-width:1.2000000000000002;" x1="738.888" x2="746.888" y1="290.4" y2="282.4"/><line style="stroke:#000000;stroke-width:1.2000000000000002;" x1="610.088" x2="738.888" y1="290.4" y2="290.4"/><line style="stroke:#000000;stroke-width:1.2000000000000002;" x1="738.888" x2="738.888" y1="290.4" y2="364.8"/><text fill="#000000" font-family="sans-serif" font-size="11.2" font-weight="bold" lengthAdjust="spacing" textLength="38.6148" x="655.9806" y="305.6859">service</text></g><!--cluster ui--><g id="cluster_ui"><polygon fill="none" points="13.288,372.8,21.288,364.8,206.888,364.8,206.888,577.6,198.888,585.6,13.288,585.6,13.288,372.8" style="stroke:#000000;stroke-width:1.2000000000000002;"/><line style="stroke:#000000;stroke-width:1.2000000000000002;" x1="198.888" x2="206.888" y1="372.8" y2="364.8"/><line style="stroke:#000000;stroke-width:1.2000000000000002;" x1="13.288" x2="198.888" y1="372.8" y2="372.8"/><line style="stroke:#000000;stroke-width:1.2000000000000002;" x1="198.888" x2="198.888" y1="372.8" y2="585.6"/><text fill="#000000" font-family="sans-serif" font-size="11.2" font-weight="bold" lengthAdjust="spacing" textLength="9.9531" x="101.9114" y="388.0859">ui</text></g><!--cluster viewmodel--><g id="cluster_viewmodel"><polygon fill="#E0FFFF" points="32.488,410.4,40.488,402.4,187.688,402.4,187.688,558.4,179.688,566.4,32.488,566.4,32.488,410.4" style="stroke:#000000;stroke-width:1.2000000000000002;"/><line style="stroke:#000000;stroke-width:1.2000000000000002;" x1="179.688" x2="187.688" y1="410.4" y2="402.4"/><line style="stroke:#000000;stroke-width:1.2000000000000002;" x1="32.488" x2="179.688" y1="410.4" y2="410.4"/><line style="stroke:#000000;stroke-width:1.2000000000000002;" x1="179.688" x2="179.688" y1="410.4" y2="566.4"/><text fill="#000000" font-family="sans-serif" font-size="11.2" font-weight="bold" lengthAdjust="spacing" textLength="57.2633" x="78.2564" y="425.6859">viewmodel</text></g><!--class GameState--><g id="elem_GameState"><rect codeLine="18" fill="#90EE90" height="38.4" id="GameState" rx="2" ry="2" style="stroke:#000000;stroke-width:0.4000000000000001;" width="83.8508" x="298.888" y="111.2"/><ellipse cx="310.888" cy="124" fill="#ADD1B2" rx="8.8" ry="8.8" style="stroke:#181818;stroke-width:0.8000000000000002;"/><path d="M313.1005,120.7 Q313.2255,120.525 313.3755,120.4375 Q313.5255,120.35 313.7005,120.35 Q314.0005,120.35 314.188,120.5625 Q314.3755,120.7625 314.3755,121.25 L314.3755,122.4125 Q314.3755,122.9 314.188,123.1125 Q314.0005,123.325 313.7005,123.325 Q313.4255,123.325 313.263,123.1625 Q313.1005,123.0125 313.013,122.6 Q312.9755,122.3125 312.8255,122.1625 Q312.563,121.8625 312.0755,121.6875 Q311.588,121.5125 311.088,121.5125 Q310.4755,121.5125 309.963,121.775 Q309.463,122.0375 309.063,122.6375 Q308.6755,123.2375 308.6755,124.0625 L308.6755,124.9375 Q308.6755,125.925 309.388,126.5875 Q310.1005,127.2375 311.3755,127.2375 Q312.1255,127.2375 312.6505,127.0375 Q312.963,126.9125 313.3005,126.5625 Q313.513,126.35 313.6255,126.2875 Q313.7505,126.225 313.913,126.225 Q314.1755,126.225 314.3755,126.4375 Q314.588,126.6375 314.588,126.9125 Q314.588,127.1875 314.313,127.5125 Q313.913,127.975 313.2755,128.2375 Q312.413,128.6 311.3755,128.6 Q310.163,128.6 309.2005,128.1 Q308.413,127.7 307.863,126.85 Q307.313,125.9875 307.313,124.9625 L307.313,124.0375 Q307.313,122.975 307.8005,122.0625 Q308.3005,121.1375 309.1755,120.65 Q310.0505,120.15 311.038,120.15 Q311.6255,120.15 312.138,120.2875 Q312.663,120.4125 313.1005,120.7 Z " fill="#000000"/><text fill="#000000" font-family="sans-serif" font-size="11.2" lengthAdjust="spacing" textLength="56.6508" x="322.888" y="128.6375">GameState</text><line style="stroke:#000000;stroke-width:0.4000000000000001;" x1="299.688" x2="381.9388" y1="136.8" y2="136.8"/><line style="stroke:#000000;stroke-width:0.4000000000000001;" x1="299.688" x2="381.9388" y1="143.2" y2="143.2"/></g><!--class GameStatistics--><g id="elem_GameStatistics"><rect codeLine="19" fill="#90EE90" height="38.4" id="GameStatistics" rx="2" ry="2" style="stroke:#000000;stroke-width:0.4000000000000001;" width="102.5102" x="289.688" y="181.6"/><ellipse cx="301.688" cy="194.4" fill="#ADD1B2" rx="8.8" ry="8.8" style="stroke:#181818;stroke-width:0.8000000000000002;"/><path d="M303.9005,191.1 Q304.0255,190.925 304.1755,190.8375 Q304.3255,190.75 304.5005,190.75 Q304.8005,190.75 304.988,190.9625 Q305.1755,191.1625 305.1755,191.65 L305.1755,192.8125 Q305.1755,193.3 304.988,193.5125 Q304.8005,193.725 304.5005,193.725 Q304.2255,193.725 304.063,193.5625 Q303.9005,193.4125 303.813,193 Q303.7755,192.7125 303.6255,192.5625 Q303.363,192.2625 302.8755,192.0875 Q302.388,191.9125 301.888,191.9125 Q301.2755,191.9125 300.763,192.175 Q300.263,192.4375 299.863,193.0375 Q299.4755,193.6375 299.4755,194.4625 L299.4755,195.3375 Q299.4755,196.325 300.188,196.9875 Q300.9005,197.6375 302.1755,197.6375 Q302.9255,197.6375 303.4505,197.4375 Q303.763,197.3125 304.1005,196.9625 Q304.313,196.75 304.4255,196.6875 Q304.5505,196.625 304.713,196.625 Q304.9755,196.625 305.1755,196.8375 Q305.388,197.0375 305.388,197.3125 Q305.388,197.5875 305.113,197.9125 Q304.713,198.375 304.0755,198.6375 Q303.213,199 302.1755,199 Q300.963,199 300.0005,198.5 Q299.213,198.1 298.663,197.25 Q298.113,196.3875 298.113,195.3625 L298.113,194.4375 Q298.113,193.375 298.6005,192.4625 Q299.1005,191.5375 299.9755,191.05 Q300.8505,190.55 301.838,190.55 Q302.4255,190.55 302.938,190.6875 Q303.463,190.8125 303.9005,191.1 Z " fill="#000000"/><text fill="#000000" font-family="sans-serif" font-size="11.2" lengthAdjust="spacing" textLength="75.3102" x="313.688" y="199.0375">GameStatistics</text><line style="stroke:#000000;stroke-width:0.4000000000000001;" x1="290.488" x2="391.3982" y1="207.2" y2="207.2"/><line style="stroke:#000000;stroke-width:0.4000000000000001;" x1="290.488" x2="391.3982" y1="213.6" y2="213.6"/></g><!--class Detection--><g id="elem_Detection"><rect codeLine="22" fill="#90EE90" height="38.4" id="Detection" rx="2" ry="2" style="stroke:#000000;stroke-width:0.4000000000000001;" width="74.5156" x="455.288" y="111.2"/><ellipse cx="467.288" cy="124" fill="#ADD1B2" rx="8.8" ry="8.8" style="stroke:#181818;stroke-width:0.8000000000000002;"/><path d="M469.5005,120.7 Q469.6255,120.525 469.7755,120.4375 Q469.9255,120.35 470.1005,120.35 Q470.4005,120.35 470.588,120.5625 Q470.7755,120.7625 470.7755,121.25 L470.7755,122.4125 Q470.7755,122.9 470.588,123.1125 Q470.4005,123.325 470.1005,123.325 Q469.8255,123.325 469.663,123.1625 Q469.5005,123.0125 469.413,122.6 Q469.3755,122.3125 469.2255,122.1625 Q468.963,121.8625 468.4755,121.6875 Q467.988,121.5125 467.488,121.5125 Q466.8755,121.5125 466.363,121.775 Q465.863,122.0375 465.463,122.6375 Q465.0755,123.2375 465.0755,124.0625 L465.0755,124.9375 Q465.0755,125.925 465.788,126.5875 Q466.5005,127.2375 467.7755,127.2375 Q468.5255,127.2375 469.0505,127.0375 Q469.363,126.9125 469.7005,126.5625 Q469.913,126.35 470.0255,126.2875 Q470.1505,126.225 470.313,126.225 Q470.5755,126.225 470.7755,126.4375 Q470.988,126.6375 470.988,126.9125 Q470.988,127.1875 470.713,127.5125 Q470.313,127.975 469.6755,128.2375 Q468.813,128.6 467.7755,128.6 Q466.563,128.6 465.6005,128.1 Q464.813,127.7 464.263,126.85 Q463.713,125.9875 463.713,124.9625 L463.713,124.0375 Q463.713,122.975 464.2005,122.0625 Q464.7005,121.1375 465.5755,120.65 Q466.4505,120.15 467.438,120.15 Q468.0255,120.15 468.538,120.2875 Q469.063,120.4125 469.5005,120.7 Z " fill="#000000"/><text fill="#000000" font-family="sans-serif" font-size="11.2" lengthAdjust="spacing" textLength="47.3156" x="479.288" y="128.6375">Detection</text><line style="stroke:#000000;stroke-width:0.4000000000000001;" x1="456.088" x2="529.0036" y1="136.8" y2="136.8"/><line style="stroke:#000000;stroke-width:0.4000000000000001;" x1="456.088" x2="529.0036" y1="143.2" y2="143.2"/></g><!--class DetectionResponse--><g id="elem_DetectionResponse"><rect codeLine="23" fill="#90EE90" height="38.4" id="DetectionResponse" rx="2" ry="2" style="stroke:#000000;stroke-width:0.4000000000000001;" width="124.9484" x="430.088" y="152"/><ellipse cx="442.088" cy="164.8" fill="#ADD1B2" rx="8.8" ry="8.8" style="stroke:#181818;stroke-width:0.8000000000000002;"/><path d="M444.3005,161.5 Q444.4255,161.325 444.5755,161.2375 Q444.7255,161.15 444.9005,161.15 Q445.2005,161.15 445.388,161.3625 Q445.5755,161.5625 445.5755,162.05 L445.5755,163.2125 Q445.5755,163.7 445.388,163.9125 Q445.2005,164.125 444.9005,164.125 Q444.6255,164.125 444.463,163.9625 Q444.3005,163.8125 444.213,163.4 Q444.1755,163.1125 444.0255,162.9625 Q443.763,162.6625 443.2755,162.4875 Q442.788,162.3125 442.288,162.3125 Q441.6755,162.3125 441.163,162.575 Q440.663,162.8375 440.263,163.4375 Q439.8755,164.0375 439.8755,164.8625 L439.8755,165.7375 Q439.8755,166.725 440.588,167.3875 Q441.3005,168.0375 442.5755,168.0375 Q443.3255,168.0375 443.8505,167.8375 Q444.163,167.7125 444.5005,167.3625 Q444.713,167.15 444.8255,167.0875 Q444.9505,167.025 445.113,167.025 Q445.3755,167.025 445.5755,167.2375 Q445.788,167.4375 445.788,167.7125 Q445.788,167.9875 445.513,168.3125 Q445.113,168.775 444.4755,169.0375 Q443.613,169.4 442.5755,169.4 Q441.363,169.4 440.4005,168.9 Q439.613,168.5 439.063,167.65 Q438.513,166.7875 438.513,165.7625 L438.513,164.8375 Q438.513,163.775 439.0005,162.8625 Q439.5005,161.9375 440.3755,161.45 Q441.2505,160.95 442.238,160.95 Q442.8255,160.95 443.338,161.0875 Q443.863,161.2125 444.3005,161.5 Z " fill="#000000"/><text fill="#000000" font-family="sans-serif" font-size="11.2" lengthAdjust="spacing" textLength="97.7484" x="454.088" y="169.4375">DetectionResponse</text><line style="stroke:#000000;stroke-width:0.4000000000000001;" x1="430.888" x2="554.2364" y1="177.6" y2="177.6"/><line style="stroke:#000000;stroke-width:0.4000000000000001;" x1="430.888" x2="554.2364" y1="184" y2="184"/></g><!--class Prediction--><g id="elem_Prediction"><rect codeLine="24" fill="#90EE90" height="38.4" id="Prediction" rx="2" ry="2" style="stroke:#000000;stroke-width:0.4000000000000001;" width="77.0039" x="454.088" y="192.8"/><ellipse cx="466.088" cy="205.6" fill="#ADD1B2" rx="8.8" ry="8.8" style="stroke:#181818;stroke-width:0.8000000000000002;"/><path d="M468.3005,202.3 Q468.4255,202.125 468.5755,202.0375 Q468.7255,201.95 468.9005,201.95 Q469.2005,201.95 469.388,202.1625 Q469.5755,202.3625 469.5755,202.85 L469.5755,204.0125 Q469.5755,204.5 469.388,204.7125 Q469.2005,204.925 468.9005,204.925 Q468.6255,204.925 468.463,204.7625 Q468.3005,204.6125 468.213,204.2 Q468.1755,203.9125 468.0255,203.7625 Q467.763,203.4625 467.2755,203.2875 Q466.788,203.1125 466.288,203.1125 Q465.6755,203.1125 465.163,203.375 Q464.663,203.6375 464.263,204.2375 Q463.8755,204.8375 463.8755,205.6625 L463.8755,206.5375 Q463.8755,207.525 464.588,208.1875 Q465.3005,208.8375 466.5755,208.8375 Q467.3255,208.8375 467.8505,208.6375 Q468.163,208.5125 468.5005,208.1625 Q468.713,207.95 468.8255,207.8875 Q468.9505,207.825 469.113,207.825 Q469.3755,207.825 469.5755,208.0375 Q469.788,208.2375 469.788,208.5125 Q469.788,208.7875 469.513,209.1125 Q469.113,209.575 468.4755,209.8375 Q467.613,210.2 466.5755,210.2 Q465.363,210.2 464.4005,209.7 Q463.613,209.3 463.063,208.45 Q462.513,207.5875 462.513,206.5625 L462.513,205.6375 Q462.513,204.575 463.0005,203.6625 Q463.5005,202.7375 464.3755,202.25 Q465.2505,201.75 466.238,201.75 Q466.8255,201.75 467.338,201.8875 Q467.863,202.0125 468.3005,202.3 Z " fill="#000000"/><text fill="#000000" font-family="sans-serif" font-size="11.2" lengthAdjust="spacing" textLength="49.8039" x="478.088" y="210.2375">Prediction</text><line style="stroke:#000000;stroke-width:0.4000000000000001;" x1="454.888" x2="530.2919" y1="218.4" y2="218.4"/><line style="stroke:#000000;stroke-width:0.4000000000000001;" x1="454.888" x2="530.2919" y1="224.8" y2="224.8"/></g><!--class Achievement--><g id="elem_Achievement"><rect codeLine="28" fill="#90EE90" height="38.4" id="Achievement" rx="2" ry="2" style="stroke:#000000;stroke-width:0.4000000000000001;" width="91.9445" x="632.488" y="111.2"/><ellipse cx="644.488" cy="124" fill="#EB937F" rx="8.8" ry="8.8" style="stroke:#181818;stroke-width:0.8000000000000002;"/><path d="M643.5755,124.6375 L643.5755,126.6375 L647.038,126.6375 L647.038,125.9 Q647.038,125.4125 647.2255,125.2 Q647.4255,124.9875 647.7255,124.9875 Q648.0255,124.9875 648.213,125.2 Q648.4005,125.4125 648.4005,125.9 L648.4005,128 L642.0005,128 Q641.5005,128 641.288,127.8125 Q641.088,127.625 641.088,127.3125 Q641.088,127.0125 641.3005,126.825 Q641.513,126.6375 642.0005,126.6375 L642.213,126.6375 L642.213,121.3125 L642.0005,121.3125 Q641.5005,121.3125 641.288,121.125 Q641.088,120.9375 641.088,120.625 Q641.088,120.325 641.288,120.1375 Q641.5005,119.95 642.0005,119.95 L648.1005,119.95 L648.1005,122.025 Q648.1005,122.5125 647.913,122.725 Q647.738,122.925 647.4255,122.925 Q647.1255,122.925 646.938,122.725 Q646.7505,122.5125 646.7505,122.025 L646.7505,121.3125 L643.5755,121.3125 L643.5755,123.275 L644.763,123.275 Q644.763,122.75 644.863,122.6 Q645.0755,122.275 645.4505,122.275 Q645.7505,122.275 645.938,122.4875 Q646.1255,122.6875 646.1255,123.175 L646.1255,124.75 Q646.1255,125.1875 646.0255,125.3375 Q645.813,125.65 645.4505,125.65 Q645.0755,125.65 644.863,125.325 Q644.763,125.175 644.763,124.6375 L643.5755,124.6375 Z " fill="#000000"/><text fill="#000000" font-family="sans-serif" font-size="11.2" lengthAdjust="spacing" textLength="64.7445" x="656.488" y="128.6375">Achievement</text><line style="stroke:#000000;stroke-width:0.4000000000000001;" x1="633.288" x2="723.6325" y1="136.8" y2="136.8"/><line style="stroke:#000000;stroke-width:0.4000000000000001;" x1="633.288" x2="723.6325" y1="143.2" y2="143.2"/></g><!--class GameBoard--><g id="elem_GameBoard"><rect codeLine="29" fill="#90EE90" height="38.4" id="GameBoard" rx="2" ry="2" style="stroke:#000000;stroke-width:0.4000000000000001;" width="87.5859" x="634.888" y="152"/><ellipse cx="646.888" cy="164.8" fill="#EB937F" rx="8.8" ry="8.8" style="stroke:#181818;stroke-width:0.8000000000000002;"/><path d="M645.9755,165.4375 L645.9755,167.4375 L649.438,167.4375 L649.438,166.7 Q649.438,166.2125 649.6255,166 Q649.8255,165.7875 650.1255,165.7875 Q650.4255,165.7875 650.613,166 Q650.8005,166.2125 650.8005,166.7 L650.8005,168.8 L644.4005,168.8 Q643.9005,168.8 643.688,168.6125 Q643.488,168.425 643.488,168.1125 Q643.488,167.8125 643.7005,167.625 Q643.913,167.4375 644.4005,167.4375 L644.613,167.4375 L644.613,162.1125 L644.4005,162.1125 Q643.9005,162.1125 643.688,161.925 Q643.488,161.7375 643.488,161.425 Q643.488,161.125 643.688,160.9375 Q643.9005,160.75 644.4005,160.75 L650.5005,160.75 L650.5005,162.825 Q650.5005,163.3125 650.313,163.525 Q650.138,163.725 649.8255,163.725 Q649.5255,163.725 649.338,163.525 Q649.1505,163.3125 649.1505,162.825 L649.1505,162.1125 L645.9755,162.1125 L645.9755,164.075 L647.163,164.075 Q647.163,163.55 647.263,163.4 Q647.4755,163.075 647.8505,163.075 Q648.1505,163.075 648.338,163.2875 Q648.5255,163.4875 648.5255,163.975 L648.5255,165.55 Q648.5255,165.9875 648.4255,166.1375 Q648.213,166.45 647.8505,166.45 Q647.4755,166.45 647.263,166.125 Q647.163,165.975 647.163,165.4375 L645.9755,165.4375 Z " fill="#000000"/><text fill="#000000" font-family="sans-serif" font-size="11.2" lengthAdjust="spacing" textLength="60.3859" x="658.888" y="169.4375">GameBoard</text><line style="stroke:#000000;stroke-width:0.4000000000000001;" x1="635.688" x2="721.6739" y1="177.6" y2="177.6"/><line style="stroke:#000000;stroke-width:0.4000000000000001;" x1="635.688" x2="721.6739" y1="184" y2="184"/></g><!--class PlayStyle--><g id="elem_PlayStyle"><rect codeLine="30" fill="#90EE90" height="38.4" id="PlayStyle" rx="2" ry="2" style="stroke:#000000;stroke-width:0.4000000000000001;" width="73.8867" x="641.688" y="192.8"/><ellipse cx="653.688" cy="205.6" fill="#EB937F" rx="8.8" ry="8.8" style="stroke:#181818;stroke-width:0.8000000000000002;"/><path d="M652.7755,206.2375 L652.7755,208.2375 L656.238,208.2375 L656.238,207.5 Q656.238,207.0125 656.4255,206.8 Q656.6255,206.5875 656.9255,206.5875 Q657.2255,206.5875 657.413,206.8 Q657.6005,207.0125 657.6005,207.5 L657.6005,209.6 L651.2005,209.6 Q650.7005,209.6 650.488,209.4125 Q650.288,209.225 650.288,208.9125 Q650.288,208.6125 650.5005,208.425 Q650.713,208.2375 651.2005,208.2375 L651.413,208.2375 L651.413,202.9125 L651.2005,202.9125 Q650.7005,202.9125 650.488,202.725 Q650.288,202.5375 650.288,202.225 Q650.288,201.925 650.488,201.7375 Q650.7005,201.55 651.2005,201.55 L657.3005,201.55 L657.3005,203.625 Q657.3005,204.1125 657.113,204.325 Q656.938,204.525 656.6255,204.525 Q656.3255,204.525 656.138,204.325 Q655.9505,204.1125 655.9505,203.625 L655.9505,202.9125 L652.7755,202.9125 L652.7755,204.875 L653.963,204.875 Q653.963,204.35 654.063,204.2 Q654.2755,203.875 654.6505,203.875 Q654.9505,203.875 655.138,204.0875 Q655.3255,204.2875 655.3255,204.775 L655.3255,206.35 Q655.3255,206.7875 655.2255,206.9375 Q655.013,207.25 654.6505,207.25 Q654.2755,207.25 654.063,206.925 Q653.963,206.775 653.963,206.2375 L652.7755,206.2375 Z " fill="#000000"/><text fill="#000000" font-family="sans-serif" font-size="11.2" lengthAdjust="spacing" textLength="46.6867" x="665.688" y="210.2375">PlayStyle</text><line style="stroke:#000000;stroke-width:0.4000000000000001;" x1="642.488" x2="714.7747" y1="218.4" y2="218.4"/><line style="stroke:#000000;stroke-width:0.4000000000000001;" x1="642.488" x2="714.7747" y1="224.8" y2="224.8"/></g><!--class BaseGameManager--><g id="elem_BaseGameManager"><rect codeLine="36" fill="#90EE90" height="38.4" id="BaseGameManager" rx="2" ry="2" style="stroke:#000000;stroke-width:0.4000000000000001;" width="127.4313" x="277.288" y="598.4"/><ellipse cx="289.288" cy="611.2" fill="#A9DCDF" rx="8.8" ry="8.8" style="stroke:#181818;stroke-width:0.8000000000000002;"/><path d="M291.038,612.6125 L287.7255,612.6125 L287.388,613.4375 L287.7255,613.4375 Q288.213,613.4375 288.4255,613.625 Q288.638,613.8125 288.638,614.125 Q288.638,614.425 288.4255,614.6125 Q288.213,614.8 287.7255,614.8 L285.888,614.8 Q285.4005,614.8 285.2005,614.6125 Q284.988,614.425 284.988,614.1125 Q284.988,613.8125 285.213,613.625 Q285.4255,613.425 285.9255,613.4375 L288.063,608.1125 L287.1755,608.1125 Q286.688,608.1125 286.4755,607.925 Q286.263,607.7375 286.263,607.425 Q286.263,607.125 286.4755,606.9375 Q286.688,606.75 287.1755,606.75 L290.113,606.75 L292.8255,613.4375 Q293.3005,613.4375 293.4505,613.55 Q293.763,613.7625 293.763,614.125 Q293.763,614.425 293.5505,614.6125 Q293.3505,614.8 292.863,614.8 L291.0255,614.8 Q290.538,614.8 290.3255,614.6125 Q290.113,614.425 290.113,614.1125 Q290.113,613.8125 290.3255,613.625 Q290.538,613.4375 291.0255,613.4375 L291.363,613.4375 L291.038,612.6125 Z M290.463,611.25 L289.3755,608.55 L288.2755,611.25 L290.463,611.25 Z " fill="#000000"/><text fill="#000000" font-family="sans-serif" font-size="11.2" font-style="italic" lengthAdjust="spacing" textLength="100.2313" x="301.288" y="615.8375">BaseGameManager</text><line style="stroke:#000000;stroke-width:0.4000000000000001;" x1="278.088" x2="403.9193" y1="624" y2="624"/><line style="stroke:#000000;stroke-width:0.4000000000000001;" x1="278.088" x2="403.9193" y1="630.4" y2="630.4"/></g><!--class DiceManager--><g id="elem_DiceManager"><rect codeLine="37" fill="#90EE90" height="38.4" id="DiceManager" rx="2" ry="2" style="stroke:#000000;stroke-width:0.4000000000000001;" width="93.8094" x="294.088" y="639.2"/><ellipse cx="306.088" cy="652" fill="#ADD1B2" rx="8.8" ry="8.8" style="stroke:#181818;stroke-width:0.8000000000000002;"/><path d="M308.3005,648.7 Q308.4255,648.525 308.5755,648.4375 Q308.7255,648.35 308.9005,648.35 Q309.2005,648.35 309.388,648.5625 Q309.5755,648.7625 309.5755,649.25 L309.5755,650.4125 Q309.5755,650.9 309.388,651.1125 Q309.2005,651.325 308.9005,651.325 Q308.6255,651.325 308.463,651.1625 Q308.3005,651.0125 308.213,650.6 Q308.1755,650.3125 308.0255,650.1625 Q307.763,649.8625 307.2755,649.6875 Q306.788,649.5125 306.288,649.5125 Q305.6755,649.5125 305.163,649.775 Q304.663,650.0375 304.263,650.6375 Q303.8755,651.2375 303.8755,652.0625 L303.8755,652.9375 Q303.8755,653.925 304.588,654.5875 Q305.3005,655.2375 306.5755,655.2375 Q307.3255,655.2375 307.8505,655.0375 Q308.163,654.9125 308.5005,654.5625 Q308.713,654.35 308.8255,654.2875 Q308.9505,654.225 309.113,654.225 Q309.3755,654.225 309.5755,654.4375 Q309.788,654.6375 309.788,654.9125 Q309.788,655.1875 309.513,655.5125 Q309.113,655.975 308.4755,656.2375 Q307.613,656.6 306.5755,656.6 Q305.363,656.6 304.4005,656.1 Q303.613,655.7 303.063,654.85 Q302.513,653.9875 302.513,652.9625 L302.513,652.0375 Q302.513,650.975 303.0005,650.0625 Q303.5005,649.1375 304.3755,648.65 Q305.2505,648.15 306.238,648.15 Q306.8255,648.15 307.338,648.2875 Q307.863,648.4125 308.3005,648.7 Z " fill="#000000"/><text fill="#000000" font-family="sans-serif" font-size="11.2" lengthAdjust="spacing" textLength="66.6094" x="318.088" y="656.6375">DiceManager</text><line style="stroke:#000000;stroke-width:0.4000000000000001;" x1="294.888" x2="387.0974" y1="664.8" y2="664.8"/><line style="stroke:#000000;stroke-width:0.4000000000000001;" x1="294.888" x2="387.0974" y1="671.2" y2="671.2"/></g><!--class StatisticsManager--><g id="elem_StatisticsManager"><rect codeLine="38" fill="#90EE90" height="38.4" id="StatisticsManager" rx="2" ry="2" style="stroke:#000000;stroke-width:0.4000000000000001;" width="116.2148" x="282.888" y="680"/><ellipse cx="294.888" cy="692.8" fill="#ADD1B2" rx="8.8" ry="8.8" style="stroke:#181818;stroke-width:0.8000000000000002;"/><path d="M297.1005,689.5 Q297.2255,689.325 297.3755,689.2375 Q297.5255,689.15 297.7005,689.15 Q298.0005,689.15 298.188,689.3625 Q298.3755,689.5625 298.3755,690.05 L298.3755,691.2125 Q298.3755,691.7 298.188,691.9125 Q298.0005,692.125 297.7005,692.125 Q297.4255,692.125 297.263,691.9625 Q297.1005,691.8125 297.013,691.4 Q296.9755,691.1125 296.8255,690.9625 Q296.563,690.6625 296.0755,690.4875 Q295.588,690.3125 295.088,690.3125 Q294.4755,690.3125 293.963,690.575 Q293.463,690.8375 293.063,691.4375 Q292.6755,692.0375 292.6755,692.8625 L292.6755,693.7375 Q292.6755,694.725 293.388,695.3875 Q294.1005,696.0375 295.3755,696.0375 Q296.1255,696.0375 296.6505,695.8375 Q296.963,695.7125 297.3005,695.3625 Q297.513,695.15 297.6255,695.0875 Q297.7505,695.025 297.913,695.025 Q298.1755,695.025 298.3755,695.2375 Q298.588,695.4375 298.588,695.7125 Q298.588,695.9875 298.313,696.3125 Q297.913,696.775 297.2755,697.0375 Q296.413,697.4 295.3755,697.4 Q294.163,697.4 293.2005,696.9 Q292.413,696.5 291.863,695.65 Q291.313,694.7875 291.313,693.7625 L291.313,692.8375 Q291.313,691.775 291.8005,690.8625 Q292.3005,689.9375 293.1755,689.45 Q294.0505,688.95 295.038,688.95 Q295.6255,688.95 296.138,689.0875 Q296.663,689.2125 297.1005,689.5 Z " fill="#000000"/><text fill="#000000" font-family="sans-serif" font-size="11.2" lengthAdjust="spacing" textLength="89.0148" x="306.888" y="697.4375">StatisticsManager</text><line style="stroke:#000000;stroke-width:0.4000000000000001;" x1="283.688" x2="398.3028" y1="705.6" y2="705.6"/><line style="stroke:#000000;stroke-width:0.4000000000000001;" x1="283.688" x2="398.3028" y1="712" y2="712"/></g><!--class PigGameManager--><g id="elem_PigGameManager"><rect codeLine="41" fill="#90EE90" height="38.4" id="PigGameManager" rx="2" ry="2" style="stroke:#000000;stroke-width:0.4000000000000001;" width="118.0906" x="433.288" y="534.4"/><ellipse cx="445.288" cy="547.2" fill="#ADD1B2" rx="8.8" ry="8.8" style="stroke:#181818;stroke-width:0.8000000000000002;"/><path d="M447.5005,543.9 Q447.6255,543.725 447.7755,543.6375 Q447.9255,543.55 448.1005,543.55 Q448.4005,543.55 448.588,543.7625 Q448.7755,543.9625 448.7755,544.45 L448.7755,545.6125 Q448.7755,546.1 448.588,546.3125 Q448.4005,546.525 448.1005,546.525 Q447.8255,546.525 447.663,546.3625 Q447.5005,546.2125 447.413,545.8 Q447.3755,545.5125 447.2255,545.3625 Q446.963,545.0625 446.4755,544.8875 Q445.988,544.7125 445.488,544.7125 Q444.8755,544.7125 444.363,544.975 Q443.863,545.2375 443.463,545.8375 Q443.0755,546.4375 443.0755,547.2625 L443.0755,548.1375 Q443.0755,549.125 443.788,549.7875 Q444.5005,550.4375 445.7755,550.4375 Q446.5255,550.4375 447.0505,550.2375 Q447.363,550.1125 447.7005,549.7625 Q447.913,549.55 448.0255,549.4875 Q448.1505,549.425 448.313,549.425 Q448.5755,549.425 448.7755,549.6375 Q448.988,549.8375 448.988,550.1125 Q448.988,550.3875 448.713,550.7125 Q448.313,551.175 447.6755,551.4375 Q446.813,551.8 445.7755,551.8 Q444.563,551.8 443.6005,551.3 Q442.813,550.9 442.263,550.05 Q441.713,549.1875 441.713,548.1625 L441.713,547.2375 Q441.713,546.175 442.2005,545.2625 Q442.7005,544.3375 443.5755,543.85 Q444.4505,543.35 445.438,543.35 Q446.0255,543.35 446.538,543.4875 Q447.063,543.6125 447.5005,543.9 Z " fill="#000000"/><text fill="#000000" font-family="sans-serif" font-size="11.2" lengthAdjust="spacing" textLength="90.8906" x="457.288" y="551.8375">PigGameManager</text><line style="stroke:#000000;stroke-width:0.4000000000000001;" x1="434.088" x2="550.5786" y1="560" y2="560"/><line style="stroke:#000000;stroke-width:0.4000000000000001;" x1="434.088" x2="550.5786" y1="566.4" y2="566.4"/></g><!--class BaseGameManager--><g id="elem_BaseGameManager"><rect fill="#90EE90" height="38.4" id="BaseGameManager" rx="2" ry="2" style="stroke:#000000;stroke-width:0.4000000000000001;" width="127.4313" x="277.288" y="493.6"/><ellipse cx="289.288" cy="506.4" fill="#ADD1B2" rx="8.8" ry="8.8" style="stroke:#181818;stroke-width:0.8000000000000002;"/><path d="M291.5005,503.1 Q291.6255,502.925 291.7755,502.8375 Q291.9255,502.75 292.1005,502.75 Q292.4005,502.75 292.588,502.9625 Q292.7755,503.1625 292.7755,503.65 L292.7755,504.8125 Q292.7755,505.3 292.588,505.5125 Q292.4005,505.725 292.1005,505.725 Q291.8255,505.725 291.663,505.5625 Q291.5005,505.4125 291.413,505 Q291.3755,504.7125 291.2255,504.5625 Q290.963,504.2625 290.4755,504.0875 Q289.988,503.9125 289.488,503.9125 Q288.8755,503.9125 288.363,504.175 Q287.863,504.4375 287.463,505.0375 Q287.0755,505.6375 287.0755,506.4625 L287.0755,507.3375 Q287.0755,508.325 287.788,508.9875 Q288.5005,509.6375 289.7755,509.6375 Q290.5255,509.6375 291.0505,509.4375 Q291.363,509.3125 291.7005,508.9625 Q291.913,508.75 292.0255,508.6875 Q292.1505,508.625 292.313,508.625 Q292.5755,508.625 292.7755,508.8375 Q292.988,509.0375 292.988,509.3125 Q292.988,509.5875 292.713,509.9125 Q292.313,510.375 291.6755,510.6375 Q290.813,511 289.7755,511 Q288.563,511 287.6005,510.5 Q286.813,510.1 286.263,509.25 Q285.713,508.3875 285.713,507.3625 L285.713,506.4375 Q285.713,505.375 286.2005,504.4625 Q286.7005,503.5375 287.5755,503.05 Q288.4505,502.55 289.438,502.55 Q290.0255,502.55 290.538,502.6875 Q291.063,502.8125 291.5005,503.1 Z " fill="#000000"/><text fill="#000000" font-family="sans-serif" font-size="11.2" lengthAdjust="spacing" textLength="100.2313" x="301.288" y="511.0375">BaseGameManager</text><line style="stroke:#000000;stroke-width:0.4000000000000001;" x1="278.088" x2="403.9193" y1="519.2" y2="519.2"/><line style="stroke:#000000;stroke-width:0.4000000000000001;" x1="278.088" x2="403.9193" y1="525.6" y2="525.6"/></g><!--class GreedGameManager--><g id="elem_GreedGameManager"><rect codeLine="42" fill="#90EE90" height="38.4" id="GreedGameManager" rx="2" ry="2" style="stroke:#000000;stroke-width:0.4000000000000001;" width="133.0313" x="426.088" y="493.6"/><ellipse cx="438.088" cy="506.4" fill="#ADD1B2" rx="8.8" ry="8.8" style="stroke:#181818;stroke-width:0.8000000000000002;"/><path d="M440.3005,503.1 Q440.4255,502.925 440.5755,502.8375 Q440.7255,502.75 440.9005,502.75 Q441.2005,502.75 441.388,502.9625 Q441.5755,503.1625 441.5755,503.65 L441.5755,504.8125 Q441.5755,505.3 441.388,505.5125 Q441.2005,505.725 440.9005,505.725 Q440.6255,505.725 440.463,505.5625 Q440.3005,505.4125 440.213,505 Q440.1755,504.7125 440.0255,504.5625 Q439.763,504.2625 439.2755,504.0875 Q438.788,503.9125 438.288,503.9125 Q437.6755,503.9125 437.163,504.175 Q436.663,504.4375 436.263,505.0375 Q435.8755,505.6375 435.8755,506.4625 L435.8755,507.3375 Q435.8755,508.325 436.588,508.9875 Q437.3005,509.6375 438.5755,509.6375 Q439.3255,509.6375 439.8505,509.4375 Q440.163,509.3125 440.5005,508.9625 Q440.713,508.75 440.8255,508.6875 Q440.9505,508.625 441.113,508.625 Q441.3755,508.625 441.5755,508.8375 Q441.788,509.0375 441.788,509.3125 Q441.788,509.5875 441.513,509.9125 Q441.113,510.375 440.4755,510.6375 Q439.613,511 438.5755,511 Q437.363,511 436.4005,510.5 Q435.613,510.1 435.063,509.25 Q434.513,508.3875 434.513,507.3625 L434.513,506.4375 Q434.513,505.375 435.0005,504.4625 Q435.5005,503.5375 436.3755,503.05 Q437.2505,502.55 438.238,502.55 Q438.8255,502.55 439.338,502.6875 Q439.863,502.8125 440.3005,503.1 Z " fill="#000000"/><text fill="#000000" font-family="sans-serif" font-size="11.2" lengthAdjust="spacing" textLength="105.8313" x="450.088" y="511.0375">GreedGameManager</text><line style="stroke:#000000;stroke-width:0.4000000000000001;" x1="426.888" x2="558.3193" y1="519.2" y2="519.2"/><line style="stroke:#000000;stroke-width:0.4000000000000001;" x1="426.888" x2="558.3193" y1="525.6" y2="525.6"/></g><!--class BalutGameManager--><g id="elem_BalutGameManager"><rect codeLine="43" fill="#90EE90" height="38.4" id="BalutGameManager" rx="2" ry="2" style="stroke:#000000;stroke-width:0.4000000000000001;" width="127.4313" x="428.888" y="452.8"/><ellipse cx="440.888" cy="465.6" fill="#ADD1B2" rx="8.8" ry="8.8" style="stroke:#181818;stroke-width:0.8000000000000002;"/><path d="M443.1005,462.3 Q443.2255,462.125 443.3755,462.0375 Q443.5255,461.95 443.7005,461.95 Q444.0005,461.95 444.188,462.1625 Q444.3755,462.3625 444.3755,462.85 L444.3755,464.0125 Q444.3755,464.5 444.188,464.7125 Q444.0005,464.925 443.7005,464.925 Q443.4255,464.925 443.263,464.7625 Q443.1005,464.6125 443.013,464.2 Q442.9755,463.9125 442.8255,463.7625 Q442.563,463.4625 442.0755,463.2875 Q441.588,463.1125 441.088,463.1125 Q440.4755,463.1125 439.963,463.375 Q439.463,463.6375 439.063,464.2375 Q438.6755,464.8375 438.6755,465.6625 L438.6755,466.5375 Q438.6755,467.525 439.388,468.1875 Q440.1005,468.8375 441.3755,468.8375 Q442.1255,468.8375 442.6505,468.6375 Q442.963,468.5125 443.3005,468.1625 Q443.513,467.95 443.6255,467.8875 Q443.7505,467.825 443.913,467.825 Q444.1755,467.825 444.3755,468.0375 Q444.588,468.2375 444.588,468.5125 Q444.588,468.7875 444.313,469.1125 Q443.913,469.575 443.2755,469.8375 Q442.413,470.2 441.3755,470.2 Q440.163,470.2 439.2005,469.7 Q438.413,469.3 437.863,468.45 Q437.313,467.5875 437.313,466.5625 L437.313,465.6375 Q437.313,464.575 437.8005,463.6625 Q438.3005,462.7375 439.1755,462.25 Q440.0505,461.75 441.038,461.75 Q441.6255,461.75 442.138,461.8875 Q442.663,462.0125 443.1005,462.3 Z " fill="#000000"/><text fill="#000000" font-family="sans-serif" font-size="11.2" lengthAdjust="spacing" textLength="100.2313" x="452.888" y="470.2375">BalutGameManager</text><line style="stroke:#000000;stroke-width:0.4000000000000001;" x1="429.688" x2="555.5193" y1="478.4" y2="478.4"/><line style="stroke:#000000;stroke-width:0.4000000000000001;" x1="429.688" x2="555.5193" y1="484.8" y2="484.8"/></g><!--class RoboflowRepository--><g id="elem_RoboflowRepository"><rect codeLine="49" fill="#90EE90" height="38.4" id="RoboflowRepository" rx="2" ry="2" style="stroke:#000000;stroke-width:0.4000000000000001;" width="127.4258" x="277.288" y="313.6"/><ellipse cx="289.288" cy="326.4" fill="#B4A7E5" rx="8.8" ry="8.8" style="stroke:#181818;stroke-width:0.8000000000000002;"/><path d="M290.0505,323.7125 L290.0505,329.0375 L291.4255,329.0375 Q291.913,329.0375 292.1255,329.225 Q292.338,329.4125 292.338,329.725 Q292.338,330.025 292.1255,330.2125 Q291.913,330.4 291.4255,330.4 L287.313,330.4 Q286.8255,330.4 286.613,330.2125 Q286.4005,330.025 286.4005,329.7125 Q286.4005,329.4125 286.613,329.225 Q286.8255,329.0375 287.313,329.0375 L288.688,329.0375 L288.688,323.7125 L287.313,323.7125 Q286.8255,323.7125 286.613,323.525 Q286.4005,323.3375 286.4005,323.025 Q286.4005,322.725 286.613,322.5375 Q286.8255,322.35 287.313,322.35 L291.4255,322.35 Q291.913,322.35 292.1255,322.5375 Q292.338,322.725 292.338,323.025 Q292.338,323.3375 292.1255,323.525 Q291.913,323.7125 291.4255,323.7125 L290.0505,323.7125 Z " fill="#000000"/><text fill="#000000" font-family="sans-serif" font-size="11.2" font-style="italic" lengthAdjust="spacing" textLength="100.2258" x="301.288" y="331.0375">RoboflowRepository</text><line style="stroke:#000000;stroke-width:0.4000000000000001;" x1="278.088" x2="403.9138" y1="339.2" y2="339.2"/><line style="stroke:#000000;stroke-width:0.4000000000000001;" x1="278.088" x2="403.9138" y1="345.6" y2="345.6"/></g><!--class RoboflowRepositoryImpl--><g id="elem_RoboflowRepositoryImpl"><rect codeLine="50" fill="#90EE90" height="38.4" id="RoboflowRepositoryImpl" rx="2" ry="2" style="stroke:#000000;stroke-width:0.4000000000000001;" width="148.5844" x="418.088" y="313.6"/><ellipse cx="430.088" cy="326.4" fill="#ADD1B2" rx="8.8" ry="8.8" style="stroke:#181818;stroke-width:0.8000000000000002;"/><path d="M432.3005,323.1 Q432.4255,322.925 432.5755,322.8375 Q432.7255,322.75 432.9005,322.75 Q433.2005,322.75 433.388,322.9625 Q433.5755,323.1625 433.5755,323.65 L433.5755,324.8125 Q433.5755,325.3 433.388,325.5125 Q433.2005,325.725 432.9005,325.725 Q432.6255,325.725 432.463,325.5625 Q432.3005,325.4125 432.213,325 Q432.1755,324.7125 432.0255,324.5625 Q431.763,324.2625 431.2755,324.0875 Q430.788,323.9125 430.288,323.9125 Q429.6755,323.9125 429.163,324.175 Q428.663,324.4375 428.263,325.0375 Q427.8755,325.6375 427.8755,326.4625 L427.8755,327.3375 Q427.8755,328.325 428.588,328.9875 Q429.3005,329.6375 430.5755,329.6375 Q431.3255,329.6375 431.8505,329.4375 Q432.163,329.3125 432.5005,328.9625 Q432.713,328.75 432.8255,328.6875 Q432.9505,328.625 433.113,328.625 Q433.3755,328.625 433.5755,328.8375 Q433.788,329.0375 433.788,329.3125 Q433.788,329.5875 433.513,329.9125 Q433.113,330.375 432.4755,330.6375 Q431.613,331 430.5755,331 Q429.363,331 428.4005,330.5 Q427.613,330.1 427.063,329.25 Q426.513,328.3875 426.513,327.3625 L426.513,326.4375 Q426.513,325.375 427.0005,324.4625 Q427.5005,323.5375 428.3755,323.05 Q429.2505,322.55 430.238,322.55 Q430.8255,322.55 431.338,322.6875 Q431.863,322.8125 432.3005,323.1 Z " fill="#000000"/><text fill="#000000" font-family="sans-serif" font-size="11.2" lengthAdjust="spacing" textLength="121.3844" x="442.088" y="331.0375">RoboflowRepositoryImpl</text><line style="stroke:#000000;stroke-width:0.4000000000000001;" x1="418.888" x2="565.8724" y1="339.2" y2="339.2"/><line style="stroke:#000000;stroke-width:0.4000000000000001;" x1="418.888" x2="565.8724" y1="345.6" y2="345.6"/></g><!--class RoboflowService--><g id="elem_RoboflowService"><rect codeLine="54" fill="#90EE90" height="38.4" id="RoboflowService" rx="2" ry="2" style="stroke:#000000;stroke-width:0.4000000000000001;" width="111.2383" x="622.888" y="313.6"/><ellipse cx="634.888" cy="326.4" fill="#B4A7E5" rx="8.8" ry="8.8" style="stroke:#181818;stroke-width:0.8000000000000002;"/><path d="M635.6505,323.7125 L635.6505,329.0375 L637.0255,329.0375 Q637.513,329.0375 637.7255,329.225 Q637.938,329.4125 637.938,329.725 Q637.938,330.025 637.7255,330.2125 Q637.513,330.4 637.0255,330.4 L632.913,330.4 Q632.4255,330.4 632.213,330.2125 Q632.0005,330.025 632.0005,329.7125 Q632.0005,329.4125 632.213,329.225 Q632.4255,329.0375 632.913,329.0375 L634.288,329.0375 L634.288,323.7125 L632.913,323.7125 Q632.4255,323.7125 632.213,323.525 Q632.0005,323.3375 632.0005,323.025 Q632.0005,322.725 632.213,322.5375 Q632.4255,322.35 632.913,322.35 L637.0255,322.35 Q637.513,322.35 637.7255,322.5375 Q637.938,322.725 637.938,323.025 Q637.938,323.3375 637.7255,323.525 Q637.513,323.7125 637.0255,323.7125 L635.6505,323.7125 Z " fill="#000000"/><text fill="#000000" font-family="sans-serif" font-size="11.2" font-style="italic" lengthAdjust="spacing" textLength="84.0383" x="646.888" y="331.0375">RoboflowService</text><line style="stroke:#000000;stroke-width:0.4000000000000001;" x1="623.688" x2="733.3263" y1="339.2" y2="339.2"/><line style="stroke:#000000;stroke-width:0.4000000000000001;" x1="623.688" x2="733.3263" y1="345.6" y2="345.6"/></g><!--class GameViewModel--><g id="elem_GameViewModel"><rect codeLine="59" fill="#90EE90" height="38.4" id="GameViewModel" rx="2" ry="2" style="stroke:#000000;stroke-width:0.4000000000000001;" width="112.4797" x="53.688" y="474.4"/><ellipse cx="65.688" cy="487.2" fill="#ADD1B2" rx="8.8" ry="8.8" style="stroke:#181818;stroke-width:0.8000000000000002;"/><path d="M67.9005,483.9 Q68.0255,483.725 68.1755,483.6375 Q68.3255,483.55 68.5005,483.55 Q68.8005,483.55 68.988,483.7625 Q69.1755,483.9625 69.1755,484.45 L69.1755,485.6125 Q69.1755,486.1 68.988,486.3125 Q68.8005,486.525 68.5005,486.525 Q68.2255,486.525 68.063,486.3625 Q67.9005,486.2125 67.813,485.8 Q67.7755,485.5125 67.6255,485.3625 Q67.363,485.0625 66.8755,484.8875 Q66.388,484.7125 65.888,484.7125 Q65.2755,484.7125 64.763,484.975 Q64.263,485.2375 63.863,485.8375 Q63.4755,486.4375 63.4755,487.2625 L63.4755,488.1375 Q63.4755,489.125 64.188,489.7875 Q64.9005,490.4375 66.1755,490.4375 Q66.9255,490.4375 67.4505,490.2375 Q67.763,490.1125 68.1005,489.7625 Q68.313,489.55 68.4255,489.4875 Q68.5505,489.425 68.713,489.425 Q68.9755,489.425 69.1755,489.6375 Q69.388,489.8375 69.388,490.1125 Q69.388,490.3875 69.113,490.7125 Q68.713,491.175 68.0755,491.4375 Q67.213,491.8 66.1755,491.8 Q64.963,491.8 64.0005,491.3 Q63.213,490.9 62.663,490.05 Q62.113,489.1875 62.113,488.1625 L62.113,487.2375 Q62.113,486.175 62.6005,485.2625 Q63.1005,484.3375 63.9755,483.85 Q64.8505,483.35 65.838,483.35 Q66.4255,483.35 66.938,483.4875 Q67.463,483.6125 67.9005,483.9 Z " fill="#000000"/><text fill="#000000" font-family="sans-serif" font-size="11.2" lengthAdjust="spacing" textLength="85.2797" x="77.688" y="491.8375">GameViewModel</text><line style="stroke:#000000;stroke-width:0.4000000000000001;" x1="54.488" x2="165.3677" y1="500" y2="500"/><line style="stroke:#000000;stroke-width:0.4000000000000001;" x1="54.488" x2="165.3677" y1="506.4" y2="506.4"/></g><!--class DetectionViewModel--><g id="elem_DetectionViewModel"><rect codeLine="60" fill="#90EE90" height="38.4" id="DetectionViewModel" rx="2" ry="2" style="stroke:#000000;stroke-width:0.4000000000000001;" width="129.2961" x="45.288" y="433.6"/><ellipse cx="57.288" cy="446.4" fill="#ADD1B2" rx="8.8" ry="8.8" style="stroke:#181818;stroke-width:0.8000000000000002;"/><path d="M59.5005,443.1 Q59.6255,442.925 59.7755,442.8375 Q59.9255,442.75 60.1005,442.75 Q60.4005,442.75 60.588,442.9625 Q60.7755,443.1625 60.7755,443.65 L60.7755,444.8125 Q60.7755,445.3 60.588,445.5125 Q60.4005,445.725 60.1005,445.725 Q59.8255,445.725 59.663,445.5625 Q59.5005,445.4125 59.413,445 Q59.3755,444.7125 59.2255,444.5625 Q58.963,444.2625 58.4755,444.0875 Q57.988,443.9125 57.488,443.9125 Q56.8755,443.9125 56.363,444.175 Q55.863,444.4375 55.463,445.0375 Q55.0755,445.6375 55.0755,446.4625 L55.0755,447.3375 Q55.0755,448.325 55.788,448.9875 Q56.5005,449.6375 57.7755,449.6375 Q58.5255,449.6375 59.0505,449.4375 Q59.363,449.3125 59.7005,448.9625 Q59.913,448.75 60.0255,448.6875 Q60.1505,448.625 60.313,448.625 Q60.5755,448.625 60.7755,448.8375 Q60.988,449.0375 60.988,449.3125 Q60.988,449.5875 60.713,449.9125 Q60.313,450.375 59.6755,450.6375 Q58.813,451 57.7755,451 Q56.563,451 55.6005,450.5 Q54.813,450.1 54.263,449.25 Q53.713,448.3875 53.713,447.3625 L53.713,446.4375 Q53.713,445.375 54.2005,444.4625 Q54.7005,443.5375 55.5755,443.05 Q56.4505,442.55 57.438,442.55 Q58.0255,442.55 58.538,442.6875 Q59.063,442.8125 59.5005,443.1 Z " fill="#000000"/><text fill="#000000" font-family="sans-serif" font-size="11.2" lengthAdjust="spacing" textLength="102.0961" x="69.288" y="451.0375">DetectionViewModel</text><line style="stroke:#000000;stroke-width:0.4000000000000001;" x1="46.088" x2="173.7841" y1="459.2" y2="459.2"/><line style="stroke:#000000;stroke-width:0.4000000000000001;" x1="46.088" x2="173.7841" y1="465.6" y2="465.6"/></g><!--class DetectionState--><g id="elem_DetectionState"><rect codeLine="61" fill="#90EE90" height="38.4" id="DetectionState" rx="2" ry="2" style="stroke:#000000;stroke-width:0.4000000000000001;" width="100.6672" x="59.688" y="515.2"/><ellipse cx="71.688" cy="528" fill="#ADD1B2" rx="8.8" ry="8.8" style="stroke:#181818;stroke-width:0.8000000000000002;"/><path d="M73.9005,524.7 Q74.0255,524.525 74.1755,524.4375 Q74.3255,524.35 74.5005,524.35 Q74.8005,524.35 74.988,524.5625 Q75.1755,524.7625 75.1755,525.25 L75.1755,526.4125 Q75.1755,526.9 74.988,527.1125 Q74.8005,527.325 74.5005,527.325 Q74.2255,527.325 74.063,527.1625 Q73.9005,527.0125 73.813,526.6 Q73.7755,526.3125 73.6255,526.1625 Q73.363,525.8625 72.8755,525.6875 Q72.388,525.5125 71.888,525.5125 Q71.2755,525.5125 70.763,525.775 Q70.263,526.0375 69.863,526.6375 Q69.4755,527.2375 69.4755,528.0625 L69.4755,528.9375 Q69.4755,529.925 70.188,530.5875 Q70.9005,531.2375 72.1755,531.2375 Q72.9255,531.2375 73.4505,531.0375 Q73.763,530.9125 74.1005,530.5625 Q74.313,530.35 74.4255,530.2875 Q74.5505,530.225 74.713,530.225 Q74.9755,530.225 75.1755,530.4375 Q75.388,530.6375 75.388,530.9125 Q75.388,531.1875 75.113,531.5125 Q74.713,531.975 74.0755,532.2375 Q73.213,532.6 72.1755,532.6 Q70.963,532.6 70.0005,532.1 Q69.213,531.7 68.663,530.85 Q68.113,529.9875 68.113,528.9625 L68.113,528.0375 Q68.113,526.975 68.6005,526.0625 Q69.1005,525.1375 69.9755,524.65 Q70.8505,524.15 71.838,524.15 Q72.4255,524.15 72.938,524.2875 Q73.463,524.4125 73.9005,524.7 Z " fill="#000000"/><text fill="#000000" font-family="sans-serif" font-size="11.2" lengthAdjust="spacing" textLength="73.4672" x="83.688" y="532.6375">DetectionState</text><line style="stroke:#000000;stroke-width:0.4000000000000001;" x1="60.488" x2="159.5552" y1="540.8" y2="540.8"/><line style="stroke:#000000;stroke-width:0.4000000000000001;" x1="60.488" x2="159.5552" y1="547.2" y2="547.2"/></g><!--class BaseGameManager--><g id="elem_BaseGameManager"><rect fill="#90EE90" height="38.4" id="BaseGameManager" rx="2" ry="2" style="stroke:#000000;stroke-width:0.4000000000000001;" width="127.4313" x="46.488" y="313.6"/><ellipse cx="58.488" cy="326.4" fill="#ADD1B2" rx="8.8" ry="8.8" style="stroke:#181818;stroke-width:0.8000000000000002;"/><path d="M60.7005,323.1 Q60.8255,322.925 60.9755,322.8375 Q61.1255,322.75 61.3005,322.75 Q61.6005,322.75 61.788,322.9625 Q61.9755,323.1625 61.9755,323.65 L61.9755,324.8125 Q61.9755,325.3 61.788,325.5125 Q61.6005,325.725 61.3005,325.725 Q61.0255,325.725 60.863,325.5625 Q60.7005,325.4125 60.613,325 Q60.5755,324.7125 60.4255,324.5625 Q60.163,324.2625 59.6755,324.0875 Q59.188,323.9125 58.688,323.9125 Q58.0755,323.9125 57.563,324.175 Q57.063,324.4375 56.663,325.0375 Q56.2755,325.6375 56.2755,326.4625 L56.2755,327.3375 Q56.2755,328.325 56.988,328.9875 Q57.7005,329.6375 58.9755,329.6375 Q59.7255,329.6375 60.2505,329.4375 Q60.563,329.3125 60.9005,328.9625 Q61.113,328.75 61.2255,328.6875 Q61.3505,328.625 61.513,328.625 Q61.7755,328.625 61.9755,328.8375 Q62.188,329.0375 62.188,329.3125 Q62.188,329.5875 61.913,329.9125 Q61.513,330.375 60.8755,330.6375 Q60.013,331 58.9755,331 Q57.763,331 56.8005,330.5 Q56.013,330.1 55.463,329.25 Q54.913,328.3875 54.913,327.3625 L54.913,326.4375 Q54.913,325.375 55.4005,324.4625 Q55.9005,323.5375 56.7755,323.05 Q57.6505,322.55 58.638,322.55 Q59.2255,322.55 59.738,322.6875 Q60.263,322.8125 60.7005,323.1 Z " fill="#000000"/><text fill="#000000" font-family="sans-serif" font-size="11.2" lengthAdjust="spacing" textLength="100.2313" x="70.488" y="331.0375">BaseGameManager</text><line style="stroke:#000000;stroke-width:0.4000000000000001;" x1="47.288" x2="173.1193" y1="339.2" y2="339.2"/><line style="stroke:#000000;stroke-width:0.4000000000000001;" x1="47.288" x2="173.1193" y1="345.6" y2="345.6"/></g><!--reverse link BaseGameManager to PigGameManager--><g id="link_BaseGameManager_PigGameManager"><path d="M418.5455,533.699 C428.0095,536.267 423.832,535.144 433.192,537.688 " fill="none" id="BaseGameManager-backto-PigGameManager" style="stroke:#000000;stroke-width:0.8000000000000002;"/><polygon fill="none" points="404.648,529.928,417.2885,538.3315,419.8025,529.0665,404.648,529.928" style="stroke:#000000;stroke-width:0.8000000000000002;"/></g><!--reverse link BaseGameManager to GreedGameManager--><g id="link_BaseGameManager_GreedGameManager"><path d="M419.048,512.8 C426.104,512.8 418.904,512.8 425.992,512.8 " fill="none" id="BaseGameManager-backto-GreedGameManager" style="stroke:#000000;stroke-width:0.8000000000000002;"/><polygon fill="none" points="404.648,512.8,419.048,517.6,419.048,508,404.648,512.8" style="stroke:#000000;stroke-width:0.8000000000000002;"/></g><!--reverse link BaseGameManager to BalutGameManager--><g id="link_BaseGameManager_BalutGameManager"><path d="M418.5451,491.8995 C426.5611,489.7235 420.872,491.264 428.888,489.08 " fill="none" id="BaseGameManager-backto-BalutGameManager" style="stroke:#000000;stroke-width:0.8000000000000002;"/><polygon fill="none" points="404.648,495.672,419.8026,496.5319,417.2876,487.2672,404.648,495.672" style="stroke:#000000;stroke-width:0.8000000000000002;"/></g><!--reverse link RoboflowRepository to RoboflowRepositoryImpl--><g id="link_RoboflowRepository_RoboflowRepositoryImpl"><path d="M419.048,332.8 C423.456,332.8 413.528,332.8 417.984,332.8 " fill="none" id="RoboflowRepository-backto-RoboflowRepositoryImpl" style="stroke:#000000;stroke-width:0.8000000000000002;stroke-dasharray:7.0,7.0;"/><polygon fill="none" points="404.648,332.8,419.048,337.6,419.048,328,404.648,332.8" style="stroke:#000000;stroke-width:0.8000000000000002;"/></g><!--link GameState to Detection--><!--link Detection to Achievement--><!--link BaseGameManager to RoboflowRepository--><!--link RoboflowRepository to GameViewModel--><!--link GameViewModel to BaseGameManager--><g id="link_GameViewModel_BaseGameManager"><path codeLine="71" d="M53.456,497.648 C33.152,495.64 13.368,488.544 5.688,470 C4.8,467.864 4.8,430.536 5.688,428.4 C19.464,395.136 47.6629,371.2916 72.6869,354.7076 " fill="none" id="GameViewModel-to-BaseGameManager" style="stroke:#000000;stroke-width:0.8000000000000002;"/><polygon fill="#000000" points="76.688,352.056,68.9186,353.366,73.3537,354.2657,72.4541,358.7008,76.688,352.056" style="stroke:#000000;stroke-width:0.8000000000000002;"/></g><!--link GameViewModel to DiceManager--><g id="link_GameViewModel_DiceManager"><path codeLine="72" d="M166.56,493.136 C184.024,495.944 201.736,502.408 213.288,516 C230.584,536.352 202.08,615.928 219.688,636 C237.776,656.616 263.4086,662.0679 289.1446,662.4759 " fill="none" id="GameViewModel-to-DiceManager" style="stroke:#000000;stroke-width:0.8000000000000002;"/><polygon fill="#000000" points="293.944,662.552,286.7956,659.2383,289.9445,662.4886,286.6942,665.6375,293.944,662.552" style="stroke:#000000;stroke-width:0.8000000000000002;"/></g><!--link GameViewModel to StatisticsManager--><g id="link_GameViewModel_StatisticsManager"><path codeLine="73" d="M166.664,493.048 C184.144,495.848 201.832,502.336 213.288,516 C224.776,529.704 207.984,663.28 219.688,676.8 C235.128,694.648 255.0296,700.863 278.0456,702.599 " fill="none" id="GameViewModel-to-StatisticsManager" style="stroke:#000000;stroke-width:0.8000000000000002;"/><polygon fill="#000000" points="282.832,702.96,275.8931,699.2275,278.8433,702.6592,275.4117,705.6094,282.832,702.96" style="stroke:#000000;stroke-width:0.8000000000000002;"/></g><!--link DetectionViewModel to RoboflowRepository--><g id="link_DetectionViewModel_RoboflowRepository"><path codeLine="74" d="M147.712,433.52 C190.488,411.128 256.3718,376.6348 299.0998,354.2588 " fill="none" id="DetectionViewModel-to-RoboflowRepository" style="stroke:#000000;stroke-width:0.8000000000000002;"/><polygon fill="#000000" points="303.352,352.032,295.4891,352.5374,299.8085,353.8877,298.4582,358.207,303.352,352.032" style="stroke:#000000;stroke-width:0.8000000000000002;"/></g><!--link RoboflowRepositoryImpl to RoboflowService--><g id="link_RoboflowRepositoryImpl_RoboflowService"><path codeLine="75" d="M566.96,332.8 C585.624,332.8 600.536,332.8 618.08,332.8 " fill="none" id="RoboflowRepositoryImpl-to-RoboflowService" style="stroke:#000000;stroke-width:0.8000000000000002;"/><polygon fill="#000000" points="622.88,332.8,615.68,329.6,618.88,332.8,615.68,336,622.88,332.8" style="stroke:#000000;stroke-width:0.8000000000000002;"/></g><!--SRC=[bLHDQzj04BthLmpf8IU7bjuBaKFIGWF6WK8fFKoqOtdnQbVChkoQal_UqKgsLnyjhWy-l3SVRzxEw1OU7HS4U-AW2pHWyEYQa1dQ10WEM9VR04ep5K4xc_cTjZKoLb1ZiSEINiBH45YdAE5Mg9Is9NmOO6q7NQCD9_fzGYzTLJjBysHRtbCD7nECqUx6M67GU_YTWVnoqLUoQwnQEkCOlhQJF36HxMZ7YhYZSYEn4RrdTeSKVCkoMz761C-YmVYi7njk50Qygo9u0-_wwdZiktTAdh0IWp3G3AQzsE4Z4VykXIbqPj_qjIwv3oVgR_YQlBZeQSIlc9I-9BxDT2NRL3xjs09mNsmrxQcITnaIxHIvGrP3U2Nh4pUYxnFjQsFX6QtqYOL65aQ2Jnv-9sFSeTU1hpum5g4V8qTFRR6k5YUcFkXY1htOd7B3kKkfvwTEhtIPT0Bw5SYgUGN9qyfsgVzFoz4quTgqtjFpYyCByLwc7sycK-sy3ewF9sTpqr0_fxQ1U8DozsltwZPY-FeSdlWt9RzKjG4jV_4bvo9QUKCblXDubOn-c6x6RveEuwjhzDrUu7XtfuhB8zh9sPsJivap-IVP7MnKy5ahHHQCbazD-pNSp7uhprSEYn_RcF5pyIcvrSjRfNnwMgE77iJDM3o51Xd3yMMCDObO9eEj2B_LjSy6CR2GhF6oJIFI8vkoqsERsXq3hneeBbeQVTgCFm00]--></g></svg>