<svg xmlns="http://www.w3.org/2000/svg" xmlns:xlink="http://www.w3.org/1999/xlink" contentStyleType="text/css" height="640px" preserveAspectRatio="none" style="width:819px;height:640px;background:#FFFFFF;" version="1.1" viewBox="0 0 819 640" width="819px" zoomAndPan="magnify"><defs/><g><!--cluster game--><g id="cluster_game"><polygon fill="#FFFFE0" points="234,16,244,6,631.5,6,631.5,201,621.5,211,234,211,234,16" style="stroke:#000000;stroke-width:1.5;"/><line style="stroke:#000000;stroke-width:1.5;" x1="621.5" x2="631.5" y1="16" y2="6"/><line style="stroke:#000000;stroke-width:1.5;" x1="234" x2="621.5" y1="16" y2="16"/><line style="stroke:#000000;stroke-width:1.5;" x1="621.5" x2="621.5" y1="16" y2="211"/><text fill="#000000" font-family="sans-serif" font-size="14" font-weight="bold" lengthAdjust="spacing" textLength="36.5723" x="410.4639" y="35.1074">game</text></g><!--cluster models--><g id="cluster_models"><polygon fill="#D3D3D3" points="33,377,43,367,423.5,367,423.5,613,413.5,623,33,623,33,377" style="stroke:#000000;stroke-width:1.5;"/><line style="stroke:#000000;stroke-width:1.5;" x1="413.5" x2="423.5" y1="377" y2="367"/><line style="stroke:#000000;stroke-width:1.5;" x1="33" x2="413.5" y1="377" y2="377"/><line style="stroke:#000000;stroke-width:1.5;" x1="413.5" x2="413.5" y1="377" y2="623"/><text fill="#000000" font-family="sans-serif" font-size="14" font-weight="bold" lengthAdjust="spacing" textLength="49.0137" x="199.7432" y="396.1074">models</text></g><!--cluster data--><g id="cluster_data"><polygon fill="#ADD8E6" points="234,245,244,235,802.5,235,802.5,333,792.5,343,234,343,234,245" style="stroke:#000000;stroke-width:1.5;"/><line style="stroke:#000000;stroke-width:1.5;" x1="792.5" x2="802.5" y1="245" y2="235"/><line style="stroke:#000000;stroke-width:1.5;" x1="234" x2="792.5" y1="245" y2="245"/><line style="stroke:#000000;stroke-width:1.5;" x1="792.5" x2="792.5" y1="245" y2="343"/><text fill="#000000" font-family="sans-serif" font-size="14" font-weight="bold" lengthAdjust="spacing" textLength="28.7861" x="499.8569" y="264.1074">data</text></g><!--cluster viewmodel--><g id="cluster_viewmodel"><polygon fill="#E0FFFF" points="16,93,26,83,210,83,210,278,200,288,16,288,16,93" style="stroke:#000000;stroke-width:1.5;"/><line style="stroke:#000000;stroke-width:1.5;" x1="200" x2="210" y1="93" y2="83"/><line style="stroke:#000000;stroke-width:1.5;" x1="16" x2="200" y1="93" y2="93"/><line style="stroke:#000000;stroke-width:1.5;" x1="200" x2="200" y1="93" y2="288"/><text fill="#000000" font-family="sans-serif" font-size="14" font-weight="bold" lengthAdjust="spacing" textLength="71.5791" x="73.2104" y="112.1074">viewmodel</text></g><!--class BaseGameManager--><g id="elem_BaseGameManager"><rect codeLine="18" fill="#90EE90" height="48" id="BaseGameManager" rx="2.5" ry="2.5" style="stroke:#000000;stroke-width:0.5;" width="159.2891" x="250" y="45"/><ellipse cx="265" cy="61" fill="#A9DCDF" rx="11" ry="11" style="stroke:#181818;stroke-width:1.0;"/><path d="M267.1875,62.7656 L263.0469,62.7656 L262.625,63.7969 L263.0469,63.7969 Q263.6563,63.7969 263.9219,64.0313 Q264.1875,64.2656 264.1875,64.6563 Q264.1875,65.0313 263.9219,65.2656 Q263.6563,65.5 263.0469,65.5 L260.75,65.5 Q260.1406,65.5 259.8906,65.2656 Q259.625,65.0313 259.625,64.6406 Q259.625,64.2656 259.9063,64.0313 Q260.1719,63.7813 260.7969,63.7969 L263.4688,57.1406 L262.3594,57.1406 Q261.75,57.1406 261.4844,56.9063 Q261.2188,56.6719 261.2188,56.2813 Q261.2188,55.9063 261.4844,55.6719 Q261.75,55.4375 262.3594,55.4375 L266.0313,55.4375 L269.4219,63.7969 Q270.0156,63.7969 270.2031,63.9375 Q270.5938,64.2031 270.5938,64.6563 Q270.5938,65.0313 270.3281,65.2656 Q270.0781,65.5 269.4688,65.5 L267.1719,65.5 Q266.5625,65.5 266.2969,65.2656 Q266.0313,65.0313 266.0313,64.6406 Q266.0313,64.2656 266.2969,64.0313 Q266.5625,63.7969 267.1719,63.7969 L267.5938,63.7969 L267.1875,62.7656 Z M266.4688,61.0625 L265.1094,57.6875 L263.7344,61.0625 L266.4688,61.0625 Z " fill="#000000"/><text fill="#000000" font-family="sans-serif" font-size="14" font-style="italic" lengthAdjust="spacing" textLength="125.2891" x="280" y="66.7969">BaseGameManager</text><line style="stroke:#000000;stroke-width:0.5;" x1="251" x2="408.2891" y1="77" y2="77"/><line style="stroke:#000000;stroke-width:0.5;" x1="251" x2="408.2891" y1="85" y2="85"/></g><!--class DiceManager--><g id="elem_DiceManager"><rect codeLine="19" fill="#90EE90" height="48" id="DiceManager" rx="2.5" ry="2.5" style="stroke:#000000;stroke-width:0.5;" width="117.2617" x="271" y="96"/><ellipse cx="286" cy="112" fill="#ADD1B2" rx="11" ry="11" style="stroke:#181818;stroke-width:1.0;"/><path d="M288.7656,107.875 Q288.9219,107.6563 289.1094,107.5469 Q289.2969,107.4375 289.5156,107.4375 Q289.8906,107.4375 290.125,107.7031 Q290.3594,107.9531 290.3594,108.5625 L290.3594,110.0156 Q290.3594,110.625 290.125,110.8906 Q289.8906,111.1563 289.5156,111.1563 Q289.1719,111.1563 288.9688,110.9531 Q288.7656,110.7656 288.6563,110.25 Q288.6094,109.8906 288.4219,109.7031 Q288.0938,109.3281 287.4844,109.1094 Q286.875,108.8906 286.25,108.8906 Q285.4844,108.8906 284.8438,109.2188 Q284.2188,109.5469 283.7188,110.2969 Q283.2344,111.0469 283.2344,112.0781 L283.2344,113.1719 Q283.2344,114.4063 284.125,115.2344 Q285.0156,116.0469 286.6094,116.0469 Q287.5469,116.0469 288.2031,115.7969 Q288.5938,115.6406 289.0156,115.2031 Q289.2813,114.9375 289.4219,114.8594 Q289.5781,114.7813 289.7813,114.7813 Q290.1094,114.7813 290.3594,115.0469 Q290.625,115.2969 290.625,115.6406 Q290.625,115.9844 290.2813,116.3906 Q289.7813,116.9688 288.9844,117.2969 Q287.9063,117.75 286.6094,117.75 Q285.0938,117.75 283.8906,117.125 Q282.9063,116.625 282.2188,115.5625 Q281.5313,114.4844 281.5313,113.2031 L281.5313,112.0469 Q281.5313,110.7188 282.1406,109.5781 Q282.7656,108.4219 283.8594,107.8125 Q284.9531,107.1875 286.1875,107.1875 Q286.9219,107.1875 287.5625,107.3594 Q288.2188,107.5156 288.7656,107.875 Z " fill="#000000"/><text fill="#000000" font-family="sans-serif" font-size="14" lengthAdjust="spacing" textLength="83.2617" x="301" y="117.7969">DiceManager</text><line style="stroke:#000000;stroke-width:0.5;" x1="272" x2="387.2617" y1="128" y2="128"/><line style="stroke:#000000;stroke-width:0.5;" x1="272" x2="387.2617" y1="136" y2="136"/></g><!--class StatisticsManager--><g id="elem_StatisticsManager"><rect codeLine="20" fill="#90EE90" height="48" id="StatisticsManager" rx="2.5" ry="2.5" style="stroke:#000000;stroke-width:0.5;" width="145.2686" x="257" y="147"/><ellipse cx="272" cy="163" fill="#ADD1B2" rx="11" ry="11" style="stroke:#181818;stroke-width:1.0;"/><path d="M274.7656,158.875 Q274.9219,158.6563 275.1094,158.5469 Q275.2969,158.4375 275.5156,158.4375 Q275.8906,158.4375 276.125,158.7031 Q276.3594,158.9531 276.3594,159.5625 L276.3594,161.0156 Q276.3594,161.625 276.125,161.8906 Q275.8906,162.1563 275.5156,162.1563 Q275.1719,162.1563 274.9688,161.9531 Q274.7656,161.7656 274.6563,161.25 Q274.6094,160.8906 274.4219,160.7031 Q274.0938,160.3281 273.4844,160.1094 Q272.875,159.8906 272.25,159.8906 Q271.4844,159.8906 270.8438,160.2188 Q270.2188,160.5469 269.7188,161.2969 Q269.2344,162.0469 269.2344,163.0781 L269.2344,164.1719 Q269.2344,165.4063 270.125,166.2344 Q271.0156,167.0469 272.6094,167.0469 Q273.5469,167.0469 274.2031,166.7969 Q274.5938,166.6406 275.0156,166.2031 Q275.2813,165.9375 275.4219,165.8594 Q275.5781,165.7813 275.7813,165.7813 Q276.1094,165.7813 276.3594,166.0469 Q276.625,166.2969 276.625,166.6406 Q276.625,166.9844 276.2813,167.3906 Q275.7813,167.9688 274.9844,168.2969 Q273.9063,168.75 272.6094,168.75 Q271.0938,168.75 269.8906,168.125 Q268.9063,167.625 268.2188,166.5625 Q267.5313,165.4844 267.5313,164.2031 L267.5313,163.0469 Q267.5313,161.7188 268.1406,160.5781 Q268.7656,159.4219 269.8594,158.8125 Q270.9531,158.1875 272.1875,158.1875 Q272.9219,158.1875 273.5625,158.3594 Q274.2188,158.5156 274.7656,158.875 Z " fill="#000000"/><text fill="#000000" font-family="sans-serif" font-size="14" lengthAdjust="spacing" textLength="111.2686" x="287" y="168.7969">StatisticsManager</text><line style="stroke:#000000;stroke-width:0.5;" x1="258" x2="401.2686" y1="179" y2="179"/><line style="stroke:#000000;stroke-width:0.5;" x1="258" x2="401.2686" y1="187" y2="187"/></g><!--class PigGameManager--><g id="elem_PigGameManager"><rect codeLine="22" fill="#90EE90" height="48" id="PigGameManager" rx="2.5" ry="2.5" style="stroke:#000000;stroke-width:0.5;" width="147.6133" x="458.5" y="147"/><ellipse cx="473.5" cy="163" fill="#ADD1B2" rx="11" ry="11" style="stroke:#181818;stroke-width:1.0;"/><path d="M476.2656,158.875 Q476.4219,158.6563 476.6094,158.5469 Q476.7969,158.4375 477.0156,158.4375 Q477.3906,158.4375 477.625,158.7031 Q477.8594,158.9531 477.8594,159.5625 L477.8594,161.0156 Q477.8594,161.625 477.625,161.8906 Q477.3906,162.1563 477.0156,162.1563 Q476.6719,162.1563 476.4688,161.9531 Q476.2656,161.7656 476.1563,161.25 Q476.1094,160.8906 475.9219,160.7031 Q475.5938,160.3281 474.9844,160.1094 Q474.375,159.8906 473.75,159.8906 Q472.9844,159.8906 472.3438,160.2188 Q471.7188,160.5469 471.2188,161.2969 Q470.7344,162.0469 470.7344,163.0781 L470.7344,164.1719 Q470.7344,165.4063 471.625,166.2344 Q472.5156,167.0469 474.1094,167.0469 Q475.0469,167.0469 475.7031,166.7969 Q476.0938,166.6406 476.5156,166.2031 Q476.7813,165.9375 476.9219,165.8594 Q477.0781,165.7813 477.2813,165.7813 Q477.6094,165.7813 477.8594,166.0469 Q478.125,166.2969 478.125,166.6406 Q478.125,166.9844 477.7813,167.3906 Q477.2813,167.9688 476.4844,168.2969 Q475.4063,168.75 474.1094,168.75 Q472.5938,168.75 471.3906,168.125 Q470.4063,167.625 469.7188,166.5625 Q469.0313,165.4844 469.0313,164.2031 L469.0313,163.0469 Q469.0313,161.7188 469.6406,160.5781 Q470.2656,159.4219 471.3594,158.8125 Q472.4531,158.1875 473.6875,158.1875 Q474.4219,158.1875 475.0625,158.3594 Q475.7188,158.5156 476.2656,158.875 Z " fill="#000000"/><text fill="#000000" font-family="sans-serif" font-size="14" lengthAdjust="spacing" textLength="113.6133" x="488.5" y="168.7969">PigGameManager</text><line style="stroke:#000000;stroke-width:0.5;" x1="459.5" x2="605.1133" y1="179" y2="179"/><line style="stroke:#000000;stroke-width:0.5;" x1="459.5" x2="605.1133" y1="187" y2="187"/></g><!--class GreedGameManager--><g id="elem_GreedGameManager"><rect codeLine="23" fill="#90EE90" height="48" id="GreedGameManager" rx="2.5" ry="2.5" style="stroke:#000000;stroke-width:0.5;" width="166.2891" x="449.5" y="96"/><ellipse cx="464.5" cy="112" fill="#ADD1B2" rx="11" ry="11" style="stroke:#181818;stroke-width:1.0;"/><path d="M467.2656,107.875 Q467.4219,107.6563 467.6094,107.5469 Q467.7969,107.4375 468.0156,107.4375 Q468.3906,107.4375 468.625,107.7031 Q468.8594,107.9531 468.8594,108.5625 L468.8594,110.0156 Q468.8594,110.625 468.625,110.8906 Q468.3906,111.1563 468.0156,111.1563 Q467.6719,111.1563 467.4688,110.9531 Q467.2656,110.7656 467.1563,110.25 Q467.1094,109.8906 466.9219,109.7031 Q466.5938,109.3281 465.9844,109.1094 Q465.375,108.8906 464.75,108.8906 Q463.9844,108.8906 463.3438,109.2188 Q462.7188,109.5469 462.2188,110.2969 Q461.7344,111.0469 461.7344,112.0781 L461.7344,113.1719 Q461.7344,114.4063 462.625,115.2344 Q463.5156,116.0469 465.1094,116.0469 Q466.0469,116.0469 466.7031,115.7969 Q467.0938,115.6406 467.5156,115.2031 Q467.7813,114.9375 467.9219,114.8594 Q468.0781,114.7813 468.2813,114.7813 Q468.6094,114.7813 468.8594,115.0469 Q469.125,115.2969 469.125,115.6406 Q469.125,115.9844 468.7813,116.3906 Q468.2813,116.9688 467.4844,117.2969 Q466.4063,117.75 465.1094,117.75 Q463.5938,117.75 462.3906,117.125 Q461.4063,116.625 460.7188,115.5625 Q460.0313,114.4844 460.0313,113.2031 L460.0313,112.0469 Q460.0313,110.7188 460.6406,109.5781 Q461.2656,108.4219 462.3594,107.8125 Q463.4531,107.1875 464.6875,107.1875 Q465.4219,107.1875 466.0625,107.3594 Q466.7188,107.5156 467.2656,107.875 Z " fill="#000000"/><text fill="#000000" font-family="sans-serif" font-size="14" lengthAdjust="spacing" textLength="132.2891" x="479.5" y="117.7969">GreedGameManager</text><line style="stroke:#000000;stroke-width:0.5;" x1="450.5" x2="614.7891" y1="128" y2="128"/><line style="stroke:#000000;stroke-width:0.5;" x1="450.5" x2="614.7891" y1="136" y2="136"/></g><!--class BalutGameManager--><g id="elem_BalutGameManager"><rect codeLine="24" fill="#90EE90" height="48" id="BalutGameManager" rx="2.5" ry="2.5" style="stroke:#000000;stroke-width:0.5;" width="159.2891" x="453" y="45"/><ellipse cx="468" cy="61" fill="#ADD1B2" rx="11" ry="11" style="stroke:#181818;stroke-width:1.0;"/><path d="M470.7656,56.875 Q470.9219,56.6563 471.1094,56.5469 Q471.2969,56.4375 471.5156,56.4375 Q471.8906,56.4375 472.125,56.7031 Q472.3594,56.9531 472.3594,57.5625 L472.3594,59.0156 Q472.3594,59.625 472.125,59.8906 Q471.8906,60.1563 471.5156,60.1563 Q471.1719,60.1563 470.9688,59.9531 Q470.7656,59.7656 470.6563,59.25 Q470.6094,58.8906 470.4219,58.7031 Q470.0938,58.3281 469.4844,58.1094 Q468.875,57.8906 468.25,57.8906 Q467.4844,57.8906 466.8438,58.2188 Q466.2188,58.5469 465.7188,59.2969 Q465.2344,60.0469 465.2344,61.0781 L465.2344,62.1719 Q465.2344,63.4063 466.125,64.2344 Q467.0156,65.0469 468.6094,65.0469 Q469.5469,65.0469 470.2031,64.7969 Q470.5938,64.6406 471.0156,64.2031 Q471.2813,63.9375 471.4219,63.8594 Q471.5781,63.7813 471.7813,63.7813 Q472.1094,63.7813 472.3594,64.0469 Q472.625,64.2969 472.625,64.6406 Q472.625,64.9844 472.2813,65.3906 Q471.7813,65.9688 470.9844,66.2969 Q469.9063,66.75 468.6094,66.75 Q467.0938,66.75 465.8906,66.125 Q464.9063,65.625 464.2188,64.5625 Q463.5313,63.4844 463.5313,62.2031 L463.5313,61.0469 Q463.5313,59.7188 464.1406,58.5781 Q464.7656,57.4219 465.8594,56.8125 Q466.9531,56.1875 468.1875,56.1875 Q468.9219,56.1875 469.5625,56.3594 Q470.2188,56.5156 470.7656,56.875 Z " fill="#000000"/><text fill="#000000" font-family="sans-serif" font-size="14" lengthAdjust="spacing" textLength="125.2891" x="483" y="66.7969">BalutGameManager</text><line style="stroke:#000000;stroke-width:0.5;" x1="454" x2="611.2891" y1="77" y2="77"/><line style="stroke:#000000;stroke-width:0.5;" x1="454" x2="611.2891" y1="85" y2="85"/></g><!--class GameState--><g id="elem_GameState"><rect codeLine="29" fill="#90EE90" height="48" id="GameState" rx="2.5" ry="2.5" style="stroke:#000000;stroke-width:0.5;" width="104.8135" x="60.5" y="508"/><ellipse cx="75.5" cy="524" fill="#ADD1B2" rx="11" ry="11" style="stroke:#181818;stroke-width:1.0;"/><path d="M78.2656,519.875 Q78.4219,519.6563 78.6094,519.5469 Q78.7969,519.4375 79.0156,519.4375 Q79.3906,519.4375 79.625,519.7031 Q79.8594,519.9531 79.8594,520.5625 L79.8594,522.0156 Q79.8594,522.625 79.625,522.8906 Q79.3906,523.1563 79.0156,523.1563 Q78.6719,523.1563 78.4688,522.9531 Q78.2656,522.7656 78.1563,522.25 Q78.1094,521.8906 77.9219,521.7031 Q77.5938,521.3281 76.9844,521.1094 Q76.375,520.8906 75.75,520.8906 Q74.9844,520.8906 74.3438,521.2188 Q73.7188,521.5469 73.2188,522.2969 Q72.7344,523.0469 72.7344,524.0781 L72.7344,525.1719 Q72.7344,526.4063 73.625,527.2344 Q74.5156,528.0469 76.1094,528.0469 Q77.0469,528.0469 77.7031,527.7969 Q78.0938,527.6406 78.5156,527.2031 Q78.7813,526.9375 78.9219,526.8594 Q79.0781,526.7813 79.2813,526.7813 Q79.6094,526.7813 79.8594,527.0469 Q80.125,527.2969 80.125,527.6406 Q80.125,527.9844 79.7813,528.3906 Q79.2813,528.9688 78.4844,529.2969 Q77.4063,529.75 76.1094,529.75 Q74.5938,529.75 73.3906,529.125 Q72.4063,528.625 71.7188,527.5625 Q71.0313,526.4844 71.0313,525.2031 L71.0313,524.0469 Q71.0313,522.7188 71.6406,521.5781 Q72.2656,520.4219 73.3594,519.8125 Q74.4531,519.1875 75.6875,519.1875 Q76.4219,519.1875 77.0625,519.3594 Q77.7188,519.5156 78.2656,519.875 Z " fill="#000000"/><text fill="#000000" font-family="sans-serif" font-size="14" lengthAdjust="spacing" textLength="70.8135" x="90.5" y="529.7969">GameState</text><line style="stroke:#000000;stroke-width:0.5;" x1="61.5" x2="164.3135" y1="540" y2="540"/><line style="stroke:#000000;stroke-width:0.5;" x1="61.5" x2="164.3135" y1="548" y2="548"/></g><!--class GameStatistics--><g id="elem_GameStatistics"><rect codeLine="30" fill="#90EE90" height="48" id="GameStatistics" rx="2.5" ry="2.5" style="stroke:#000000;stroke-width:0.5;" width="128.1377" x="49" y="457"/><ellipse cx="64" cy="473" fill="#ADD1B2" rx="11" ry="11" style="stroke:#181818;stroke-width:1.0;"/><path d="M66.7656,468.875 Q66.9219,468.6563 67.1094,468.5469 Q67.2969,468.4375 67.5156,468.4375 Q67.8906,468.4375 68.125,468.7031 Q68.3594,468.9531 68.3594,469.5625 L68.3594,471.0156 Q68.3594,471.625 68.125,471.8906 Q67.8906,472.1563 67.5156,472.1563 Q67.1719,472.1563 66.9688,471.9531 Q66.7656,471.7656 66.6563,471.25 Q66.6094,470.8906 66.4219,470.7031 Q66.0938,470.3281 65.4844,470.1094 Q64.875,469.8906 64.25,469.8906 Q63.4844,469.8906 62.8438,470.2188 Q62.2188,470.5469 61.7188,471.2969 Q61.2344,472.0469 61.2344,473.0781 L61.2344,474.1719 Q61.2344,475.4063 62.125,476.2344 Q63.0156,477.0469 64.6094,477.0469 Q65.5469,477.0469 66.2031,476.7969 Q66.5938,476.6406 67.0156,476.2031 Q67.2813,475.9375 67.4219,475.8594 Q67.5781,475.7813 67.7813,475.7813 Q68.1094,475.7813 68.3594,476.0469 Q68.625,476.2969 68.625,476.6406 Q68.625,476.9844 68.2813,477.3906 Q67.7813,477.9688 66.9844,478.2969 Q65.9063,478.75 64.6094,478.75 Q63.0938,478.75 61.8906,478.125 Q60.9063,477.625 60.2188,476.5625 Q59.5313,475.4844 59.5313,474.2031 L59.5313,473.0469 Q59.5313,471.7188 60.1406,470.5781 Q60.7656,469.4219 61.8594,468.8125 Q62.9531,468.1875 64.1875,468.1875 Q64.9219,468.1875 65.5625,468.3594 Q66.2188,468.5156 66.7656,468.875 Z " fill="#000000"/><text fill="#000000" font-family="sans-serif" font-size="14" lengthAdjust="spacing" textLength="94.1377" x="79" y="478.7969">GameStatistics</text><line style="stroke:#000000;stroke-width:0.5;" x1="50" x2="176.1377" y1="489" y2="489"/><line style="stroke:#000000;stroke-width:0.5;" x1="50" x2="176.1377" y1="497" y2="497"/></g><!--class Detection--><g id="elem_Detection"><rect codeLine="31" fill="#90EE90" height="48" id="Detection" rx="2.5" ry="2.5" style="stroke:#000000;stroke-width:0.5;" width="93.1445" x="66.5" y="559"/><ellipse cx="81.5" cy="575" fill="#ADD1B2" rx="11" ry="11" style="stroke:#181818;stroke-width:1.0;"/><path d="M84.2656,570.875 Q84.4219,570.6563 84.6094,570.5469 Q84.7969,570.4375 85.0156,570.4375 Q85.3906,570.4375 85.625,570.7031 Q85.8594,570.9531 85.8594,571.5625 L85.8594,573.0156 Q85.8594,573.625 85.625,573.8906 Q85.3906,574.1563 85.0156,574.1563 Q84.6719,574.1563 84.4688,573.9531 Q84.2656,573.7656 84.1563,573.25 Q84.1094,572.8906 83.9219,572.7031 Q83.5938,572.3281 82.9844,572.1094 Q82.375,571.8906 81.75,571.8906 Q80.9844,571.8906 80.3438,572.2188 Q79.7188,572.5469 79.2188,573.2969 Q78.7344,574.0469 78.7344,575.0781 L78.7344,576.1719 Q78.7344,577.4063 79.625,578.2344 Q80.5156,579.0469 82.1094,579.0469 Q83.0469,579.0469 83.7031,578.7969 Q84.0938,578.6406 84.5156,578.2031 Q84.7813,577.9375 84.9219,577.8594 Q85.0781,577.7813 85.2813,577.7813 Q85.6094,577.7813 85.8594,578.0469 Q86.125,578.2969 86.125,578.6406 Q86.125,578.9844 85.7813,579.3906 Q85.2813,579.9688 84.4844,580.2969 Q83.4063,580.75 82.1094,580.75 Q80.5938,580.75 79.3906,580.125 Q78.4063,579.625 77.7188,578.5625 Q77.0313,577.4844 77.0313,576.2031 L77.0313,575.0469 Q77.0313,573.7188 77.6406,572.5781 Q78.2656,571.4219 79.3594,570.8125 Q80.4531,570.1875 81.6875,570.1875 Q82.4219,570.1875 83.0625,570.3594 Q83.7188,570.5156 84.2656,570.875 Z " fill="#000000"/><text fill="#000000" font-family="sans-serif" font-size="14" lengthAdjust="spacing" textLength="59.1445" x="96.5" y="580.7969">Detection</text><line style="stroke:#000000;stroke-width:0.5;" x1="67.5" x2="158.6445" y1="591" y2="591"/><line style="stroke:#000000;stroke-width:0.5;" x1="67.5" x2="158.6445" y1="599" y2="599"/></g><!--class DetectionResponse--><g id="elem_DetectionResponse"><rect codeLine="32" fill="#90EE90" height="48" id="DetectionResponse" rx="2.5" ry="2.5" style="stroke:#000000;stroke-width:0.5;" width="156.1855" x="251.5" y="559"/><ellipse cx="266.5" cy="575" fill="#ADD1B2" rx="11" ry="11" style="stroke:#181818;stroke-width:1.0;"/><path d="M269.2656,570.875 Q269.4219,570.6563 269.6094,570.5469 Q269.7969,570.4375 270.0156,570.4375 Q270.3906,570.4375 270.625,570.7031 Q270.8594,570.9531 270.8594,571.5625 L270.8594,573.0156 Q270.8594,573.625 270.625,573.8906 Q270.3906,574.1563 270.0156,574.1563 Q269.6719,574.1563 269.4688,573.9531 Q269.2656,573.7656 269.1563,573.25 Q269.1094,572.8906 268.9219,572.7031 Q268.5938,572.3281 267.9844,572.1094 Q267.375,571.8906 266.75,571.8906 Q265.9844,571.8906 265.3438,572.2188 Q264.7188,572.5469 264.2188,573.2969 Q263.7344,574.0469 263.7344,575.0781 L263.7344,576.1719 Q263.7344,577.4063 264.625,578.2344 Q265.5156,579.0469 267.1094,579.0469 Q268.0469,579.0469 268.7031,578.7969 Q269.0938,578.6406 269.5156,578.2031 Q269.7813,577.9375 269.9219,577.8594 Q270.0781,577.7813 270.2813,577.7813 Q270.6094,577.7813 270.8594,578.0469 Q271.125,578.2969 271.125,578.6406 Q271.125,578.9844 270.7813,579.3906 Q270.2813,579.9688 269.4844,580.2969 Q268.4063,580.75 267.1094,580.75 Q265.5938,580.75 264.3906,580.125 Q263.4063,579.625 262.7188,578.5625 Q262.0313,577.4844 262.0313,576.2031 L262.0313,575.0469 Q262.0313,573.7188 262.6406,572.5781 Q263.2656,571.4219 264.3594,570.8125 Q265.4531,570.1875 266.6875,570.1875 Q267.4219,570.1875 268.0625,570.3594 Q268.7188,570.5156 269.2656,570.875 Z " fill="#000000"/><text fill="#000000" font-family="sans-serif" font-size="14" lengthAdjust="spacing" textLength="122.1855" x="281.5" y="580.7969">DetectionResponse</text><line style="stroke:#000000;stroke-width:0.5;" x1="252.5" x2="406.6855" y1="591" y2="591"/><line style="stroke:#000000;stroke-width:0.5;" x1="252.5" x2="406.6855" y1="599" y2="599"/></g><!--class Prediction--><g id="elem_Prediction"><rect codeLine="33" fill="#90EE90" height="48" id="Prediction" rx="2.5" ry="2.5" style="stroke:#000000;stroke-width:0.5;" width="96.2549" x="65" y="406"/><ellipse cx="80" cy="422" fill="#ADD1B2" rx="11" ry="11" style="stroke:#181818;stroke-width:1.0;"/><path d="M82.7656,417.875 Q82.9219,417.6563 83.1094,417.5469 Q83.2969,417.4375 83.5156,417.4375 Q83.8906,417.4375 84.125,417.7031 Q84.3594,417.9531 84.3594,418.5625 L84.3594,420.0156 Q84.3594,420.625 84.125,420.8906 Q83.8906,421.1563 83.5156,421.1563 Q83.1719,421.1563 82.9688,420.9531 Q82.7656,420.7656 82.6563,420.25 Q82.6094,419.8906 82.4219,419.7031 Q82.0938,419.3281 81.4844,419.1094 Q80.875,418.8906 80.25,418.8906 Q79.4844,418.8906 78.8438,419.2188 Q78.2188,419.5469 77.7188,420.2969 Q77.2344,421.0469 77.2344,422.0781 L77.2344,423.1719 Q77.2344,424.4063 78.125,425.2344 Q79.0156,426.0469 80.6094,426.0469 Q81.5469,426.0469 82.2031,425.7969 Q82.5938,425.6406 83.0156,425.2031 Q83.2813,424.9375 83.4219,424.8594 Q83.5781,424.7813 83.7813,424.7813 Q84.1094,424.7813 84.3594,425.0469 Q84.625,425.2969 84.625,425.6406 Q84.625,425.9844 84.2813,426.3906 Q83.7813,426.9688 82.9844,427.2969 Q81.9063,427.75 80.6094,427.75 Q79.0938,427.75 77.8906,427.125 Q76.9063,426.625 76.2188,425.5625 Q75.5313,424.4844 75.5313,423.2031 L75.5313,422.0469 Q75.5313,420.7188 76.1406,419.5781 Q76.7656,418.4219 77.8594,417.8125 Q78.9531,417.1875 80.1875,417.1875 Q80.9219,417.1875 81.5625,417.3594 Q82.2188,417.5156 82.7656,417.875 Z " fill="#000000"/><text fill="#000000" font-family="sans-serif" font-size="14" lengthAdjust="spacing" textLength="62.2549" x="95" y="427.7969">Prediction</text><line style="stroke:#000000;stroke-width:0.5;" x1="66" x2="160.2549" y1="438" y2="438"/><line style="stroke:#000000;stroke-width:0.5;" x1="66" x2="160.2549" y1="446" y2="446"/></g><!--class GameBoard--><g id="elem_GameBoard"><rect codeLine="34" fill="#90EE90" height="48" id="GameBoard" rx="2.5" ry="2.5" style="stroke:#000000;stroke-width:0.5;" width="109.4824" x="275" y="508"/><ellipse cx="290" cy="524" fill="#EB937F" rx="11" ry="11" style="stroke:#181818;stroke-width:1.0;"/><path d="M288.8594,524.7969 L288.8594,527.2969 L293.1875,527.2969 L293.1875,526.375 Q293.1875,525.7656 293.4219,525.5 Q293.6719,525.2344 294.0469,525.2344 Q294.4219,525.2344 294.6563,525.5 Q294.8906,525.7656 294.8906,526.375 L294.8906,529 L286.8906,529 Q286.2656,529 286,528.7656 Q285.75,528.5313 285.75,528.1406 Q285.75,527.7656 286.0156,527.5313 Q286.2813,527.2969 286.8906,527.2969 L287.1563,527.2969 L287.1563,520.6406 L286.8906,520.6406 Q286.2656,520.6406 286,520.4063 Q285.75,520.1719 285.75,519.7813 Q285.75,519.4063 286,519.1719 Q286.2656,518.9375 286.8906,518.9375 L294.5156,518.9375 L294.5156,521.5313 Q294.5156,522.1406 294.2813,522.4063 Q294.0625,522.6563 293.6719,522.6563 Q293.2969,522.6563 293.0625,522.4063 Q292.8281,522.1406 292.8281,521.5313 L292.8281,520.6406 L288.8594,520.6406 L288.8594,523.0938 L290.3438,523.0938 Q290.3438,522.4375 290.4688,522.25 Q290.7344,521.8438 291.2031,521.8438 Q291.5781,521.8438 291.8125,522.1094 Q292.0469,522.3594 292.0469,522.9688 L292.0469,524.9375 Q292.0469,525.4844 291.9219,525.6719 Q291.6563,526.0625 291.2031,526.0625 Q290.7344,526.0625 290.4688,525.6563 Q290.3438,525.4688 290.3438,524.7969 L288.8594,524.7969 Z " fill="#000000"/><text fill="#000000" font-family="sans-serif" font-size="14" lengthAdjust="spacing" textLength="75.4824" x="305" y="529.7969">GameBoard</text><line style="stroke:#000000;stroke-width:0.5;" x1="276" x2="383.4824" y1="540" y2="540"/><line style="stroke:#000000;stroke-width:0.5;" x1="276" x2="383.4824" y1="548" y2="548"/></g><!--class Achievement--><g id="elem_Achievement"><rect codeLine="35" fill="#90EE90" height="48" id="Achievement" rx="2.5" ry="2.5" style="stroke:#000000;stroke-width:0.5;" width="114.9307" x="272" y="457"/><ellipse cx="287" cy="473" fill="#EB937F" rx="11" ry="11" style="stroke:#181818;stroke-width:1.0;"/><path d="M285.8594,473.7969 L285.8594,476.2969 L290.1875,476.2969 L290.1875,475.375 Q290.1875,474.7656 290.4219,474.5 Q290.6719,474.2344 291.0469,474.2344 Q291.4219,474.2344 291.6563,474.5 Q291.8906,474.7656 291.8906,475.375 L291.8906,478 L283.8906,478 Q283.2656,478 283,477.7656 Q282.75,477.5313 282.75,477.1406 Q282.75,476.7656 283.0156,476.5313 Q283.2813,476.2969 283.8906,476.2969 L284.1563,476.2969 L284.1563,469.6406 L283.8906,469.6406 Q283.2656,469.6406 283,469.4063 Q282.75,469.1719 282.75,468.7813 Q282.75,468.4063 283,468.1719 Q283.2656,467.9375 283.8906,467.9375 L291.5156,467.9375 L291.5156,470.5313 Q291.5156,471.1406 291.2813,471.4063 Q291.0625,471.6563 290.6719,471.6563 Q290.2969,471.6563 290.0625,471.4063 Q289.8281,471.1406 289.8281,470.5313 L289.8281,469.6406 L285.8594,469.6406 L285.8594,472.0938 L287.3438,472.0938 Q287.3438,471.4375 287.4688,471.25 Q287.7344,470.8438 288.2031,470.8438 Q288.5781,470.8438 288.8125,471.1094 Q289.0469,471.3594 289.0469,471.9688 L289.0469,473.9375 Q289.0469,474.4844 288.9219,474.6719 Q288.6563,475.0625 288.2031,475.0625 Q287.7344,475.0625 287.4688,474.6563 Q287.3438,474.4688 287.3438,473.7969 L285.8594,473.7969 Z " fill="#000000"/><text fill="#000000" font-family="sans-serif" font-size="14" lengthAdjust="spacing" textLength="80.9307" x="302" y="478.7969">Achievement</text><line style="stroke:#000000;stroke-width:0.5;" x1="273" x2="385.9307" y1="489" y2="489"/><line style="stroke:#000000;stroke-width:0.5;" x1="273" x2="385.9307" y1="497" y2="497"/></g><!--class PlayStyle--><g id="elem_PlayStyle"><rect codeLine="36" fill="#90EE90" height="48" id="PlayStyle" rx="2.5" ry="2.5" style="stroke:#000000;stroke-width:0.5;" width="92.3584" x="283.5" y="406"/><ellipse cx="298.5" cy="422" fill="#EB937F" rx="11" ry="11" style="stroke:#181818;stroke-width:1.0;"/><path d="M297.3594,422.7969 L297.3594,425.2969 L301.6875,425.2969 L301.6875,424.375 Q301.6875,423.7656 301.9219,423.5 Q302.1719,423.2344 302.5469,423.2344 Q302.9219,423.2344 303.1563,423.5 Q303.3906,423.7656 303.3906,424.375 L303.3906,427 L295.3906,427 Q294.7656,427 294.5,426.7656 Q294.25,426.5313 294.25,426.1406 Q294.25,425.7656 294.5156,425.5313 Q294.7813,425.2969 295.3906,425.2969 L295.6563,425.2969 L295.6563,418.6406 L295.3906,418.6406 Q294.7656,418.6406 294.5,418.4063 Q294.25,418.1719 294.25,417.7813 Q294.25,417.4063 294.5,417.1719 Q294.7656,416.9375 295.3906,416.9375 L303.0156,416.9375 L303.0156,419.5313 Q303.0156,420.1406 302.7813,420.4063 Q302.5625,420.6563 302.1719,420.6563 Q301.7969,420.6563 301.5625,420.4063 Q301.3281,420.1406 301.3281,419.5313 L301.3281,418.6406 L297.3594,418.6406 L297.3594,421.0938 L298.8438,421.0938 Q298.8438,420.4375 298.9688,420.25 Q299.2344,419.8438 299.7031,419.8438 Q300.0781,419.8438 300.3125,420.1094 Q300.5469,420.3594 300.5469,420.9688 L300.5469,422.9375 Q300.5469,423.4844 300.4219,423.6719 Q300.1563,424.0625 299.7031,424.0625 Q299.2344,424.0625 298.9688,423.6563 Q298.8438,423.4688 298.8438,422.7969 L297.3594,422.7969 Z " fill="#000000"/><text fill="#000000" font-family="sans-serif" font-size="14" lengthAdjust="spacing" textLength="58.3584" x="313.5" y="427.7969">PlayStyle</text><line style="stroke:#000000;stroke-width:0.5;" x1="284.5" x2="374.8584" y1="438" y2="438"/><line style="stroke:#000000;stroke-width:0.5;" x1="284.5" x2="374.8584" y1="446" y2="446"/></g><!--class RoboflowRepository--><g id="elem_RoboflowRepository"><rect codeLine="41" fill="#90EE90" height="48" id="RoboflowRepository" rx="2.5" ry="2.5" style="stroke:#000000;stroke-width:0.5;" width="159.2822" x="250" y="274"/><ellipse cx="265" cy="290" fill="#B4A7E5" rx="11" ry="11" style="stroke:#181818;stroke-width:1.0;"/><path d="M265.9531,286.6406 L265.9531,293.2969 L267.6719,293.2969 Q268.2813,293.2969 268.5469,293.5313 Q268.8125,293.7656 268.8125,294.1563 Q268.8125,294.5313 268.5469,294.7656 Q268.2813,295 267.6719,295 L262.5313,295 Q261.9219,295 261.6563,294.7656 Q261.3906,294.5313 261.3906,294.1406 Q261.3906,293.7656 261.6563,293.5313 Q261.9219,293.2969 262.5313,293.2969 L264.25,293.2969 L264.25,286.6406 L262.5313,286.6406 Q261.9219,286.6406 261.6563,286.4063 Q261.3906,286.1719 261.3906,285.7813 Q261.3906,285.4063 261.6563,285.1719 Q261.9219,284.9375 262.5313,284.9375 L267.6719,284.9375 Q268.2813,284.9375 268.5469,285.1719 Q268.8125,285.4063 268.8125,285.7813 Q268.8125,286.1719 268.5469,286.4063 Q268.2813,286.6406 267.6719,286.6406 L265.9531,286.6406 Z " fill="#000000"/><text fill="#000000" font-family="sans-serif" font-size="14" font-style="italic" lengthAdjust="spacing" textLength="125.2822" x="280" y="295.7969">RoboflowRepository</text><line style="stroke:#000000;stroke-width:0.5;" x1="251" x2="408.2822" y1="306" y2="306"/><line style="stroke:#000000;stroke-width:0.5;" x1="251" x2="408.2822" y1="314" y2="314"/></g><!--class RoboflowRepositoryImpl--><g id="elem_RoboflowRepositoryImpl"><rect codeLine="42" fill="#90EE90" height="48" id="RoboflowRepositoryImpl" rx="2.5" ry="2.5" style="stroke:#000000;stroke-width:0.5;" width="185.7305" x="439.5" y="279"/><ellipse cx="454.5" cy="295" fill="#ADD1B2" rx="11" ry="11" style="stroke:#181818;stroke-width:1.0;"/><path d="M457.2656,290.875 Q457.4219,290.6563 457.6094,290.5469 Q457.7969,290.4375 458.0156,290.4375 Q458.3906,290.4375 458.625,290.7031 Q458.8594,290.9531 458.8594,291.5625 L458.8594,293.0156 Q458.8594,293.625 458.625,293.8906 Q458.3906,294.1563 458.0156,294.1563 Q457.6719,294.1563 457.4688,293.9531 Q457.2656,293.7656 457.1563,293.25 Q457.1094,292.8906 456.9219,292.7031 Q456.5938,292.3281 455.9844,292.1094 Q455.375,291.8906 454.75,291.8906 Q453.9844,291.8906 453.3438,292.2188 Q452.7188,292.5469 452.2188,293.2969 Q451.7344,294.0469 451.7344,295.0781 L451.7344,296.1719 Q451.7344,297.4063 452.625,298.2344 Q453.5156,299.0469 455.1094,299.0469 Q456.0469,299.0469 456.7031,298.7969 Q457.0938,298.6406 457.5156,298.2031 Q457.7813,297.9375 457.9219,297.8594 Q458.0781,297.7813 458.2813,297.7813 Q458.6094,297.7813 458.8594,298.0469 Q459.125,298.2969 459.125,298.6406 Q459.125,298.9844 458.7813,299.3906 Q458.2813,299.9688 457.4844,300.2969 Q456.4063,300.75 455.1094,300.75 Q453.5938,300.75 452.3906,300.125 Q451.4063,299.625 450.7188,298.5625 Q450.0313,297.4844 450.0313,296.2031 L450.0313,295.0469 Q450.0313,293.7188 450.6406,292.5781 Q451.2656,291.4219 452.3594,290.8125 Q453.4531,290.1875 454.6875,290.1875 Q455.4219,290.1875 456.0625,290.3594 Q456.7188,290.5156 457.2656,290.875 Z " fill="#000000"/><text fill="#000000" font-family="sans-serif" font-size="14" lengthAdjust="spacing" textLength="151.7305" x="469.5" y="300.7969">RoboflowRepositoryImpl</text><line style="stroke:#000000;stroke-width:0.5;" x1="440.5" x2="624.2305" y1="311" y2="311"/><line style="stroke:#000000;stroke-width:0.5;" x1="440.5" x2="624.2305" y1="319" y2="319"/></g><!--class RoboflowService--><g id="elem_RoboflowService"><rect codeLine="43" fill="#90EE90" height="48" id="RoboflowService" rx="2.5" ry="2.5" style="stroke:#000000;stroke-width:0.5;" width="139.0479" x="647.5" y="277"/><ellipse cx="662.5" cy="293" fill="#B4A7E5" rx="11" ry="11" style="stroke:#181818;stroke-width:1.0;"/><path d="M663.4531,289.6406 L663.4531,296.2969 L665.1719,296.2969 Q665.7813,296.2969 666.0469,296.5313 Q666.3125,296.7656 666.3125,297.1563 Q666.3125,297.5313 666.0469,297.7656 Q665.7813,298 665.1719,298 L660.0313,298 Q659.4219,298 659.1563,297.7656 Q658.8906,297.5313 658.8906,297.1406 Q658.8906,296.7656 659.1563,296.5313 Q659.4219,296.2969 660.0313,296.2969 L661.75,296.2969 L661.75,289.6406 L660.0313,289.6406 Q659.4219,289.6406 659.1563,289.4063 Q658.8906,289.1719 658.8906,288.7813 Q658.8906,288.4063 659.1563,288.1719 Q659.4219,287.9375 660.0313,287.9375 L665.1719,287.9375 Q665.7813,287.9375 666.0469,288.1719 Q666.3125,288.4063 666.3125,288.7813 Q666.3125,289.1719 666.0469,289.4063 Q665.7813,289.6406 665.1719,289.6406 L663.4531,289.6406 Z " fill="#000000"/><text fill="#000000" font-family="sans-serif" font-size="14" font-style="italic" lengthAdjust="spacing" textLength="105.0479" x="677.5" y="298.7969">RoboflowService</text><line style="stroke:#000000;stroke-width:0.5;" x1="648.5" x2="785.5479" y1="309" y2="309"/><line style="stroke:#000000;stroke-width:0.5;" x1="648.5" x2="785.5479" y1="317" y2="317"/></g><!--class GameViewModel--><g id="elem_GameViewModel"><rect codeLine="48" fill="#90EE90" height="48" id="GameViewModel" rx="2.5" ry="2.5" style="stroke:#000000;stroke-width:0.5;" width="140.5996" x="42.5" y="122"/><ellipse cx="57.5" cy="138" fill="#ADD1B2" rx="11" ry="11" style="stroke:#181818;stroke-width:1.0;"/><path d="M60.2656,133.875 Q60.4219,133.6563 60.6094,133.5469 Q60.7969,133.4375 61.0156,133.4375 Q61.3906,133.4375 61.625,133.7031 Q61.8594,133.9531 61.8594,134.5625 L61.8594,136.0156 Q61.8594,136.625 61.625,136.8906 Q61.3906,137.1563 61.0156,137.1563 Q60.6719,137.1563 60.4688,136.9531 Q60.2656,136.7656 60.1563,136.25 Q60.1094,135.8906 59.9219,135.7031 Q59.5938,135.3281 58.9844,135.1094 Q58.375,134.8906 57.75,134.8906 Q56.9844,134.8906 56.3438,135.2188 Q55.7188,135.5469 55.2188,136.2969 Q54.7344,137.0469 54.7344,138.0781 L54.7344,139.1719 Q54.7344,140.4063 55.625,141.2344 Q56.5156,142.0469 58.1094,142.0469 Q59.0469,142.0469 59.7031,141.7969 Q60.0938,141.6406 60.5156,141.2031 Q60.7813,140.9375 60.9219,140.8594 Q61.0781,140.7813 61.2813,140.7813 Q61.6094,140.7813 61.8594,141.0469 Q62.125,141.2969 62.125,141.6406 Q62.125,141.9844 61.7813,142.3906 Q61.2813,142.9688 60.4844,143.2969 Q59.4063,143.75 58.1094,143.75 Q56.5938,143.75 55.3906,143.125 Q54.4063,142.625 53.7188,141.5625 Q53.0313,140.4844 53.0313,139.2031 L53.0313,138.0469 Q53.0313,136.7188 53.6406,135.5781 Q54.2656,134.4219 55.3594,133.8125 Q56.4531,133.1875 57.6875,133.1875 Q58.4219,133.1875 59.0625,133.3594 Q59.7188,133.5156 60.2656,133.875 Z " fill="#000000"/><text fill="#000000" font-family="sans-serif" font-size="14" lengthAdjust="spacing" textLength="106.5996" x="72.5" y="143.7969">GameViewModel</text><line style="stroke:#000000;stroke-width:0.5;" x1="43.5" x2="182.0996" y1="154" y2="154"/><line style="stroke:#000000;stroke-width:0.5;" x1="43.5" x2="182.0996" y1="162" y2="162"/></g><!--class DetectionViewModel--><g id="elem_DetectionViewModel"><rect codeLine="49" fill="#90EE90" height="48" id="DetectionViewModel" rx="2.5" ry="2.5" style="stroke:#000000;stroke-width:0.5;" width="161.6201" x="32" y="173"/><ellipse cx="47" cy="189" fill="#ADD1B2" rx="11" ry="11" style="stroke:#181818;stroke-width:1.0;"/><path d="M49.7656,184.875 Q49.9219,184.6563 50.1094,184.5469 Q50.2969,184.4375 50.5156,184.4375 Q50.8906,184.4375 51.125,184.7031 Q51.3594,184.9531 51.3594,185.5625 L51.3594,187.0156 Q51.3594,187.625 51.125,187.8906 Q50.8906,188.1563 50.5156,188.1563 Q50.1719,188.1563 49.9688,187.9531 Q49.7656,187.7656 49.6563,187.25 Q49.6094,186.8906 49.4219,186.7031 Q49.0938,186.3281 48.4844,186.1094 Q47.875,185.8906 47.25,185.8906 Q46.4844,185.8906 45.8438,186.2188 Q45.2188,186.5469 44.7188,187.2969 Q44.2344,188.0469 44.2344,189.0781 L44.2344,190.1719 Q44.2344,191.4063 45.125,192.2344 Q46.0156,193.0469 47.6094,193.0469 Q48.5469,193.0469 49.2031,192.7969 Q49.5938,192.6406 50.0156,192.2031 Q50.2813,191.9375 50.4219,191.8594 Q50.5781,191.7813 50.7813,191.7813 Q51.1094,191.7813 51.3594,192.0469 Q51.625,192.2969 51.625,192.6406 Q51.625,192.9844 51.2813,193.3906 Q50.7813,193.9688 49.9844,194.2969 Q48.9063,194.75 47.6094,194.75 Q46.0938,194.75 44.8906,194.125 Q43.9063,193.625 43.2188,192.5625 Q42.5313,191.4844 42.5313,190.2031 L42.5313,189.0469 Q42.5313,187.7188 43.1406,186.5781 Q43.7656,185.4219 44.8594,184.8125 Q45.9531,184.1875 47.1875,184.1875 Q47.9219,184.1875 48.5625,184.3594 Q49.2188,184.5156 49.7656,184.875 Z " fill="#000000"/><text fill="#000000" font-family="sans-serif" font-size="14" lengthAdjust="spacing" textLength="127.6201" x="62" y="194.7969">DetectionViewModel</text><line style="stroke:#000000;stroke-width:0.5;" x1="33" x2="192.6201" y1="205" y2="205"/><line style="stroke:#000000;stroke-width:0.5;" x1="33" x2="192.6201" y1="213" y2="213"/></g><!--class DetectionState--><g id="elem_DetectionState"><rect codeLine="50" fill="#90EE90" height="48" id="DetectionState" rx="2.5" ry="2.5" style="stroke:#000000;stroke-width:0.5;" width="125.834" x="50" y="224"/><ellipse cx="65" cy="240" fill="#ADD1B2" rx="11" ry="11" style="stroke:#181818;stroke-width:1.0;"/><path d="M67.7656,235.875 Q67.9219,235.6563 68.1094,235.5469 Q68.2969,235.4375 68.5156,235.4375 Q68.8906,235.4375 69.125,235.7031 Q69.3594,235.9531 69.3594,236.5625 L69.3594,238.0156 Q69.3594,238.625 69.125,238.8906 Q68.8906,239.1563 68.5156,239.1563 Q68.1719,239.1563 67.9688,238.9531 Q67.7656,238.7656 67.6563,238.25 Q67.6094,237.8906 67.4219,237.7031 Q67.0938,237.3281 66.4844,237.1094 Q65.875,236.8906 65.25,236.8906 Q64.4844,236.8906 63.8438,237.2188 Q63.2188,237.5469 62.7188,238.2969 Q62.2344,239.0469 62.2344,240.0781 L62.2344,241.1719 Q62.2344,242.4063 63.125,243.2344 Q64.0156,244.0469 65.6094,244.0469 Q66.5469,244.0469 67.2031,243.7969 Q67.5938,243.6406 68.0156,243.2031 Q68.2813,242.9375 68.4219,242.8594 Q68.5781,242.7813 68.7813,242.7813 Q69.1094,242.7813 69.3594,243.0469 Q69.625,243.2969 69.625,243.6406 Q69.625,243.9844 69.2813,244.3906 Q68.7813,244.9688 67.9844,245.2969 Q66.9063,245.75 65.6094,245.75 Q64.0938,245.75 62.8906,245.125 Q61.9063,244.625 61.2188,243.5625 Q60.5313,242.4844 60.5313,241.2031 L60.5313,240.0469 Q60.5313,238.7188 61.1406,237.5781 Q61.7656,236.4219 62.8594,235.8125 Q63.9531,235.1875 65.1875,235.1875 Q65.9219,235.1875 66.5625,235.3594 Q67.2188,235.5156 67.7656,235.875 Z " fill="#000000"/><text fill="#000000" font-family="sans-serif" font-size="14" lengthAdjust="spacing" textLength="91.834" x="80" y="245.7969">DetectionState</text><line style="stroke:#000000;stroke-width:0.5;" x1="51" x2="174.834" y1="256" y2="256"/><line style="stroke:#000000;stroke-width:0.5;" x1="51" x2="174.834" y1="264" y2="264"/></g><!--reverse link BaseGameManager to PigGameManager--><g id="link_BaseGameManager_PigGameManager"><path d="M425.3422,88.5963 C433.7722,92.5963 425.27,90.12 431.5,97 C445.44,112.38 425.76,127.45 439.5,143 C444.7,148.88 451.09,153.54 458.05,157.24 " fill="none" id="BaseGameManager-backto-PigGameManager" style="stroke:#000000;stroke-width:1.0;"/><polygon fill="none" points="409.08,80.88,422.7701,94.0171,427.9143,83.1756,409.08,80.88" style="stroke:#000000;stroke-width:1.0;"/></g><!--reverse link BaseGameManager to GreedGameManager--><g id="link_BaseGameManager_GreedGameManager"><path d="M426.5277,93.3647 C439.7377,96.7147 436.03,95.78 449.33,99.15 " fill="none" id="BaseGameManager-backto-GreedGameManager" style="stroke:#000000;stroke-width:1.0;"/><polygon fill="none" points="409.08,88.94,425.0528,99.1806,428.0026,87.5488,409.08,88.94" style="stroke:#000000;stroke-width:1.0;"/></g><!--reverse link BaseGameManager to BalutGameManager--><g id="link_BaseGameManager_BalutGameManager"><path d="M427.08,69 C441.5,69 438.56,69 452.98,69 " fill="none" id="BaseGameManager-backto-BalutGameManager" style="stroke:#000000;stroke-width:1.0;"/><polygon fill="none" points="409.08,69,427.08,75,427.08,63,409.08,69" style="stroke:#000000;stroke-width:1.0;"/></g><!--reverse link RoboflowRepository to RoboflowRepositoryImpl--><g id="link_RoboflowRepository_RoboflowRepositoryImpl"><path d="M427.0743,300.4039 C436.9843,300.6539 429.19,300.46 439.29,300.71 " fill="none" id="RoboflowRepository-backto-RoboflowRepositoryImpl" style="stroke:#000000;stroke-width:1.0;stroke-dasharray:7.0,7.0;"/><polygon fill="none" points="409.08,299.95,426.923,306.402,427.2256,294.4059,409.08,299.95" style="stroke:#000000;stroke-width:1.0;"/></g><!--link GameState to GameBoard--><!--link BaseGameManager to GameViewModel--><!--link GameViewModel to BaseGameManager--><g id="link_GameViewModel_BaseGameManager"><path codeLine="60" d="M166.92,121.9 C185.38,113.73 206.39,104.93 226,98 C233.65,95.3 235.9595,94.4456 244.0495,91.9856 " fill="none" id="GameViewModel-to-BaseGameManager" style="stroke:#000000;stroke-width:1.0;"/><polygon fill="#000000" points="249.79,90.24,240.0156,89.0314,245.0063,91.6946,242.343,96.6853,249.79,90.24" style="stroke:#000000;stroke-width:1.0;"/></g><!--link Detection to DetectionResponse--><!--link RoboflowRepository to RoboflowService--><!--link GameViewModel to DiceManager--><g id="link_GameViewModel_DiceManager"><path codeLine="61" d="M183.64,137.56 C211.78,134.15 237.9136,130.9821 264.7236,127.7321 " fill="none" id="GameViewModel-to-DiceManager" style="stroke:#000000;stroke-width:1.0;"/><polygon fill="#000000" points="270.68,127.01,261.264,124.1222,265.7163,127.6117,262.2268,132.064,270.68,127.01" style="stroke:#000000;stroke-width:1.0;"/></g><!--link GameViewModel to StatisticsManager--><g id="link_GameViewModel_StatisticsManager"><path codeLine="62" d="M183.64,154.12 C207.01,156.84 227.1403,159.186 250.6703,161.926 " fill="none" id="GameViewModel-to-StatisticsManager" style="stroke:#000000;stroke-width:1.0;"/><polygon fill="#000000" points="256.63,162.62,248.1531,157.6059,251.6636,162.0417,247.2277,165.5522,256.63,162.62" style="stroke:#000000;stroke-width:1.0;"/></g><!--link DetectionViewModel to RoboflowRepository--><g id="link_DetectionViewModel_RoboflowRepository"><path codeLine="63" d="M194.13,215.76 C202.32,218.5 210.41,221.58 218,225 C246.72,237.94 271.5276,254.3701 292.8576,270.1601 " fill="none" id="DetectionViewModel-to-RoboflowRepository" style="stroke:#000000;stroke-width:1.0;"/><polygon fill="#000000" points="297.68,273.73,292.8263,265.1602,293.6613,270.7551,288.0664,271.5901,297.68,273.73" style="stroke:#000000;stroke-width:1.0;"/></g><!--link RoboflowRepositoryImpl to RoboflowService--><g id="link_RoboflowRepositoryImpl_RoboflowService"><path codeLine="64" d="M625.55,301.99 C632.9,301.91 634.2504,301.8971 641.4004,301.8171 " fill="none" id="RoboflowRepositoryImpl-to-RoboflowService" style="stroke:#000000;stroke-width:1.0;"/><polygon fill="#000000" points="647.4,301.75,638.3558,297.8509,642.4003,301.8059,638.4453,305.8504,647.4,301.75" style="stroke:#000000;stroke-width:1.0;"/></g><!--SRC=[bLHDYzim4BtxLmoxXpq5MlPUMASqBNGX950efOTPQ-A8o98PAKbDwN_lMBPZ9VOkhGy6lpTVRpxy09yS5mGdug0BD62mSSUG6Te520vOb_i0IZCLGJkR-OEsDJ9MK6Dnm9AseJ44rYbAk3KgfMq9xw-mDeEkqOQ1VfVGIrVLpj8ysORtLCDZWZ7QmorM6FGUVcSWJoxrbUoELYsTSGnVMoKh9h8TxLWHTrHkn3QYJypkd89_ikn1QcE25LO4opO1-QmN3tUbe7Tm7uD_9sFSkK-FBpum5g6lAKTFROHdjEB7qQHZFkfY1jq63DfBmtpA9GPhNIRnW7u5ikgjFArqzNykEPfZ-1UNsALd6P99MbF5xw4vAyQcRqrVZ_YtAca6wvIdJQBGB-0CjY4lg-FJG6icfKS7iiSg1iyTiXgXfsAlwKILhDq8hkK4ubPtiZPKEw-3umRGAjWIdsHYeqo50GUHkJbIBrBRGBn3EQsDUt4xMOmnK5BebFnIrGQql69P_ZNtQVoXibZrDqtdsu6S18j36SfTDcWdCxbuphNwJRARPap_MIj55eoM6uMTN5F_MxaC7HO_zj7cv-93CfcRnPfOZValMQzifZinRT-Lmstpui3bDyXai8tZzxhssLLgM8ZVxGLCBTAxdhBJ-vxsE1hEZF-LdLdCoFaB]--></g></svg>