<svg xmlns="http://www.w3.org/2000/svg" xmlns:xlink="http://www.w3.org/1999/xlink" contentStyleType="text/css" height="1043px" preserveAspectRatio="none" style="width:1490px;height:1043px;background:#FFFFFF;" version="1.1" viewBox="0 0 1490 1043" width="1490px" zoomAndPan="magnify"><defs/><g><!--cluster Application--><g id="cluster_Application"><path d="M774,6.0137 L851.2207,6.0137 A3.75,3.75 0 0 1 853.7207,8.5137 L860.7207,30.6348 L1088,30.6348 A2.5,2.5 0 0 1 1090.5,33.1348 L1090.5,212.5137 A2.5,2.5 0 0 1 1088,215.0137 L774,215.0137 A2.5,2.5 0 0 1 771.5,212.5137 L771.5,8.5137 A2.5,2.5 0 0 1 774,6.0137 " fill="none" style="stroke:#000000;stroke-width:1.5;"/><line style="stroke:#000000;stroke-width:1.5;" x1="771.5" x2="860.7207" y1="30.6348" y2="30.6348"/><text fill="#000000" font-family="sans-serif" font-size="14" font-weight="bold" lengthAdjust="spacing" textLength="76.2207" x="775.5" y="23.1211">Application</text></g><!--cluster UI--><g id="cluster_UI"><path d="M728,239.0137 L743,239.0137 A3.75,3.75 0 0 1 745.5,241.5137 L752.5,263.6348 L1276,263.6348 A2.5,2.5 0 0 1 1278.5,266.1348 L1278.5,438.5137 A2.5,2.5 0 0 1 1276,441.0137 L728,441.0137 A2.5,2.5 0 0 1 725.5,438.5137 L725.5,241.5137 A2.5,2.5 0 0 1 728,239.0137 " fill="none" style="stroke:#000000;stroke-width:1.5;"/><line style="stroke:#000000;stroke-width:1.5;" x1="725.5" x2="752.5" y1="263.6348" y2="263.6348"/><text fill="#000000" font-family="sans-serif" font-size="14" font-weight="bold" lengthAdjust="spacing" textLength="14" x="729.5" y="256.1211">UI</text></g><!--cluster Screens--><g id="cluster_Screens"><path d="M760,292.0137 L815.4824,292.0137 A3.75,3.75 0 0 1 817.9824,294.5137 L824.9824,316.6348 L1244,316.6348 A2.5,2.5 0 0 1 1246.5,319.1348 L1246.5,406.5137 A2.5,2.5 0 0 1 1244,409.0137 L760,409.0137 A2.5,2.5 0 0 1 757.5,406.5137 L757.5,294.5137 A2.5,2.5 0 0 1 760,292.0137 " fill="none" style="stroke:#000000;stroke-width:1.5;"/><line style="stroke:#000000;stroke-width:1.5;" x1="757.5" x2="824.9824" y1="316.6348" y2="316.6348"/><text fill="#000000" font-family="sans-serif" font-size="14" font-weight="bold" lengthAdjust="spacing" textLength="54.4824" x="761.5" y="309.1211">Screens</text></g><!--cluster ViewModels--><g id="cluster_ViewModels"><path d="M742,473.0137 L823.1309,473.0137 A3.75,3.75 0 0 1 825.6309,475.5137 L832.6309,497.6348 L1275,497.6348 A2.5,2.5 0 0 1 1277.5,500.1348 L1277.5,587.5137 A2.5,2.5 0 0 1 1275,590.0137 L742,590.0137 A2.5,2.5 0 0 1 739.5,587.5137 L739.5,475.5137 A2.5,2.5 0 0 1 742,473.0137 " fill="none" style="stroke:#000000;stroke-width:1.5;"/><line style="stroke:#000000;stroke-width:1.5;" x1="739.5" x2="832.6309" y1="497.6348" y2="497.6348"/><text fill="#000000" font-family="sans-serif" font-size="14" font-weight="bold" lengthAdjust="spacing" textLength="80.1309" x="743.5" y="490.1211">ViewModels</text></g><!--cluster Managers--><g id="cluster_Managers"><path d="M167,630.0137 L233.3584,630.0137 A3.75,3.75 0 0 1 235.8584,632.5137 L242.8584,654.6348 L1134,654.6348 A2.5,2.5 0 0 1 1136.5,657.1348 L1136.5,813.5137 A2.5,2.5 0 0 1 1134,816.0137 L167,816.0137 A2.5,2.5 0 0 1 164.5,813.5137 L164.5,632.5137 A2.5,2.5 0 0 1 167,630.0137 " fill="none" style="stroke:#000000;stroke-width:1.5;"/><line style="stroke:#000000;stroke-width:1.5;" x1="164.5" x2="242.8584" y1="654.6348" y2="654.6348"/><text fill="#000000" font-family="sans-serif" font-size="14" font-weight="bold" lengthAdjust="spacing" textLength="65.3584" x="168.5" y="647.1211">Managers</text></g><!--cluster Game Logic--><g id="cluster_Game Logic"><path d="M207,683.0137 L288.1309,683.0137 A3.75,3.75 0 0 1 290.6309,685.5137 L297.6309,707.6348 L579,707.6348 A2.5,2.5 0 0 1 581.5,710.1348 L581.5,781.5137 A2.5,2.5 0 0 1 579,784.0137 L207,784.0137 A2.5,2.5 0 0 1 204.5,781.5137 L204.5,685.5137 A2.5,2.5 0 0 1 207,683.0137 " fill="none" style="stroke:#000000;stroke-width:1.5;"/><line style="stroke:#000000;stroke-width:1.5;" x1="204.5" x2="297.6309" y1="707.6348" y2="707.6348"/><text fill="#000000" font-family="sans-serif" font-size="14" font-weight="bold" lengthAdjust="spacing" textLength="80.1309" x="208.5" y="700.1211">Game Logic</text></g><!--cluster App Services--><g id="cluster_App Services"><path d="M608,683.0137 L697.71,683.0137 A3.75,3.75 0 0 1 700.21,685.5137 L707.21,707.6348 L1102,707.6348 A2.5,2.5 0 0 1 1104.5,710.1348 L1104.5,781.5137 A2.5,2.5 0 0 1 1102,784.0137 L608,784.0137 A2.5,2.5 0 0 1 605.5,781.5137 L605.5,685.5137 A2.5,2.5 0 0 1 608,683.0137 " fill="none" style="stroke:#000000;stroke-width:1.5;"/><line style="stroke:#000000;stroke-width:1.5;" x1="605.5" x2="707.21" y1="707.6348" y2="707.6348"/><text fill="#000000" font-family="sans-serif" font-size="14" font-weight="bold" lengthAdjust="spacing" textLength="88.71" x="609.5" y="700.1211">App Services</text></g><!--cluster Repositories--><g id="cluster_Repositories"><path d="M724,856.0137 L809.7998,856.0137 A3.75,3.75 0 0 1 812.2998,858.5137 L819.2998,880.6348 L1481,880.6348 A2.5,2.5 0 0 1 1483.5,883.1348 L1483.5,970.5137 A2.5,2.5 0 0 1 1481,973.0137 L724,973.0137 A2.5,2.5 0 0 1 721.5,970.5137 L721.5,858.5137 A2.5,2.5 0 0 1 724,856.0137 " fill="none" style="stroke:#000000;stroke-width:1.5;"/><line style="stroke:#000000;stroke-width:1.5;" x1="721.5" x2="819.2998" y1="880.6348" y2="880.6348"/><text fill="#000000" font-family="sans-serif" font-size="14" font-weight="bold" lengthAdjust="spacing" textLength="84.7998" x="725.5" y="873.1211">Repositories</text></g><!--class MainActivity--><g id="elem_MainActivity"><rect codeLine="8" fill="#F1F1F1" height="48" id="MainActivity" rx="2.5" ry="2.5" style="stroke:#181818;stroke-width:0.5;" width="106.6826" x="878" y="43.0137"/><ellipse cx="893" cy="59.0137" fill="#ADD1B2" rx="11" ry="11" style="stroke:#181818;stroke-width:1.0;"/><path d="M895.7656,54.8887 Q895.9219,54.6699 896.1094,54.5605 Q896.2969,54.4512 896.5156,54.4512 Q896.8906,54.4512 897.125,54.7168 Q897.3594,54.9668 897.3594,55.5762 L897.3594,57.0293 Q897.3594,57.6387 897.125,57.9043 Q896.8906,58.1699 896.5156,58.1699 Q896.1719,58.1699 895.9688,57.9668 Q895.7656,57.7793 895.6563,57.2637 Q895.6094,56.9043 895.4219,56.7168 Q895.0938,56.3418 894.4844,56.123 Q893.875,55.9043 893.25,55.9043 Q892.4844,55.9043 891.8438,56.2324 Q891.2188,56.5605 890.7188,57.3105 Q890.2344,58.0605 890.2344,59.0918 L890.2344,60.1855 Q890.2344,61.4199 891.125,62.248 Q892.0156,63.0605 893.6094,63.0605 Q894.5469,63.0605 895.2031,62.8105 Q895.5938,62.6543 896.0156,62.2168 Q896.2813,61.9512 896.4219,61.873 Q896.5781,61.7949 896.7813,61.7949 Q897.1094,61.7949 897.3594,62.0605 Q897.625,62.3105 897.625,62.6543 Q897.625,62.998 897.2813,63.4043 Q896.7813,63.9824 895.9844,64.3105 Q894.9063,64.7637 893.6094,64.7637 Q892.0938,64.7637 890.8906,64.1387 Q889.9063,63.6387 889.2188,62.5762 Q888.5313,61.498 888.5313,60.2168 L888.5313,59.0605 Q888.5313,57.7324 889.1406,56.5918 Q889.7656,55.4355 890.8594,54.8262 Q891.9531,54.2012 893.1875,54.2012 Q893.9219,54.2012 894.5625,54.373 Q895.2188,54.5293 895.7656,54.8887 Z " fill="#000000"/><text fill="#000000" font-family="sans-serif" font-size="14" lengthAdjust="spacing" textLength="74.6826" x="907" y="64.8105">MainActivity</text><line style="stroke:#181818;stroke-width:0.5;" x1="879" x2="983.6826" y1="75.0137" y2="75.0137"/><line style="stroke:#181818;stroke-width:0.5;" x1="879" x2="983.6826" y1="83.0137" y2="83.0137"/></g><!--class KaviApplication--><g id="elem_KaviApplication"><rect codeLine="9" fill="#F1F1F1" height="48" id="KaviApplication" rx="2.5" ry="2.5" style="stroke:#181818;stroke-width:0.5;" width="127.7236" x="787.5" y="151.0137"/><ellipse cx="802.5" cy="167.0137" fill="#ADD1B2" rx="11" ry="11" style="stroke:#181818;stroke-width:1.0;"/><path d="M805.2656,162.8887 Q805.4219,162.6699 805.6094,162.5605 Q805.7969,162.4512 806.0156,162.4512 Q806.3906,162.4512 806.625,162.7168 Q806.8594,162.9668 806.8594,163.5762 L806.8594,165.0293 Q806.8594,165.6387 806.625,165.9043 Q806.3906,166.1699 806.0156,166.1699 Q805.6719,166.1699 805.4688,165.9668 Q805.2656,165.7793 805.1563,165.2637 Q805.1094,164.9043 804.9219,164.7168 Q804.5938,164.3418 803.9844,164.123 Q803.375,163.9043 802.75,163.9043 Q801.9844,163.9043 801.3438,164.2324 Q800.7188,164.5605 800.2188,165.3105 Q799.7344,166.0605 799.7344,167.0918 L799.7344,168.1855 Q799.7344,169.4199 800.625,170.248 Q801.5156,171.0605 803.1094,171.0605 Q804.0469,171.0605 804.7031,170.8105 Q805.0938,170.6543 805.5156,170.2168 Q805.7813,169.9512 805.9219,169.873 Q806.0781,169.7949 806.2813,169.7949 Q806.6094,169.7949 806.8594,170.0605 Q807.125,170.3105 807.125,170.6543 Q807.125,170.998 806.7813,171.4043 Q806.2813,171.9824 805.4844,172.3105 Q804.4063,172.7637 803.1094,172.7637 Q801.5938,172.7637 800.3906,172.1387 Q799.4063,171.6387 798.7188,170.5762 Q798.0313,169.498 798.0313,168.2168 L798.0313,167.0605 Q798.0313,165.7324 798.6406,164.5918 Q799.2656,163.4355 800.3594,162.8262 Q801.4531,162.2012 802.6875,162.2012 Q803.4219,162.2012 804.0625,162.373 Q804.7188,162.5293 805.2656,162.8887 Z " fill="#000000"/><text fill="#000000" font-family="sans-serif" font-size="14" lengthAdjust="spacing" textLength="95.7236" x="816.5" y="172.8105">KaviApplication</text><line style="stroke:#181818;stroke-width:0.5;" x1="788.5" x2="914.2236" y1="183.0137" y2="183.0137"/><line style="stroke:#181818;stroke-width:0.5;" x1="788.5" x2="914.2236" y1="191.0137" y2="191.0137"/></g><!--class AppNavigation--><g id="elem_AppNavigation"><rect codeLine="10" fill="#F1F1F1" height="48" id="AppNavigation" rx="2.5" ry="2.5" style="stroke:#181818;stroke-width:0.5;" width="123.0615" x="951" y="151.0137"/><ellipse cx="966" cy="167.0137" fill="#ADD1B2" rx="11" ry="11" style="stroke:#181818;stroke-width:1.0;"/><path d="M968.7656,162.8887 Q968.9219,162.6699 969.1094,162.5605 Q969.2969,162.4512 969.5156,162.4512 Q969.8906,162.4512 970.125,162.7168 Q970.3594,162.9668 970.3594,163.5762 L970.3594,165.0293 Q970.3594,165.6387 970.125,165.9043 Q969.8906,166.1699 969.5156,166.1699 Q969.1719,166.1699 968.9688,165.9668 Q968.7656,165.7793 968.6563,165.2637 Q968.6094,164.9043 968.4219,164.7168 Q968.0938,164.3418 967.4844,164.123 Q966.875,163.9043 966.25,163.9043 Q965.4844,163.9043 964.8438,164.2324 Q964.2188,164.5605 963.7188,165.3105 Q963.2344,166.0605 963.2344,167.0918 L963.2344,168.1855 Q963.2344,169.4199 964.125,170.248 Q965.0156,171.0605 966.6094,171.0605 Q967.5469,171.0605 968.2031,170.8105 Q968.5938,170.6543 969.0156,170.2168 Q969.2813,169.9512 969.4219,169.873 Q969.5781,169.7949 969.7813,169.7949 Q970.1094,169.7949 970.3594,170.0605 Q970.625,170.3105 970.625,170.6543 Q970.625,170.998 970.2813,171.4043 Q969.7813,171.9824 968.9844,172.3105 Q967.9063,172.7637 966.6094,172.7637 Q965.0938,172.7637 963.8906,172.1387 Q962.9063,171.6387 962.2188,170.5762 Q961.5313,169.498 961.5313,168.2168 L961.5313,167.0605 Q961.5313,165.7324 962.1406,164.5918 Q962.7656,163.4355 963.8594,162.8262 Q964.9531,162.2012 966.1875,162.2012 Q966.9219,162.2012 967.5625,162.373 Q968.2188,162.5293 968.7656,162.8887 Z " fill="#000000"/><text fill="#000000" font-family="sans-serif" font-size="14" lengthAdjust="spacing" textLength="91.0615" x="980" y="172.8105">AppNavigation</text><line style="stroke:#181818;stroke-width:0.5;" x1="952" x2="1073.0615" y1="183.0137" y2="183.0137"/><line style="stroke:#181818;stroke-width:0.5;" x1="952" x2="1073.0615" y1="191.0137" y2="191.0137"/></g><!--class MainScreens--><g id="elem_MainScreens"><rect codeLine="16" fill="#F1F1F1" height="48" id="MainScreens" rx="2.5" ry="2.5" style="stroke:#181818;stroke-width:0.5;" width="117.5928" x="953.5" y="337.0137"/><ellipse cx="968.5" cy="353.0137" fill="#ADD1B2" rx="11" ry="11" style="stroke:#181818;stroke-width:1.0;"/><path d="M971.2656,348.8887 Q971.4219,348.6699 971.6094,348.5605 Q971.7969,348.4512 972.0156,348.4512 Q972.3906,348.4512 972.625,348.7168 Q972.8594,348.9668 972.8594,349.5762 L972.8594,351.0293 Q972.8594,351.6387 972.625,351.9043 Q972.3906,352.1699 972.0156,352.1699 Q971.6719,352.1699 971.4688,351.9668 Q971.2656,351.7793 971.1563,351.2637 Q971.1094,350.9043 970.9219,350.7168 Q970.5938,350.3418 969.9844,350.123 Q969.375,349.9043 968.75,349.9043 Q967.9844,349.9043 967.3438,350.2324 Q966.7188,350.5605 966.2188,351.3105 Q965.7344,352.0605 965.7344,353.0918 L965.7344,354.1855 Q965.7344,355.4199 966.625,356.248 Q967.5156,357.0605 969.1094,357.0605 Q970.0469,357.0605 970.7031,356.8105 Q971.0938,356.6543 971.5156,356.2168 Q971.7813,355.9512 971.9219,355.873 Q972.0781,355.7949 972.2813,355.7949 Q972.6094,355.7949 972.8594,356.0605 Q973.125,356.3105 973.125,356.6543 Q973.125,356.998 972.7813,357.4043 Q972.2813,357.9824 971.4844,358.3105 Q970.4063,358.7637 969.1094,358.7637 Q967.5938,358.7637 966.3906,358.1387 Q965.4063,357.6387 964.7188,356.5762 Q964.0313,355.498 964.0313,354.2168 L964.0313,353.0605 Q964.0313,351.7324 964.6406,350.5918 Q965.2656,349.4355 966.3594,348.8262 Q967.4531,348.2012 968.6875,348.2012 Q969.4219,348.2012 970.0625,348.373 Q970.7188,348.5293 971.2656,348.8887 Z " fill="#000000"/><text fill="#000000" font-family="sans-serif" font-size="14" lengthAdjust="spacing" textLength="85.5928" x="982.5" y="358.8105">Main Screens</text><line style="stroke:#181818;stroke-width:0.5;" x1="954.5" x2="1070.0928" y1="369.0137" y2="369.0137"/><line style="stroke:#181818;stroke-width:0.5;" x1="954.5" x2="1070.0928" y1="377.0137" y2="377.0137"/></g><!--class GameBoards--><g id="elem_GameBoards"><rect codeLine="17" fill="#F1F1F1" height="48" id="GameBoards" rx="2.5" ry="2.5" style="stroke:#181818;stroke-width:0.5;" width="118.3721" x="800.5" y="337.0137"/><ellipse cx="815.5" cy="353.0137" fill="#ADD1B2" rx="11" ry="11" style="stroke:#181818;stroke-width:1.0;"/><path d="M818.2656,348.8887 Q818.4219,348.6699 818.6094,348.5605 Q818.7969,348.4512 819.0156,348.4512 Q819.3906,348.4512 819.625,348.7168 Q819.8594,348.9668 819.8594,349.5762 L819.8594,351.0293 Q819.8594,351.6387 819.625,351.9043 Q819.3906,352.1699 819.0156,352.1699 Q818.6719,352.1699 818.4688,351.9668 Q818.2656,351.7793 818.1563,351.2637 Q818.1094,350.9043 817.9219,350.7168 Q817.5938,350.3418 816.9844,350.123 Q816.375,349.9043 815.75,349.9043 Q814.9844,349.9043 814.3438,350.2324 Q813.7188,350.5605 813.2188,351.3105 Q812.7344,352.0605 812.7344,353.0918 L812.7344,354.1855 Q812.7344,355.4199 813.625,356.248 Q814.5156,357.0605 816.1094,357.0605 Q817.0469,357.0605 817.7031,356.8105 Q818.0938,356.6543 818.5156,356.2168 Q818.7813,355.9512 818.9219,355.873 Q819.0781,355.7949 819.2813,355.7949 Q819.6094,355.7949 819.8594,356.0605 Q820.125,356.3105 820.125,356.6543 Q820.125,356.998 819.7813,357.4043 Q819.2813,357.9824 818.4844,358.3105 Q817.4063,358.7637 816.1094,358.7637 Q814.5938,358.7637 813.3906,358.1387 Q812.4063,357.6387 811.7188,356.5762 Q811.0313,355.498 811.0313,354.2168 L811.0313,353.0605 Q811.0313,351.7324 811.6406,350.5918 Q812.2656,349.4355 813.3594,348.8262 Q814.4531,348.2012 815.6875,348.2012 Q816.4219,348.2012 817.0625,348.373 Q817.7188,348.5293 818.2656,348.8887 Z " fill="#000000"/><text fill="#000000" font-family="sans-serif" font-size="14" lengthAdjust="spacing" textLength="86.3721" x="829.5" y="358.8105">Game Boards</text><line style="stroke:#181818;stroke-width:0.5;" x1="801.5" x2="917.8721" y1="369.0137" y2="369.0137"/><line style="stroke:#181818;stroke-width:0.5;" x1="801.5" x2="917.8721" y1="377.0137" y2="377.0137"/></g><!--class AuthScreens--><g id="elem_AuthScreens"><rect codeLine="18" fill="#F1F1F1" height="48" id="AuthScreens" rx="2.5" ry="2.5" style="stroke:#181818;stroke-width:0.5;" width="116.0479" x="1106.5" y="337.0137"/><ellipse cx="1121.5" cy="353.0137" fill="#ADD1B2" rx="11" ry="11" style="stroke:#181818;stroke-width:1.0;"/><path d="M1124.2656,348.8887 Q1124.4219,348.6699 1124.6094,348.5605 Q1124.7969,348.4512 1125.0156,348.4512 Q1125.3906,348.4512 1125.625,348.7168 Q1125.8594,348.9668 1125.8594,349.5762 L1125.8594,351.0293 Q1125.8594,351.6387 1125.625,351.9043 Q1125.3906,352.1699 1125.0156,352.1699 Q1124.6719,352.1699 1124.4688,351.9668 Q1124.2656,351.7793 1124.1563,351.2637 Q1124.1094,350.9043 1123.9219,350.7168 Q1123.5938,350.3418 1122.9844,350.123 Q1122.375,349.9043 1121.75,349.9043 Q1120.9844,349.9043 1120.3438,350.2324 Q1119.7188,350.5605 1119.2188,351.3105 Q1118.7344,352.0605 1118.7344,353.0918 L1118.7344,354.1855 Q1118.7344,355.4199 1119.625,356.248 Q1120.5156,357.0605 1122.1094,357.0605 Q1123.0469,357.0605 1123.7031,356.8105 Q1124.0938,356.6543 1124.5156,356.2168 Q1124.7813,355.9512 1124.9219,355.873 Q1125.0781,355.7949 1125.2813,355.7949 Q1125.6094,355.7949 1125.8594,356.0605 Q1126.125,356.3105 1126.125,356.6543 Q1126.125,356.998 1125.7813,357.4043 Q1125.2813,357.9824 1124.4844,358.3105 Q1123.4063,358.7637 1122.1094,358.7637 Q1120.5938,358.7637 1119.3906,358.1387 Q1118.4063,357.6387 1117.7188,356.5762 Q1117.0313,355.498 1117.0313,354.2168 L1117.0313,353.0605 Q1117.0313,351.7324 1117.6406,350.5918 Q1118.2656,349.4355 1119.3594,348.8262 Q1120.4531,348.2012 1121.6875,348.2012 Q1122.4219,348.2012 1123.0625,348.373 Q1123.7188,348.5293 1124.2656,348.8887 Z " fill="#000000"/><text fill="#000000" font-family="sans-serif" font-size="14" lengthAdjust="spacing" textLength="84.0479" x="1135.5" y="358.8105">Auth Screens</text><line style="stroke:#181818;stroke-width:0.5;" x1="1107.5" x2="1221.5479" y1="369.0137" y2="369.0137"/><line style="stroke:#181818;stroke-width:0.5;" x1="1107.5" x2="1221.5479" y1="377.0137" y2="377.0137"/></g><!--class AppViewModel--><g id="elem_AppViewModel"><rect codeLine="24" fill="#F1F1F1" height="48" id="AppViewModel" rx="2.5" ry="2.5" style="stroke:#181818;stroke-width:0.5;" width="125.3857" x="957" y="518.0137"/><ellipse cx="972" cy="534.0137" fill="#ADD1B2" rx="11" ry="11" style="stroke:#181818;stroke-width:1.0;"/><path d="M974.7656,529.8887 Q974.9219,529.6699 975.1094,529.5605 Q975.2969,529.4512 975.5156,529.4512 Q975.8906,529.4512 976.125,529.7168 Q976.3594,529.9668 976.3594,530.5762 L976.3594,532.0293 Q976.3594,532.6387 976.125,532.9043 Q975.8906,533.1699 975.5156,533.1699 Q975.1719,533.1699 974.9688,532.9668 Q974.7656,532.7793 974.6563,532.2637 Q974.6094,531.9043 974.4219,531.7168 Q974.0938,531.3418 973.4844,531.123 Q972.875,530.9043 972.25,530.9043 Q971.4844,530.9043 970.8438,531.2324 Q970.2188,531.5605 969.7188,532.3105 Q969.2344,533.0605 969.2344,534.0918 L969.2344,535.1855 Q969.2344,536.4199 970.125,537.248 Q971.0156,538.0605 972.6094,538.0605 Q973.5469,538.0605 974.2031,537.8105 Q974.5938,537.6543 975.0156,537.2168 Q975.2813,536.9512 975.4219,536.873 Q975.5781,536.7949 975.7813,536.7949 Q976.1094,536.7949 976.3594,537.0605 Q976.625,537.3105 976.625,537.6543 Q976.625,537.998 976.2813,538.4043 Q975.7813,538.9824 974.9844,539.3105 Q973.9063,539.7637 972.6094,539.7637 Q971.0938,539.7637 969.8906,539.1387 Q968.9063,538.6387 968.2188,537.5762 Q967.5313,536.498 967.5313,535.2168 L967.5313,534.0605 Q967.5313,532.7324 968.1406,531.5918 Q968.7656,530.4355 969.8594,529.8262 Q970.9531,529.2012 972.1875,529.2012 Q972.9219,529.2012 973.5625,529.373 Q974.2188,529.5293 974.7656,529.8887 Z " fill="#000000"/><text fill="#000000" font-family="sans-serif" font-size="14" lengthAdjust="spacing" textLength="93.3857" x="986" y="539.8105">AppViewModel</text><line style="stroke:#181818;stroke-width:0.5;" x1="958" x2="1081.3857" y1="550.0137" y2="550.0137"/><line style="stroke:#181818;stroke-width:0.5;" x1="958" x2="1081.3857" y1="558.0137" y2="558.0137"/></g><!--class GameViewModel--><g id="elem_GameViewModel"><rect codeLine="25" fill="#F1F1F1" height="48" id="GameViewModel" rx="2.5" ry="2.5" style="stroke:#181818;stroke-width:0.5;" width="138.5996" x="783" y="518.0137"/><ellipse cx="798" cy="534.0137" fill="#ADD1B2" rx="11" ry="11" style="stroke:#181818;stroke-width:1.0;"/><path d="M800.7656,529.8887 Q800.9219,529.6699 801.1094,529.5605 Q801.2969,529.4512 801.5156,529.4512 Q801.8906,529.4512 802.125,529.7168 Q802.3594,529.9668 802.3594,530.5762 L802.3594,532.0293 Q802.3594,532.6387 802.125,532.9043 Q801.8906,533.1699 801.5156,533.1699 Q801.1719,533.1699 800.9688,532.9668 Q800.7656,532.7793 800.6563,532.2637 Q800.6094,531.9043 800.4219,531.7168 Q800.0938,531.3418 799.4844,531.123 Q798.875,530.9043 798.25,530.9043 Q797.4844,530.9043 796.8438,531.2324 Q796.2188,531.5605 795.7188,532.3105 Q795.2344,533.0605 795.2344,534.0918 L795.2344,535.1855 Q795.2344,536.4199 796.125,537.248 Q797.0156,538.0605 798.6094,538.0605 Q799.5469,538.0605 800.2031,537.8105 Q800.5938,537.6543 801.0156,537.2168 Q801.2813,536.9512 801.4219,536.873 Q801.5781,536.7949 801.7813,536.7949 Q802.1094,536.7949 802.3594,537.0605 Q802.625,537.3105 802.625,537.6543 Q802.625,537.998 802.2813,538.4043 Q801.7813,538.9824 800.9844,539.3105 Q799.9063,539.7637 798.6094,539.7637 Q797.0938,539.7637 795.8906,539.1387 Q794.9063,538.6387 794.2188,537.5762 Q793.5313,536.498 793.5313,535.2168 L793.5313,534.0605 Q793.5313,532.7324 794.1406,531.5918 Q794.7656,530.4355 795.8594,529.8262 Q796.9531,529.2012 798.1875,529.2012 Q798.9219,529.2012 799.5625,529.373 Q800.2188,529.5293 800.7656,529.8887 Z " fill="#000000"/><text fill="#000000" font-family="sans-serif" font-size="14" lengthAdjust="spacing" textLength="106.5996" x="812" y="539.8105">GameViewModel</text><line style="stroke:#181818;stroke-width:0.5;" x1="784" x2="920.5996" y1="550.0137" y2="550.0137"/><line style="stroke:#181818;stroke-width:0.5;" x1="784" x2="920.5996" y1="558.0137" y2="558.0137"/></g><!--class AuthViewModels--><g id="elem_AuthViewModels"><rect codeLine="26" fill="#F1F1F1" height="48" id="AuthViewModels" rx="2.5" ry="2.5" style="stroke:#181818;stroke-width:0.5;" width="136.2754" x="1117.5" y="518.0137"/><ellipse cx="1132.5" cy="534.0137" fill="#ADD1B2" rx="11" ry="11" style="stroke:#181818;stroke-width:1.0;"/><path d="M1135.2656,529.8887 Q1135.4219,529.6699 1135.6094,529.5605 Q1135.7969,529.4512 1136.0156,529.4512 Q1136.3906,529.4512 1136.625,529.7168 Q1136.8594,529.9668 1136.8594,530.5762 L1136.8594,532.0293 Q1136.8594,532.6387 1136.625,532.9043 Q1136.3906,533.1699 1136.0156,533.1699 Q1135.6719,533.1699 1135.4688,532.9668 Q1135.2656,532.7793 1135.1563,532.2637 Q1135.1094,531.9043 1134.9219,531.7168 Q1134.5938,531.3418 1133.9844,531.123 Q1133.375,530.9043 1132.75,530.9043 Q1131.9844,530.9043 1131.3438,531.2324 Q1130.7188,531.5605 1130.2188,532.3105 Q1129.7344,533.0605 1129.7344,534.0918 L1129.7344,535.1855 Q1129.7344,536.4199 1130.625,537.248 Q1131.5156,538.0605 1133.1094,538.0605 Q1134.0469,538.0605 1134.7031,537.8105 Q1135.0938,537.6543 1135.5156,537.2168 Q1135.7813,536.9512 1135.9219,536.873 Q1136.0781,536.7949 1136.2813,536.7949 Q1136.6094,536.7949 1136.8594,537.0605 Q1137.125,537.3105 1137.125,537.6543 Q1137.125,537.998 1136.7813,538.4043 Q1136.2813,538.9824 1135.4844,539.3105 Q1134.4063,539.7637 1133.1094,539.7637 Q1131.5938,539.7637 1130.3906,539.1387 Q1129.4063,538.6387 1128.7188,537.5762 Q1128.0313,536.498 1128.0313,535.2168 L1128.0313,534.0605 Q1128.0313,532.7324 1128.6406,531.5918 Q1129.2656,530.4355 1130.3594,529.8262 Q1131.4531,529.2012 1132.6875,529.2012 Q1133.4219,529.2012 1134.0625,529.373 Q1134.7188,529.5293 1135.2656,529.8887 Z " fill="#000000"/><text fill="#000000" font-family="sans-serif" font-size="14" lengthAdjust="spacing" textLength="104.2754" x="1146.5" y="539.8105">AuthViewModels</text><line style="stroke:#181818;stroke-width:0.5;" x1="1118.5" x2="1252.7754" y1="550.0137" y2="550.0137"/><line style="stroke:#181818;stroke-width:0.5;" x1="1118.5" x2="1252.7754" y1="558.0137" y2="558.0137"/></g><!--class GameManagers--><g id="elem_GameManagers"><rect codeLine="32" fill="#F1F1F1" height="48" id="GameManagers" rx="2.5" ry="2.5" style="stroke:#181818;stroke-width:0.5;" width="136.2686" x="220.5" y="720.0137"/><ellipse cx="235.5" cy="736.0137" fill="#ADD1B2" rx="11" ry="11" style="stroke:#181818;stroke-width:1.0;"/><path d="M238.2656,731.8887 Q238.4219,731.6699 238.6094,731.5605 Q238.7969,731.4512 239.0156,731.4512 Q239.3906,731.4512 239.625,731.7168 Q239.8594,731.9668 239.8594,732.5762 L239.8594,734.0293 Q239.8594,734.6387 239.625,734.9043 Q239.3906,735.1699 239.0156,735.1699 Q238.6719,735.1699 238.4688,734.9668 Q238.2656,734.7793 238.1563,734.2637 Q238.1094,733.9043 237.9219,733.7168 Q237.5938,733.3418 236.9844,733.123 Q236.375,732.9043 235.75,732.9043 Q234.9844,732.9043 234.3438,733.2324 Q233.7188,733.5605 233.2188,734.3105 Q232.7344,735.0605 232.7344,736.0918 L232.7344,737.1855 Q232.7344,738.4199 233.625,739.248 Q234.5156,740.0605 236.1094,740.0605 Q237.0469,740.0605 237.7031,739.8105 Q238.0938,739.6543 238.5156,739.2168 Q238.7813,738.9512 238.9219,738.873 Q239.0781,738.7949 239.2813,738.7949 Q239.6094,738.7949 239.8594,739.0605 Q240.125,739.3105 240.125,739.6543 Q240.125,739.998 239.7813,740.4043 Q239.2813,740.9824 238.4844,741.3105 Q237.4063,741.7637 236.1094,741.7637 Q234.5938,741.7637 233.3906,741.1387 Q232.4063,740.6387 231.7188,739.5762 Q231.0313,738.498 231.0313,737.2168 L231.0313,736.0605 Q231.0313,734.7324 231.6406,733.5918 Q232.2656,732.4355 233.3594,731.8262 Q234.4531,731.2012 235.6875,731.2012 Q236.4219,731.2012 237.0625,731.373 Q237.7188,731.5293 238.2656,731.8887 Z " fill="#000000"/><text fill="#000000" font-family="sans-serif" font-size="14" lengthAdjust="spacing" textLength="104.2686" x="249.5" y="741.8105">Game Managers</text><line style="stroke:#181818;stroke-width:0.5;" x1="221.5" x2="355.7686" y1="752.0137" y2="752.0137"/><line style="stroke:#181818;stroke-width:0.5;" x1="221.5" x2="355.7686" y1="760.0137" y2="760.0137"/></g><g id="elem_GMN18"><path d="M392,721.5137 L392,740.0137 L356.56,744.0137 L392,748.0137 L392,766.0957 A0,0 0 0 0 392,766.0957 L565.4453,766.0957 A0,0 0 0 0 565.4453,766.0957 L565.4453,731.5137 L555.4453,721.5137 L392,721.5137 A0,0 0 0 0 392,721.5137 " fill="#FEFFDD" style="stroke:#181818;stroke-width:0.5;"/><path d="M555.4453,721.5137 L555.4453,731.5137 L565.4453,731.5137 L555.4453,721.5137 " fill="#FEFFDD" style="stroke:#181818;stroke-width:0.5;"/><text fill="#000000" font-family="sans-serif" font-size="13" lengthAdjust="spacing" textLength="136.5571" x="398" y="740.542">PigGame, GreedGame,</text><text fill="#000000" font-family="sans-serif" font-size="13" lengthAdjust="spacing" textLength="152.4453" x="398" y="757.833">BalutGame, CustomGame</text></g><!--class StatisticsManager--><g id="elem_StatisticsManager"><rect codeLine="37" fill="#F1F1F1" height="48" id="StatisticsManager" rx="2.5" ry="2.5" style="stroke:#181818;stroke-width:0.5;" width="143.2686" x="772" y="720.0137"/><ellipse cx="787" cy="736.0137" fill="#ADD1B2" rx="11" ry="11" style="stroke:#181818;stroke-width:1.0;"/><path d="M789.7656,731.8887 Q789.9219,731.6699 790.1094,731.5605 Q790.2969,731.4512 790.5156,731.4512 Q790.8906,731.4512 791.125,731.7168 Q791.3594,731.9668 791.3594,732.5762 L791.3594,734.0293 Q791.3594,734.6387 791.125,734.9043 Q790.8906,735.1699 790.5156,735.1699 Q790.1719,735.1699 789.9688,734.9668 Q789.7656,734.7793 789.6563,734.2637 Q789.6094,733.9043 789.4219,733.7168 Q789.0938,733.3418 788.4844,733.123 Q787.875,732.9043 787.25,732.9043 Q786.4844,732.9043 785.8438,733.2324 Q785.2188,733.5605 784.7188,734.3105 Q784.2344,735.0605 784.2344,736.0918 L784.2344,737.1855 Q784.2344,738.4199 785.125,739.248 Q786.0156,740.0605 787.6094,740.0605 Q788.5469,740.0605 789.2031,739.8105 Q789.5938,739.6543 790.0156,739.2168 Q790.2813,738.9512 790.4219,738.873 Q790.5781,738.7949 790.7813,738.7949 Q791.1094,738.7949 791.3594,739.0605 Q791.625,739.3105 791.625,739.6543 Q791.625,739.998 791.2813,740.4043 Q790.7813,740.9824 789.9844,741.3105 Q788.9063,741.7637 787.6094,741.7637 Q786.0938,741.7637 784.8906,741.1387 Q783.9063,740.6387 783.2188,739.5762 Q782.5313,738.498 782.5313,737.2168 L782.5313,736.0605 Q782.5313,734.7324 783.1406,733.5918 Q783.7656,732.4355 784.8594,731.8262 Q785.9531,731.2012 787.1875,731.2012 Q787.9219,731.2012 788.5625,731.373 Q789.2188,731.5293 789.7656,731.8887 Z " fill="#000000"/><text fill="#000000" font-family="sans-serif" font-size="14" lengthAdjust="spacing" textLength="111.2686" x="801" y="741.8105">StatisticsManager</text><line style="stroke:#181818;stroke-width:0.5;" x1="773" x2="914.2686" y1="752.0137" y2="752.0137"/><line style="stroke:#181818;stroke-width:0.5;" x1="773" x2="914.2686" y1="760.0137" y2="760.0137"/></g><!--class SettingsManager--><g id="elem_SettingsManager"><rect codeLine="38" fill="#F1F1F1" height="48" id="SettingsManager" rx="2.5" ry="2.5" style="stroke:#181818;stroke-width:0.5;" width="137.8408" x="950.5" y="720.0137"/><ellipse cx="965.5" cy="736.0137" fill="#ADD1B2" rx="11" ry="11" style="stroke:#181818;stroke-width:1.0;"/><path d="M968.2656,731.8887 Q968.4219,731.6699 968.6094,731.5605 Q968.7969,731.4512 969.0156,731.4512 Q969.3906,731.4512 969.625,731.7168 Q969.8594,731.9668 969.8594,732.5762 L969.8594,734.0293 Q969.8594,734.6387 969.625,734.9043 Q969.3906,735.1699 969.0156,735.1699 Q968.6719,735.1699 968.4688,734.9668 Q968.2656,734.7793 968.1563,734.2637 Q968.1094,733.9043 967.9219,733.7168 Q967.5938,733.3418 966.9844,733.123 Q966.375,732.9043 965.75,732.9043 Q964.9844,732.9043 964.3438,733.2324 Q963.7188,733.5605 963.2188,734.3105 Q962.7344,735.0605 962.7344,736.0918 L962.7344,737.1855 Q962.7344,738.4199 963.625,739.248 Q964.5156,740.0605 966.1094,740.0605 Q967.0469,740.0605 967.7031,739.8105 Q968.0938,739.6543 968.5156,739.2168 Q968.7813,738.9512 968.9219,738.873 Q969.0781,738.7949 969.2813,738.7949 Q969.6094,738.7949 969.8594,739.0605 Q970.125,739.3105 970.125,739.6543 Q970.125,739.998 969.7813,740.4043 Q969.2813,740.9824 968.4844,741.3105 Q967.4063,741.7637 966.1094,741.7637 Q964.5938,741.7637 963.3906,741.1387 Q962.4063,740.6387 961.7188,739.5762 Q961.0313,738.498 961.0313,737.2168 L961.0313,736.0605 Q961.0313,734.7324 961.6406,733.5918 Q962.2656,732.4355 963.3594,731.8262 Q964.4531,731.2012 965.6875,731.2012 Q966.4219,731.2012 967.0625,731.373 Q967.7188,731.5293 968.2656,731.8887 Z " fill="#000000"/><text fill="#000000" font-family="sans-serif" font-size="14" lengthAdjust="spacing" textLength="105.8408" x="979.5" y="741.8105">SettingsManager</text><line style="stroke:#181818;stroke-width:0.5;" x1="951.5" x2="1087.3408" y1="752.0137" y2="752.0137"/><line style="stroke:#181818;stroke-width:0.5;" x1="951.5" x2="1087.3408" y1="760.0137" y2="760.0137"/></g><!--class DiceManager--><g id="elem_DiceManager"><rect codeLine="39" fill="#F1F1F1" height="48" id="DiceManager" rx="2.5" ry="2.5" style="stroke:#181818;stroke-width:0.5;" width="115.2617" x="622" y="720.0137"/><ellipse cx="637" cy="736.0137" fill="#ADD1B2" rx="11" ry="11" style="stroke:#181818;stroke-width:1.0;"/><path d="M639.7656,731.8887 Q639.9219,731.6699 640.1094,731.5605 Q640.2969,731.4512 640.5156,731.4512 Q640.8906,731.4512 641.125,731.7168 Q641.3594,731.9668 641.3594,732.5762 L641.3594,734.0293 Q641.3594,734.6387 641.125,734.9043 Q640.8906,735.1699 640.5156,735.1699 Q640.1719,735.1699 639.9688,734.9668 Q639.7656,734.7793 639.6563,734.2637 Q639.6094,733.9043 639.4219,733.7168 Q639.0938,733.3418 638.4844,733.123 Q637.875,732.9043 637.25,732.9043 Q636.4844,732.9043 635.8438,733.2324 Q635.2188,733.5605 634.7188,734.3105 Q634.2344,735.0605 634.2344,736.0918 L634.2344,737.1855 Q634.2344,738.4199 635.125,739.248 Q636.0156,740.0605 637.6094,740.0605 Q638.5469,740.0605 639.2031,739.8105 Q639.5938,739.6543 640.0156,739.2168 Q640.2813,738.9512 640.4219,738.873 Q640.5781,738.7949 640.7813,738.7949 Q641.1094,738.7949 641.3594,739.0605 Q641.625,739.3105 641.625,739.6543 Q641.625,739.998 641.2813,740.4043 Q640.7813,740.9824 639.9844,741.3105 Q638.9063,741.7637 637.6094,741.7637 Q636.0938,741.7637 634.8906,741.1387 Q633.9063,740.6387 633.2188,739.5762 Q632.5313,738.498 632.5313,737.2168 L632.5313,736.0605 Q632.5313,734.7324 633.1406,733.5918 Q633.7656,732.4355 634.8594,731.8262 Q635.9531,731.2012 637.1875,731.2012 Q637.9219,731.2012 638.5625,731.373 Q639.2188,731.5293 639.7656,731.8887 Z " fill="#000000"/><text fill="#000000" font-family="sans-serif" font-size="14" lengthAdjust="spacing" textLength="83.2617" x="651" y="741.8105">DiceManager</text><line style="stroke:#181818;stroke-width:0.5;" x1="623" x2="736.2617" y1="752.0137" y2="752.0137"/><line style="stroke:#181818;stroke-width:0.5;" x1="623" x2="736.2617" y1="760.0137" y2="760.0137"/></g><!--class AuthRepository--><g id="elem_AuthRepository"><rect codeLine="45" fill="#F1F1F1" height="48" id="AuthRepository" rx="2.5" ry="2.5" style="stroke:#181818;stroke-width:0.5;" width="127.7168" x="1331.5" y="901.0137"/><ellipse cx="1346.5" cy="917.0137" fill="#B4A7E5" rx="11" ry="11" style="stroke:#181818;stroke-width:1.0;"/><path d="M1347.4531,913.6543 L1347.4531,920.3105 L1349.1719,920.3105 Q1349.7813,920.3105 1350.0469,920.5449 Q1350.3125,920.7793 1350.3125,921.1699 Q1350.3125,921.5449 1350.0469,921.7793 Q1349.7813,922.0137 1349.1719,922.0137 L1344.0313,922.0137 Q1343.4219,922.0137 1343.1563,921.7793 Q1342.8906,921.5449 1342.8906,921.1543 Q1342.8906,920.7793 1343.1563,920.5449 Q1343.4219,920.3105 1344.0313,920.3105 L1345.75,920.3105 L1345.75,913.6543 L1344.0313,913.6543 Q1343.4219,913.6543 1343.1563,913.4199 Q1342.8906,913.1855 1342.8906,912.7949 Q1342.8906,912.4199 1343.1563,912.1855 Q1343.4219,911.9512 1344.0313,911.9512 L1349.1719,911.9512 Q1349.7813,911.9512 1350.0469,912.1855 Q1350.3125,912.4199 1350.3125,912.7949 Q1350.3125,913.1855 1350.0469,913.4199 Q1349.7813,913.6543 1349.1719,913.6543 L1347.4531,913.6543 Z " fill="#000000"/><text fill="#000000" font-family="sans-serif" font-size="14" font-style="italic" lengthAdjust="spacing" textLength="95.7168" x="1360.5" y="922.8105">AuthRepository</text><line style="stroke:#181818;stroke-width:0.5;" x1="1332.5" x2="1458.2168" y1="933.0137" y2="933.0137"/><line style="stroke:#181818;stroke-width:0.5;" x1="1332.5" x2="1458.2168" y1="941.0137" y2="941.0137"/></g><!--class UserRepository--><g id="elem_UserRepository"><rect codeLine="46" fill="#F1F1F1" height="48" id="UserRepository" rx="2.5" ry="2.5" style="stroke:#181818;stroke-width:0.5;" width="128.4756" x="1168.5" y="901.0137"/><ellipse cx="1183.5" cy="917.0137" fill="#B4A7E5" rx="11" ry="11" style="stroke:#181818;stroke-width:1.0;"/><path d="M1184.4531,913.6543 L1184.4531,920.3105 L1186.1719,920.3105 Q1186.7813,920.3105 1187.0469,920.5449 Q1187.3125,920.7793 1187.3125,921.1699 Q1187.3125,921.5449 1187.0469,921.7793 Q1186.7813,922.0137 1186.1719,922.0137 L1181.0313,922.0137 Q1180.4219,922.0137 1180.1563,921.7793 Q1179.8906,921.5449 1179.8906,921.1543 Q1179.8906,920.7793 1180.1563,920.5449 Q1180.4219,920.3105 1181.0313,920.3105 L1182.75,920.3105 L1182.75,913.6543 L1181.0313,913.6543 Q1180.4219,913.6543 1180.1563,913.4199 Q1179.8906,913.1855 1179.8906,912.7949 Q1179.8906,912.4199 1180.1563,912.1855 Q1180.4219,911.9512 1181.0313,911.9512 L1186.1719,911.9512 Q1186.7813,911.9512 1187.0469,912.1855 Q1187.3125,912.4199 1187.3125,912.7949 Q1187.3125,913.1855 1187.0469,913.4199 Q1186.7813,913.6543 1186.1719,913.6543 L1184.4531,913.6543 Z " fill="#000000"/><text fill="#000000" font-family="sans-serif" font-size="14" font-style="italic" lengthAdjust="spacing" textLength="96.4756" x="1197.5" y="922.8105">UserRepository</text><line style="stroke:#181818;stroke-width:0.5;" x1="1169.5" x2="1295.9756" y1="933.0137" y2="933.0137"/><line style="stroke:#181818;stroke-width:0.5;" x1="1169.5" x2="1295.9756" y1="941.0137" y2="941.0137"/></g><!--class LeaderboardRepository--><g id="elem_LeaderboardRepository"><rect codeLine="47" fill="#F1F1F1" height="48" id="LeaderboardRepository" rx="2.5" ry="2.5" style="stroke:#181818;stroke-width:0.5;" width="178.3164" x="955.5" y="901.0137"/><ellipse cx="970.5" cy="917.0137" fill="#B4A7E5" rx="11" ry="11" style="stroke:#181818;stroke-width:1.0;"/><path d="M971.4531,913.6543 L971.4531,920.3105 L973.1719,920.3105 Q973.7813,920.3105 974.0469,920.5449 Q974.3125,920.7793 974.3125,921.1699 Q974.3125,921.5449 974.0469,921.7793 Q973.7813,922.0137 973.1719,922.0137 L968.0313,922.0137 Q967.4219,922.0137 967.1563,921.7793 Q966.8906,921.5449 966.8906,921.1543 Q966.8906,920.7793 967.1563,920.5449 Q967.4219,920.3105 968.0313,920.3105 L969.75,920.3105 L969.75,913.6543 L968.0313,913.6543 Q967.4219,913.6543 967.1563,913.4199 Q966.8906,913.1855 966.8906,912.7949 Q966.8906,912.4199 967.1563,912.1855 Q967.4219,911.9512 968.0313,911.9512 L973.1719,911.9512 Q973.7813,911.9512 974.0469,912.1855 Q974.3125,912.4199 974.3125,912.7949 Q974.3125,913.1855 974.0469,913.4199 Q973.7813,913.6543 973.1719,913.6543 L971.4531,913.6543 Z " fill="#000000"/><text fill="#000000" font-family="sans-serif" font-size="14" font-style="italic" lengthAdjust="spacing" textLength="146.3164" x="984.5" y="922.8105">LeaderboardRepository</text><line style="stroke:#181818;stroke-width:0.5;" x1="956.5" x2="1132.8164" y1="933.0137" y2="933.0137"/><line style="stroke:#181818;stroke-width:0.5;" x1="956.5" x2="1132.8164" y1="941.0137" y2="941.0137"/></g><!--class StatisticsRepository--><g id="elem_StatisticsRepository"><rect codeLine="48" fill="#F1F1F1" height="48" id="StatisticsRepository" rx="2.5" ry="2.5" style="stroke:#181818;stroke-width:0.5;" width="154.9307" x="765" y="901.0137"/><ellipse cx="780" cy="917.0137" fill="#B4A7E5" rx="11" ry="11" style="stroke:#181818;stroke-width:1.0;"/><path d="M780.9531,913.6543 L780.9531,920.3105 L782.6719,920.3105 Q783.2813,920.3105 783.5469,920.5449 Q783.8125,920.7793 783.8125,921.1699 Q783.8125,921.5449 783.5469,921.7793 Q783.2813,922.0137 782.6719,922.0137 L777.5313,922.0137 Q776.9219,922.0137 776.6563,921.7793 Q776.3906,921.5449 776.3906,921.1543 Q776.3906,920.7793 776.6563,920.5449 Q776.9219,920.3105 777.5313,920.3105 L779.25,920.3105 L779.25,913.6543 L777.5313,913.6543 Q776.9219,913.6543 776.6563,913.4199 Q776.3906,913.1855 776.3906,912.7949 Q776.3906,912.4199 776.6563,912.1855 Q776.9219,911.9512 777.5313,911.9512 L782.6719,911.9512 Q783.2813,911.9512 783.5469,912.1855 Q783.8125,912.4199 783.8125,912.7949 Q783.8125,913.1855 783.5469,913.4199 Q783.2813,913.6543 782.6719,913.6543 L780.9531,913.6543 Z " fill="#000000"/><text fill="#000000" font-family="sans-serif" font-size="14" font-style="italic" lengthAdjust="spacing" textLength="122.9307" x="794" y="922.8105">StatisticsRepository</text><line style="stroke:#181818;stroke-width:0.5;" x1="766" x2="918.9307" y1="933.0137" y2="933.0137"/><line style="stroke:#181818;stroke-width:0.5;" x1="766" x2="918.9307" y1="941.0137" y2="941.0137"/></g><g id="elem_N1"><path d="M562.5,519.5137 L562.5,564.0957 L712.1289,564.0957 L712.1289,529.5137 L702.1289,519.5137 L562.5,519.5137 " fill="#FEFFDD" style="stroke:#181818;stroke-width:0.5;"/><path d="M702.1289,519.5137 L702.1289,529.5137 L712.1289,529.5137 L702.1289,519.5137 " fill="#FEFFDD" style="stroke:#181818;stroke-width:1.0;"/><text fill="#000000" font-family="sans-serif" font-size="13" lengthAdjust="spacing" textLength="90.3208" x="568.5" y="538.542">UI Components</text><text fill="#000000" font-family="sans-serif" font-size="13" lengthAdjust="spacing" textLength="128.6289" x="568.5" y="555.833">Composable functions</text></g><g id="elem_N2"><path d="M6,721.5137 L6,766.0957 L136.8462,766.0957 L136.8462,731.5137 L126.8462,721.5137 L6,721.5137 " fill="#FEFFDD" style="stroke:#181818;stroke-width:0.5;"/><path d="M126.8462,721.5137 L126.8462,731.5137 L136.8462,731.5137 L126.8462,721.5137 " fill="#FEFFDD" style="stroke:#181818;stroke-width:1.0;"/><text fill="#000000" font-family="sans-serif" font-size="13" lengthAdjust="spacing" textLength="109.8462" x="12" y="740.542">State Management</text><text fill="#000000" font-family="sans-serif" font-size="13" lengthAdjust="spacing" textLength="87.439" x="12" y="757.833">Business Logic</text></g><g id="elem_N3"><path d="M114.5,902.5137 L114.5,947.0957 L230.1626,947.0957 L230.1626,912.5137 L220.1626,902.5137 L114.5,902.5137 " fill="#FEFFDD" style="stroke:#181818;stroke-width:0.5;"/><path d="M220.1626,902.5137 L220.1626,912.5137 L230.1626,912.5137 L220.1626,902.5137 " fill="#FEFFDD" style="stroke:#181818;stroke-width:1.0;"/><text fill="#000000" font-family="sans-serif" font-size="13" lengthAdjust="spacing" textLength="72.249" x="120.5" y="921.542">Game Rules</text><text fill="#000000" font-family="sans-serif" font-size="13" lengthAdjust="spacing" textLength="94.6626" x="120.5" y="938.833">Data Operations</text></g><g id="elem_N4"><path d="M664.5,1009.0137 L664.5,1036.3047 L794.6035,1036.3047 L794.6035,1019.0137 L784.6035,1009.0137 L664.5,1009.0137 " fill="#FEFFDD" style="stroke:#181818;stroke-width:0.5;"/><path d="M784.6035,1009.0137 L784.6035,1019.0137 L794.6035,1019.0137 L784.6035,1009.0137 " fill="#FEFFDD" style="stroke:#181818;stroke-width:1.0;"/><text fill="#000000" font-family="sans-serif" font-size="13" lengthAdjust="spacing" textLength="109.1035" x="670.5" y="1028.042">Data Access Layer</text></g><!--link MainActivity to KaviApplication--><g id="link_MainActivity_KaviApplication"><path codeLine="52" d="M896.75,91.2537 C896.75,109.0337 896.75,127.0937 896.75,144.8537 " fill="none" id="MainActivity-to-KaviApplication" style="stroke:#181818;stroke-width:1.0;"/><polygon fill="#181818" points="896.75,150.8537,900.75,141.8537,896.75,145.8537,892.75,141.8537,896.75,150.8537" style="stroke:#181818;stroke-width:1.0;"/></g><!--link MainActivity to AppNavigation--><g id="link_MainActivity_AppNavigation"><path codeLine="53" d="M968,91.2537 C968,109.0337 968,127.0937 968,144.8537 " fill="none" id="MainActivity-to-AppNavigation" style="stroke:#181818;stroke-width:1.0;"/><polygon fill="#181818" points="968,150.8537,972,141.8537,968,145.8537,964,141.8537,968,150.8537" style="stroke:#181818;stroke-width:1.0;"/></g><!--link AppNavigation to MainScreens--><g id="link_AppNavigation_MainScreens"><path codeLine="56" d="M1012.5,199.3337 C1012.5,235.0737 1012.5,295.4037 1012.5,330.9837 " fill="none" id="AppNavigation-to-MainScreens" style="stroke:#181818;stroke-width:1.0;stroke-dasharray:7.0,7.0;"/><polygon fill="#181818" points="1012.5,336.9837,1016.5,327.9837,1012.5,331.9837,1008.5,327.9837,1012.5,336.9837" style="stroke:#181818;stroke-width:1.0;"/><text fill="#000000" font-family="sans-serif" font-size="13" lengthAdjust="spacing" textLength="36.1309" x="975.5" y="283.182">routes</text></g><!--link AppNavigation to GameBoards--><g id="link_AppNavigation_GameBoards"><path codeLine="57" d="M950.94,175.0137 C944.93,175.0137 941,175.0137 941,175.0137 C941,175.0137 941,361.0137 941,361.0137 C941,361.0137 937.37,361.0137 924.73,361.0137 " fill="none" id="AppNavigation-to-GameBoards" style="stroke:#181818;stroke-width:1.0;stroke-dasharray:7.0,7.0;"/><polygon fill="#181818" points="918.73,361.0137,927.73,365.0137,923.73,361.0137,927.73,357.0137,918.73,361.0137" style="stroke:#181818;stroke-width:1.0;"/><text fill="#000000" font-family="sans-serif" font-size="13" lengthAdjust="spacing" textLength="36.1309" x="904" y="270.202">routes</text></g><!--link AppNavigation to AuthScreens--><g id="link_AppNavigation_AuthScreens"><path codeLine="58" d="M1074.32,175.0137 C1116.41,175.0137 1164.5,175.0137 1164.5,175.0137 C1164.5,175.0137 1164.5,280.2837 1164.5,330.6937 " fill="none" id="AppNavigation-to-AuthScreens" style="stroke:#181818;stroke-width:1.0;stroke-dasharray:7.0,7.0;"/><polygon fill="#181818" points="1164.5,336.6937,1168.5,327.6937,1164.5,331.6937,1160.5,327.6937,1164.5,336.6937" style="stroke:#181818;stroke-width:1.0;"/><text fill="#000000" font-family="sans-serif" font-size="13" lengthAdjust="spacing" textLength="36.1309" x="1127.5" y="206.792">routes</text></g><!--link MainScreens to AppViewModel--><g id="link_MainScreens_AppViewModel"><path codeLine="61" d="M1014.25,385.0537 C1014.25,419.6637 1014.25,477.2037 1014.25,511.8837 " fill="none" id="MainScreens-to-AppViewModel" style="stroke:#181818;stroke-width:1.0;stroke-dasharray:7.0,7.0;"/><polygon fill="#181818" points="1014.25,517.8837,1018.25,508.8837,1014.25,512.8837,1010.25,508.8837,1014.25,517.8837" style="stroke:#181818;stroke-width:1.0;"/><text fill="#000000" font-family="sans-serif" font-size="13" lengthAdjust="spacing" textLength="27.46" x="986.25" y="447.492">uses</text></g><!--link GameBoards to GameViewModel--><g id="link_GameBoards_GameViewModel"><path codeLine="62" d="M859.5,385.0537 C859.5,419.6637 859.5,477.2037 859.5,511.8837 " fill="none" id="GameBoards-to-GameViewModel" style="stroke:#181818;stroke-width:1.0;stroke-dasharray:7.0,7.0;"/><polygon fill="#181818" points="859.5,517.8837,863.5,508.8837,859.5,512.8837,855.5,508.8837,859.5,517.8837" style="stroke:#181818;stroke-width:1.0;"/><text fill="#000000" font-family="sans-serif" font-size="13" lengthAdjust="spacing" textLength="27.46" x="831.5" y="447.492">uses</text></g><!--link AuthScreens to AuthViewModels--><g id="link_AuthScreens_AuthViewModels"><path codeLine="63" d="M1170,385.0537 C1170,419.6637 1170,477.2037 1170,511.8837 " fill="none" id="AuthScreens-to-AuthViewModels" style="stroke:#181818;stroke-width:1.0;stroke-dasharray:7.0,7.0;"/><polygon fill="#181818" points="1170,517.8837,1174,508.8837,1170,512.8837,1166,508.8837,1170,517.8837" style="stroke:#181818;stroke-width:1.0;"/><text fill="#000000" font-family="sans-serif" font-size="13" lengthAdjust="spacing" textLength="27.46" x="1142" y="447.492">uses</text></g><!--reverse link GameViewModel to GameManagers--><g id="link_GameViewModel_GameManagers"><path codeLine="66" d="M827,578.1937 C827,595.9537 827,605.0137 827,605.0137 C827,605.0137 288.5,605.0137 288.5,605.0137 C288.5,605.0137 288.5,679.9737 288.5,719.8037 " fill="none" id="GameViewModel-backto-GameManagers" style="stroke:#181818;stroke-width:1.0;"/><polygon fill="#181818" points="827,566.1937,823,572.1937,827,578.1937,831,572.1937,827,566.1937" style="stroke:#181818;stroke-width:1.0;"/><text fill="#000000" font-family="sans-serif" font-size="13" lengthAdjust="spacing" textLength="30.3481" x="488.77" y="601.042">owns</text></g><!--reverse link GameViewModel to DiceManager--><g id="link_GameViewModel_DiceManager"><path codeLine="67" d="M770.64,554.0137 C740.82,554.0137 724.75,554.0137 724.75,554.0137 C724.75,554.0137 724.75,668.8237 724.75,719.9537 " fill="none" id="GameViewModel-backto-DiceManager" style="stroke:#181818;stroke-width:1.0;"/><polygon fill="#181818" points="782.64,554.0137,776.64,550.0137,770.64,554.0137,776.64,558.0137,782.64,554.0137" style="stroke:#181818;stroke-width:1.0;"/><text fill="#000000" font-family="sans-serif" font-size="13" lengthAdjust="spacing" textLength="30.3481" x="693.75" y="604.062">owns</text></g><!--reverse link GameViewModel to StatisticsManager--><g id="link_GameViewModel_StatisticsManager"><path codeLine="68" d="M871,578.3837 C871,617.3137 871,681.0937 871,719.8737 " fill="none" id="GameViewModel-backto-StatisticsManager" style="stroke:#181818;stroke-width:1.0;"/><polygon fill="#181818" points="871,566.3837,867,572.3837,871,578.3837,875,572.3837,871,566.3837" style="stroke:#181818;stroke-width:1.0;"/><text fill="#000000" font-family="sans-serif" font-size="13" lengthAdjust="spacing" textLength="27.46" x="843" y="639.152">uses</text></g><!--reverse link AppViewModel to SettingsManager--><g id="link_AppViewModel_SettingsManager"><path codeLine="69" d="M988.25,578.3837 C988.25,617.3137 988.25,681.0937 988.25,719.8737 " fill="none" id="AppViewModel-backto-SettingsManager" style="stroke:#181818;stroke-width:1.0;"/><polygon fill="#181818" points="988.25,566.3837,984.25,572.3837,988.25,578.3837,992.25,572.3837,988.25,566.3837" style="stroke:#181818;stroke-width:1.0;"/><text fill="#000000" font-family="sans-serif" font-size="13" lengthAdjust="spacing" textLength="30.3481" x="957.25" y="639.152">owns</text></g><!--link AppViewModel to AuthRepository--><g id="link_AppViewModel_AuthRepository"><path codeLine="72" d="M1050.75,566.2037 C1050.75,596.0837 1050.75,643.0137 1050.75,643.0137 C1050.75,643.0137 1374.17,643.0137 1374.17,643.0137 C1374.17,643.0137 1374.17,826.7737 1374.17,894.9737 " fill="none" id="AppViewModel-to-AuthRepository" style="stroke:#181818;stroke-width:1.0;stroke-dasharray:7.0,7.0;"/><polygon fill="#181818" points="1374.17,900.9737,1378.17,891.9737,1374.17,895.9737,1370.17,891.9737,1374.17,900.9737" style="stroke:#181818;stroke-width:1.0;"/><text fill="#000000" font-family="sans-serif" font-size="13" lengthAdjust="spacing" textLength="27.46" x="1275.03" y="639.042">uses</text></g><!--link AppViewModel to UserRepository--><g id="link_AppViewModel_UserRepository"><path codeLine="73" d="M1019.5,566.0837 C1019.5,606.1037 1019.5,682.0137 1019.5,682.0137 C1019.5,682.0137 1225.17,682.0137 1225.17,682.0137 C1225.17,682.0137 1225.17,833.3637 1225.17,894.8237 " fill="none" id="AppViewModel-to-UserRepository" style="stroke:#181818;stroke-width:1.0;stroke-dasharray:7.0,7.0;"/><polygon fill="#181818" points="1225.17,900.8237,1229.17,891.8237,1225.17,895.8237,1221.17,891.8237,1225.17,900.8237" style="stroke:#181818;stroke-width:1.0;"/><text fill="#000000" font-family="sans-serif" font-size="13" lengthAdjust="spacing" textLength="27.46" x="1145.77" y="678.042">uses</text></g><!--link GameViewModel to LeaderboardRepository--><g id="link_GameViewModel_LeaderboardRepository"><path codeLine="74" d="M922.13,542.0137 C927.85,542.0137 931.5,542.0137 931.5,542.0137 C931.5,542.0137 931.5,925.0137 931.5,925.0137 C931.5,925.0137 935.46,925.0137 949.46,925.0137 " fill="none" id="GameViewModel-to-LeaderboardRepository" style="stroke:#181818;stroke-width:1.0;stroke-dasharray:7.0,7.0;"/><polygon fill="#181818" points="955.46,925.0137,946.46,921.0137,950.46,925.0137,946.46,929.0137,955.46,925.0137" style="stroke:#181818;stroke-width:1.0;"/><text fill="#000000" font-family="sans-serif" font-size="13" lengthAdjust="spacing" textLength="27.46" x="918" y="755.842">uses</text></g><!--link AuthViewModels to AuthRepository--><g id="link_AuthViewModels_AuthRepository"><path codeLine="75" d="M1253.66,542.0137 C1321.89,542.0137 1416.83,542.0137 1416.83,542.0137 C1416.83,542.0137 1416.83,810.5737 1416.83,894.7637 " fill="none" id="AuthViewModels-to-AuthRepository" style="stroke:#181818;stroke-width:1.0;stroke-dasharray:7.0,7.0;"/><polygon fill="#181818" points="1416.83,900.7637,1420.83,891.7637,1416.83,895.7637,1412.83,891.7637,1416.83,900.7637" style="stroke:#181818;stroke-width:1.0;"/><text fill="#000000" font-family="sans-serif" font-size="13" lengthAdjust="spacing" textLength="27.46" x="1388.83" y="635.832">uses</text></g><!--link StatisticsManager to StatisticsRepository--><g id="link_StatisticsManager_StatisticsRepository"><path codeLine="78" d="M819.67,768.0537 C819.67,802.6637 819.67,860.2037 819.67,894.8837 " fill="none" id="StatisticsManager-to-StatisticsRepository" style="stroke:#181818;stroke-width:1.0;stroke-dasharray:7.0,7.0;"/><polygon fill="#181818" points="819.67,900.8837,823.67,891.8837,819.67,895.8837,815.67,891.8837,819.67,900.8837" style="stroke:#181818;stroke-width:1.0;"/><text fill="#000000" font-family="sans-serif" font-size="13" lengthAdjust="spacing" textLength="27.46" x="791.67" y="830.492">uses</text></g><!--link StatisticsManager to UserRepository--><g id="link_StatisticsManager_UserRepository"><path codeLine="79" d="M867.33,768.2537 C867.33,801.4537 867.33,857.0137 867.33,857.0137 C867.33,857.0137 1196.83,857.0137 1196.83,857.0137 C1196.83,857.0137 1196.83,875.3037 1196.83,894.8437 " fill="none" id="StatisticsManager-to-UserRepository" style="stroke:#181818;stroke-width:1.0;stroke-dasharray:7.0,7.0;"/><polygon fill="#181818" points="1196.83,900.8437,1200.83,891.8437,1196.83,895.8437,1192.83,891.8437,1196.83,900.8437" style="stroke:#181818;stroke-width:1.0;"/><text fill="#000000" font-family="sans-serif" font-size="13" lengthAdjust="spacing" textLength="27.46" x="981.62" y="853.042">uses</text></g><!--link Screens to N1--><g id="link_Screens_N1"><path codeLine="87" d="M765.75,409.5878 C765.75,409.8816 765.75,410.1761 765.75,410.4713 C765.75,411.0618 765.75,411.655 765.75,412.2509 C765.75,414.6345 765.75,417.0603 765.75,419.519 C765.75,429.3539 765.75,439.7146 765.75,449.9974 C765.75,491.1287 765.75,531.0137 765.75,531.0137 C765.75,531.0137 740.76,531.0137 712.85,531.0137 " fill="none" id="Screens-N1" style="stroke:#181818;stroke-width:1.0;stroke-dasharray:7.0,7.0;"/></g><!--link ViewModels to N2--><g id="link_ViewModels_N2"><path codeLine="88" d="M747.5,591.0586 C747.5,591.4675 747.5,591.8781 747.5,592.2905 C747.5,593.1153 747.5,593.9473 747.5,594.786 C747.5,596.4635 747.5,598.1685 747.5,599.8989 C747.5,603.3597 747.5,606.9225 747.5,610.5718 C747.5,617.8703 747.5,625.5149 747.5,633.3823 C747.5,649.1172 747.5,665.7434 747.5,682.2749 C747.5,748.4012 747.5,813.0137 747.5,813.0137 C747.5,813.0137 125.75,813.0137 125.75,813.0137 C125.75,813.0137 125.75,786.7337 125.75,766.6037 " fill="none" id="ViewModels-N2" style="stroke:#181818;stroke-width:1.0;stroke-dasharray:7.0,7.0;"/></g><!--link Managers to N3--><g id="link_Managers_N3"><path codeLine="89" d="M172.5,816.7337 C172.5,817.2529 172.5,817.773 172.5,818.2938 C172.5,819.3354 172.5,820.38 172.5,821.4269 C172.5,825.6148 172.5,829.8408 172.5,834.0681 C172.5,842.5229 172.5,850.9828 172.5,859.1529 C172.5,875.493 172.5,890.6737 172.5,902.3337 " fill="none" id="Managers-N3" style="stroke:#181818;stroke-width:1.0;stroke-dasharray:7.0,7.0;"/></g><!--link Repositories to N4--><g id="link_Repositories_N4"><path codeLine="90" d="M729.5,973.1754 C729.5,977.5539 729.5,981.9386 729.5,986.1882 C729.5,994.6874 729.5,1002.6462 729.5,1008.9337 " fill="none" id="Repositories-N4" style="stroke:#181818;stroke-width:1.0;stroke-dasharray:7.0,7.0;"/></g><!--SRC=[VLLDRzim3BtxLn2v51YM0bjxwg50sW9TiQGR6cIdNXI7TOGwaY79AOAX_tsK_27ATkQJHJwIJyyaVG5BSTArWvqqc3kfLUPq1Kx3LZkd3ynktwMgX147AAL2TweGj75xdMKNiAYgKkR2utn2D5abydTH8CoOQmP_Cw0dBuMri19IBIZrKReJC_yKHybYc8Uip-Gi6lkdhxjv6fRRF7LLUjCwDuZATlQOSEOfGEyM3QVsFCG-YWF2dHPcrq3zkJaEaOlQxPEiti2pVZRa_qZyMEaTbiCxz0wRAaO2z2vczaocxBviJDNKN0b59SomOcks8-t2hPUwaFc4VC4PGrjHEaEFLjeX65ditGtybeN7V8L7acCNNb_LdIXhrvZlQqjTvzzRfL8wf02iqHnbZXFVS-seDQoJkMqv3Fted5J56Uy39UMUzYkzOAMjTDgSXgBr7Xd9IENGl8aSW_enTk3SM3HddKiKEpHRtrjdCV6g31Bu_Y2XvoKUgQqCbc5Mx5vMDkFp1lFvxMZIHe1qu2WtEoK-kBoyvRC3Ds1egQ2TWCMv-H-AZKo44OF6vlTJx7XUECIoCQ7Wsb8egzgH665upOv3d9yEbGmkyUZRFStvPJvFfe72zOUQGh6-EmyQjNPFcbys8DCcxr9osjRpvjsRPkdkpZf_gfY7fNtCnKvnaotDTMVSpfUF-sjyWx50Fi_Kc7JPfYEcRqILm_27NMQpiD7eLmFt-b1fXShPLnNUhTYM26-r2l_CPYa-Vsi3VCLkOHueY3PVRUbVIikdNR4U_Rr5X-twKfT8kH-44_2hGYDOsgiM69oBF0zvFCl6VPrbiPizYKHZNwSNqn-lCgvdC5rd_m00]--></g></svg>