<svg xmlns="http://www.w3.org/2000/svg" xmlns:xlink="http://www.w3.org/1999/xlink" contentStyleType="text/css" height="573.1px" preserveAspectRatio="none" style="width:892px;height:573px;background:#FFFFFF;" version="1.1" viewBox="0 0 892 573" width="892.1px" zoomAndPan="magnify"><defs/><g><!--cluster Authentication--><g id="cluster_Authentication"><rect fill="none" height="558.8" rx="2.75" ry="2.75" style="stroke:#181818;stroke-width:1.1;" width="699.6" x="185.9" y="7.7"/><text fill="#000000" font-family="sans-serif" font-size="15.4" font-weight="bold" lengthAdjust="spacing" textLength="107.7925" x="481.8038" y="26.5182">Authentication</text></g><g id="elem_UC1"><ellipse cx="523.7912" cy="451.8896" fill="#E8F8F5" rx="51.8912" ry="17.9396" style="stroke:#181818;stroke-width:0.55;"/><text fill="#000000" font-family="sans-serif" font-size="15.4" lengthAdjust="spacing" textLength="54.7873" x="493.0976" y="457.1736">Sign Up</text></g><g id="elem_UC2"><ellipse cx="523.6416" cy="296.1695" fill="#E8F8F5" rx="46.7916" ry="17.8695" style="stroke:#181818;stroke-width:0.55;"/><text fill="#000000" font-family="sans-serif" font-size="15.4" lengthAdjust="spacing" textLength="47.9445" x="496.3693" y="301.4536">Sign In</text></g><g id="elem_UC3"><ellipse cx="523.5685" cy="373.8837" fill="#E8F8F5" rx="93.4685" ry="21.3337" style="stroke:#181818;stroke-width:0.55;"/><text fill="#000000" font-family="sans-serif" font-size="15.4" lengthAdjust="spacing" textLength="133.5469" x="453.495" y="379.1678">Sign In with Google</text></g><g id="elem_UC4"><ellipse cx="523.7712" cy="529.0242" fill="#E8F8F5" rx="85.4212" ry="19.7242" style="stroke:#181818;stroke-width:0.55;"/><text fill="#000000" font-family="sans-serif" font-size="15.4" lengthAdjust="spacing" textLength="112.1237" x="464.4094" y="534.3083">Reset Password</text></g><g id="elem_UC5"><ellipse cx="775.7449" cy="452.0714" fill="#E8F8F5" rx="72.2949" ry="18.1214" style="stroke:#181818;stroke-width:0.55;"/><text fill="#000000" font-family="sans-serif" font-size="15.4" lengthAdjust="spacing" textLength="82.1509" x="731.3695" y="457.3555">Verify Email</text></g><g id="elem_UC6"><ellipse cx="523.7697" cy="66.9338" fill="#E8F8F5" rx="55.7197" ry="17.9838" style="stroke:#181818;stroke-width:0.55;"/><text fill="#000000" font-family="sans-serif" font-size="15.4" lengthAdjust="spacing" textLength="59.9231" x="490.5081" y="72.2178">Sign Out</text></g><g id="elem_UC7"><ellipse cx="775.5613" cy="374.2323" fill="#E8F8F5" rx="92.4613" ry="21.1323" style="stroke:#181818;stroke-width:0.55;"/><text fill="#000000" font-family="sans-serif" font-size="15.4" lengthAdjust="spacing" textLength="130.9451" x="706.7887" y="379.5163">Create User Profile</text></g><g id="elem_UC8"><ellipse cx="283.8316" cy="181.5063" fill="#E8F8F5" rx="80.3316" ry="18.7063" style="stroke:#181818;stroke-width:0.55;"/><text fill="#000000" font-family="sans-serif" font-size="15.4" lengthAdjust="spacing" textLength="97.5885" x="231.7374" y="186.7904">Update Profile</text></g><g id="elem_UC9"><ellipse cx="775.3571" cy="181.4714" fill="#E8F8F5" rx="91.1571" ry="20.8714" style="stroke:#181818;stroke-width:0.55;"/><text fill="#000000" font-family="sans-serif" font-size="15.4" lengthAdjust="spacing" textLength="127.5463" x="708.284" y="186.7555">Check Auth Status</text></g><g id="elem_UC10"><ellipse cx="523.439" cy="142.7478" fill="#E8F8F5" rx="81.789" ry="18.9978" style="stroke:#181818;stroke-width:0.55;"/><text fill="#000000" font-family="sans-serif" font-size="15.4" lengthAdjust="spacing" textLength="101.8521" x="469.213" y="148.0319">Edit Username</text></g><g id="elem_UC11"><ellipse cx="523.7436" cy="219.8087" fill="#E8F8F5" rx="82.0936" ry="19.0587" style="stroke:#181818;stroke-width:0.55;"/><text fill="#000000" font-family="sans-serif" font-size="15.4" lengthAdjust="spacing" textLength="102.7318" x="469.0776" y="225.0928">Change Avatar</text></g><g id="elem_UC12"><ellipse cx="283.7663" cy="105.8133" fill="#E8F8F5" rx="78.6163" ry="18.3633" style="stroke:#181818;stroke-width:0.55;"/><text fill="#000000" font-family="sans-serif" font-size="15.4" lengthAdjust="spacing" textLength="92.4451" x="234.2438" y="111.0973">Delete Profile</text></g><!--entity guest--><g id="elem_guest"><ellipse cx="71.9399" cy="378.4" fill="#F1F1F1" rx="8.8" ry="8.8" style="stroke:#181818;stroke-width:0.55;"/><path d="M71.9399,387.2 L71.9399,416.9 M57.6399,396 L86.2399,396 M71.9399,416.9 L57.6399,433.4 M71.9399,416.9 L86.2399,433.4 " fill="none" style="stroke:#181818;stroke-width:0.55;"/><text fill="#000000" font-family="sans-serif" font-size="15.4" lengthAdjust="spacing" textLength="77.8798" x="33" y="451.6682">Guest User</text></g><!--entity auth_user--><g id="elem_auth_user"><ellipse cx="72.0876" cy="71.5" fill="#F1F1F1" rx="8.8" ry="8.8" style="stroke:#181818;stroke-width:0.55;"/><path d="M72.0876,80.3 L72.0876,110 M57.7876,89.1 L86.3876,89.1 M72.0876,110 L57.7876,126.5 M72.0876,110 L86.3876,126.5 " fill="none" style="stroke:#181818;stroke-width:0.55;"/><text fill="#000000" font-family="sans-serif" font-size="15.4" lengthAdjust="spacing" textLength="130.9752" x="6.6" y="144.7682">Authenticated User</text></g><!--link guest to UC1--><g id="link_guest_UC1"><path d="M111.331,441.287 C195.976,441.287 394.944,441.287 481.8,441.287 " fill="none" id="guest-UC1" style="stroke:#181818;stroke-width:1.1;"/></g><!--link guest to UC2--><g id="link_guest_UC2"><path d="M72.6,368.753 C72.6,335.665 72.6,295.9 72.6,295.9 C72.6,295.9 361.097,295.9 476.608,295.9 " fill="none" id="guest-UC2" style="stroke:#181818;stroke-width:1.1;"/></g><!--link guest to UC3--><g id="link_guest_UC3"><path d="M111.331,382.25 C183.535,382.25 338.91,382.25 436.942,382.25 " fill="none" id="guest-UC3" style="stroke:#181818;stroke-width:1.1;"/></g><!--link guest to UC4--><g id="link_guest_UC4"><path d="M111.276,448.613 C208.978,448.613 455.4,448.613 455.4,448.613 C455.4,448.613 455.4,494.362 455.4,516.879 " fill="none" id="guest-UC4" style="stroke:#181818;stroke-width:1.1;"/></g><!--link auth_user to UC6--><g id="link_auth_user_UC6"><path d="M137.709,73.7 C228.085,73.7 389.004,73.7 471.57,73.7 " fill="none" id="auth_user-UC6" style="stroke:#181818;stroke-width:1.1;"/></g><!--link auth_user to UC8--><g id="link_auth_user_UC8"><path d="M124.3,149.314 C124.3,166.188 124.3,181.5 124.3,181.5 C124.3,181.5 163.559,181.5 203.115,181.5 " fill="none" id="auth_user-UC8" style="stroke:#181818;stroke-width:1.1;"/></g><!--link auth_user to UC12--><g id="link_auth_user_UC12"><path d="M137.599,105.6 C158.851,105.6 182.655,105.6 204.787,105.6 " fill="none" id="auth_user-UC12" style="stroke:#181818;stroke-width:1.1;"/></g><!--link UC1 to UC7--><g id="link_UC1_UC7"><path d="M572.462,446.05 C622.842,446.05 694.1,446.05 694.1,446.05 C694.1,446.05 694.1,410.421 694.1,390.621 " fill="none" id="UC1-to-UC7" style="stroke:#181818;stroke-width:1.1;stroke-dasharray:7.0,7.0;"/><polygon fill="#181818" points="694.1,384.021,689.7,393.921,694.1,389.521,698.5,393.921,694.1,384.021" style="stroke:#181818;stroke-width:1.1;"/><text fill="#000000" font-family="sans-serif" font-size="14.3" lengthAdjust="spacing" textLength="61.2219" x="602.69" y="441.6812">&#171;include&#187;</text></g><!--link UC1 to UC5--><g id="link_UC1_UC5"><path d="M572.473,458.15 C610.808,458.15 658.042,458.15 700.645,458.15 " fill="none" id="UC1-to-UC5" style="stroke:#181818;stroke-width:1.1;stroke-dasharray:7.0,7.0;"/><polygon fill="#181818" points="707.245,458.15,697.345,453.75,701.745,458.15,697.345,462.55,707.245,458.15" style="stroke:#181818;stroke-width:1.1;"/><text fill="#000000" font-family="sans-serif" font-size="14.3" lengthAdjust="spacing" textLength="61.2219" x="578.259" y="474.6812">&#171;include&#187;</text></g><!--link UC2 to UC9--><g id="link_UC2_UC9"><path d="M567.765,290.037 C640.013,290.037 775.5,290.037 775.5,290.037 C775.5,290.037 775.5,240.57 775.5,209.022 " fill="none" id="UC2-to-UC9" style="stroke:#181818;stroke-width:1.1;stroke-dasharray:7.0,7.0;"/><polygon fill="#181818" points="775.5,202.422,771.1,212.322,775.5,207.922,779.9,212.322,775.5,202.422" style="stroke:#181818;stroke-width:1.1;"/><text fill="#000000" font-family="sans-serif" font-size="14.3" lengthAdjust="spacing" textLength="61.2219" x="653.84" y="306.5682">&#171;include&#187;</text></g><!--link UC3 to UC7--><g id="link_UC3_UC7"><path d="M617.397,374 C638.803,374 654.929,374 676.28,374 " fill="none" id="UC3-to-UC7" style="stroke:#181818;stroke-width:1.1;stroke-dasharray:7.0,7.0;"/><polygon fill="#181818" points="682.88,374,672.98,369.6,677.38,374,672.98,378.4,682.88,374" style="stroke:#181818;stroke-width:1.1;"/><text fill="#000000" font-family="sans-serif" font-size="14.3" lengthAdjust="spacing" textLength="61.2219" x="588.544" y="369.6312">&#171;include&#187;</text></g><!--link UC6 to UC9--><g id="link_UC6_UC9"><path d="M579.194,67.1 C653.378,67.1 775.5,67.1 775.5,67.1 C775.5,67.1 775.5,120.89 775.5,153.912 " fill="none" id="UC6-to-UC9" style="stroke:#181818;stroke-width:1.1;stroke-dasharray:7.0,7.0;"/><polygon fill="#181818" points="775.5,160.512,779.9,150.612,775.5,155.012,771.1,150.612,775.5,160.512" style="stroke:#181818;stroke-width:1.1;"/><text fill="#000000" font-family="sans-serif" font-size="14.3" lengthAdjust="spacing" textLength="61.2219" x="662.453" y="83.6312">&#171;include&#187;</text></g><!--link UC8 to UC10--><g id="link_UC8_UC10"><path d="M283.8,162.712 C283.8,158.708 283.8,155.65 283.8,155.65 C283.8,155.65 383.878,155.65 454.938,155.65 " fill="none" id="UC8-to-UC10" style="stroke:#181818;stroke-width:1.1;stroke-dasharray:7.0,7.0;"/><polygon fill="#181818" points="461.538,155.65,451.638,151.25,456.038,155.65,451.638,160.05,461.538,155.65" style="stroke:#181818;stroke-width:1.1;"/><text fill="#000000" font-family="sans-serif" font-size="14.3" lengthAdjust="spacing" textLength="61.2219" x="370.238" y="172.1812">&#171;include&#187;</text></g><!--link UC8 to UC11--><g id="link_UC8_UC11"><path d="M283.8,200.299 C283.8,210.067 283.8,220 283.8,220 C283.8,220 365.398,220 434.808,220 " fill="none" id="UC8-to-UC11" style="stroke:#181818;stroke-width:1.1;stroke-dasharray:7.0,7.0;"/><polygon fill="#181818" points="441.408,220,431.508,215.6,435.908,220,431.508,224.4,441.408,220" style="stroke:#181818;stroke-width:1.1;"/><text fill="#000000" font-family="sans-serif" font-size="14.3" lengthAdjust="spacing" textLength="61.2219" x="291.159" y="236.5312">&#171;include&#187;</text></g><!--link UC12 to UC6--><g id="link_UC12_UC6"><path d="M362.648,105.6 C432.542,105.6 523.6,105.6 523.6,105.6 C523.6,105.6 523.6,101.959 523.6,92.048 " fill="none" id="UC12-to-UC6" style="stroke:#181818;stroke-width:1.1;stroke-dasharray:7.0,7.0;"/><polygon fill="#181818" points="523.6,85.448,519.2,95.348,523.6,90.948,528,95.348,523.6,85.448" style="stroke:#181818;stroke-width:1.1;"/><text fill="#000000" font-family="sans-serif" font-size="14.3" lengthAdjust="spacing" textLength="61.2219" x="391.6" y="101.2312">&#171;include&#187;</text></g><!--link UC4 to UC2--><g id="link_UC4_UC2"><path d="M609.026,529.1 C631.752,529.1 650.1,529.1 650.1,529.1 C650.1,529.1 650.1,301.763 650.1,301.763 C650.1,301.763 610.918,301.763 574.442,301.763 " fill="none" id="UC4-to-UC2" style="stroke:#181818;stroke-width:1.1;stroke-dasharray:7.0,7.0;"/><polygon fill="#181818" points="567.842,301.763,577.742,306.163,573.342,301.763,577.742,297.363,567.842,301.763" style="stroke:#181818;stroke-width:1.1;"/><text fill="#000000" font-family="sans-serif" font-size="14.3" lengthAdjust="spacing" textLength="58.8409" x="651.2" y="411.3762">&#171;extend&#187;</text></g><!--link UC3 to UC2--><g id="link_UC3_UC2"><path d="M523.6,352.242 C523.6,340.153 523.6,331.881 523.6,320.452 " fill="none" id="UC3-to-UC2" style="stroke:#181818;stroke-width:1.1;stroke-dasharray:7.0,7.0;"/><polygon fill="#181818" points="523.6,313.852,519.2,323.752,523.6,319.352,528,323.752,523.6,313.852" style="stroke:#181818;stroke-width:1.1;"/><text fill="#000000" font-family="sans-serif" font-size="14.3" lengthAdjust="spacing" textLength="58.8409" x="524.7" y="333.9032">&#171;extend&#187;</text></g><!--SRC=[TPBBRjim44Nt_8g1kyZARkHNbI8muBfEa5M36Ews8AInH9Wc1NAKn0ZoxwLeoj73raOOtiFBUTsK5XDkyJilAVyNWb5H7YHZ4dS4fC68B2T8XS64X5RCxeKgkE47A7Yovnbkw2WHAfchJ683s5fSESDVZikCBbMwqb8R-BQE7-A7MGEKGY4T2mHjADUCiHjO9gIDPRpwmU2nH4kLdna0jv1LOQqjNUweI2ISCFrYwf8CO-VSMh0hPW0V3DmNAeV1HcGAjeKtsAwY2-AJ2kBueWXlWd9urDgz5i196tn1YmJFtDetRTB0JDlCNpHYTuJrWGiPYDc5v_wK5DHvMrqPTCtmlO1detVYdCoFDhWjqWfiCt77BCTa3rNZO4ESIXkmkpQsJiLfGeeVQgVejclbne2mVEN4JSrqklmR9VPIYiRiizgAhprm2oVz36qk2ilyHi1mEFHZgoC_faOmQGPJlsQzvUaOdzVeT6dUFOYx1ovLv_ka4bccs35pAen6YseEy1FkxyM9MYmQogodZ8DorrCcLztcL-_4GObkhqjHFxiwYNb7ShMktmbLsYjr2lx2s5z0pzH9NpZ_3m00]--></g></svg>