<svg xmlns="http://www.w3.org/2000/svg" xmlns:xlink="http://www.w3.org/1999/xlink" contentStyleType="text/css" height="887px" preserveAspectRatio="none" style="width:612px;height:887px;background:#FFFFFF;" version="1.1" viewBox="0 0 612 887" width="612px" zoomAndPan="magnify"><defs/><g><!--cluster Dice Game System--><g id="cluster_Dice Game System"><rect fill="none" height="874" rx="2.5" ry="2.5" style="stroke:#181818;stroke-width:1.0;" width="513" x="93" y="7"/><text fill="#000000" font-family="sans-serif" font-size="14" font-weight="bold" lengthAdjust="spacing" textLength="126.0684" x="286.4658" y="24.1074">Dice Game System</text></g><g id="elem_UC1"><ellipse cx="209.1234" cy="488.8247" fill="#E8F8F5" rx="74.6234" ry="17.3247" style="stroke:#181818;stroke-width:0.5;"/><text fill="#000000" font-family="sans-serif" font-size="14" lengthAdjust="spacing" textLength="93.3721" x="159.4374" y="493.6284">Play Pig Game</text></g><g id="elem_UC2"><ellipse cx="208.8903" cy="346.1781" fill="#E8F8F5" rx="81.3903" ry="18.6781" style="stroke:#181818;stroke-width:0.5;"/><text fill="#000000" font-family="sans-serif" font-size="14" lengthAdjust="spacing" textLength="112.0479" x="149.8663" y="350.9818">Play Greed Game</text></g><g id="elem_UC3"><ellipse cx="208.7899" cy="418.158" fill="#E8F8F5" rx="78.7899" ry="18.158" style="stroke:#181818;stroke-width:0.5;"/><text fill="#000000" font-family="sans-serif" font-size="14" lengthAdjust="spacing" textLength="105.0479" x="153.266" y="422.9617">Play Balut Game</text></g><g id="elem_UC4"><ellipse cx="208.958" cy="560.8916" fill="#E8F8F5" rx="84.958" ry="19.3916" style="stroke:#181818;stroke-width:0.5;"/><text fill="#000000" font-family="sans-serif" font-size="14" lengthAdjust="spacing" textLength="121.3721" x="145.272" y="565.6953">Play Custom Game</text></g><g id="elem_UC5"><ellipse cx="208.8009" cy="767.8609" fill="#E8F8F5" rx="51.8009" ry="16.3609" style="stroke:#181818;stroke-width:0.5;"/><text fill="#000000" font-family="sans-serif" font-size="14" lengthAdjust="spacing" textLength="56.0137" x="177.7941" y="772.6647">Roll Dice</text></g><g id="elem_UC6"><ellipse cx="208.7872" cy="631.8946" fill="#E8F8F5" rx="55.2872" ry="16.3946" style="stroke:#181818;stroke-width:0.5;"/><text fill="#000000" font-family="sans-serif" font-size="14" lengthAdjust="spacing" textLength="60.6895" x="175.4424" y="636.6983">Hold Dice</text></g><g id="elem_UC7"><ellipse cx="208.9994" cy="699.9627" fill="#E8F8F5" rx="63.9994" ry="16.4627" style="stroke:#181818;stroke-width:0.5;"/><text fill="#000000" font-family="sans-serif" font-size="14" lengthAdjust="spacing" textLength="72.3721" x="169.8133" y="704.7664">Bank Score</text></g><g id="elem_UC8"><ellipse cx="209.0488" cy="61.1098" fill="#E8F8F5" rx="73.5488" ry="17.1098" style="stroke:#181818;stroke-width:0.5;"/><text fill="#000000" font-family="sans-serif" font-size="14" lengthAdjust="spacing" textLength="90.248" x="160.9248" y="65.9135">View Statistics</text></g><g id="elem_UC9"><ellipse cx="503.966" cy="417.8932" fill="#E8F8F5" rx="84.966" ry="19.3932" style="stroke:#181818;stroke-width:0.5;"/><text fill="#000000" font-family="sans-serif" font-size="14" lengthAdjust="spacing" textLength="121.3926" x="440.2697" y="422.6969">Earn Achievements</text></g><g id="elem_UC10"><ellipse cx="209.1479" cy="131.8296" fill="#E8F8F5" rx="79.6479" ry="18.3296" style="stroke:#181818;stroke-width:0.5;"/><text fill="#000000" font-family="sans-serif" font-size="14" lengthAdjust="spacing" textLength="107.3789" x="152.4585" y="136.6333">Use Virtual Mode</text></g><g id="elem_UC11"><ellipse cx="504.1803" cy="96.1361" fill="#E8F8F5" rx="86.1803" ry="19.6361" style="stroke:#181818;stroke-width:0.5;"/><text fill="#000000" font-family="sans-serif" font-size="14" lengthAdjust="spacing" textLength="124.5029" x="438.9288" y="100.9398">Capture Dice Image</text></g><g id="elem_UC12"><ellipse cx="504.061" cy="170.2122" fill="#E8F8F5" rx="84.061" ry="19.2122" style="stroke:#181818;stroke-width:0.5;"/><text fill="#000000" font-family="sans-serif" font-size="14" lengthAdjust="spacing" textLength="119.0547" x="441.5336" y="175.0159">Detect Dice Values</text></g><g id="elem_UC13"><ellipse cx="208.8877" cy="204.1775" fill="#E8F8F5" rx="81.3877" ry="18.6775" style="stroke:#181818;stroke-width:0.5;"/><text fill="#000000" font-family="sans-serif" font-size="14" lengthAdjust="spacing" textLength="112.041" x="149.8672" y="208.9812">View Game Rules</text></g><g id="elem_UC14"><ellipse cx="208.9932" cy="275.0986" fill="#E8F8F5" rx="75.9932" ry="17.5986" style="stroke:#181818;stroke-width:0.5;"/><text fill="#000000" font-family="sans-serif" font-size="14" lengthAdjust="spacing" textLength="97.2822" x="157.3521" y="279.9024">Toggle Settings</text></g><g id="elem_UC15"><ellipse cx="208.9203" cy="841.8841" fill="#E8F8F5" rx="99.9203" ry="22.3841" style="stroke:#181818;stroke-width:0.5;"/><text fill="#000000" font-family="sans-serif" font-size="14" lengthAdjust="spacing" textLength="157.9512" x="128.8149" y="846.0934">Make Strategic Decisions</text></g><!--entity player--><g id="elem_player"><ellipse cx="25.8413" cy="387" fill="#F1F1F1" rx="8" ry="8" style="stroke:#181818;stroke-width:0.5;"/><path d="M25.8413,395 L25.8413,422 M12.8413,403 L38.8413,403 M25.8413,422 L12.8413,437 M25.8413,422 L38.8413,437 " fill="none" style="stroke:#181818;stroke-width:0.5;"/><text fill="#000000" font-family="sans-serif" font-size="14" lengthAdjust="spacing" textLength="39.6826" x="6" y="453.6074">Player</text></g><!--entity ai--><g id="elem_ai"><ellipse cx="26" cy="721" fill="#F1F1F1" rx="8" ry="8" style="stroke:#181818;stroke-width:0.5;"/><path d="M26,729 L26,756 M13,737 L39,737 M26,756 L13,771 M26,756 L39,771 " fill="none" style="stroke:#181818;stroke-width:0.5;"/><text fill="#000000" font-family="sans-serif" font-size="14" lengthAdjust="spacing" textLength="13.2275" x="19.3862" y="787.6074">AI</text></g><!--link player to UC1--><g id="link_player_UC1"><path d="M46.18,431.3 C57.17,438.47 71.43,447.04 85,453 C107.31,462.8 127.2354,469.2434 149.3854,475.1934 " fill="none" id="player-to-UC1" style="stroke:#181818;stroke-width:1.0;"/><polygon fill="#181818" points="155.18,476.75,147.5258,470.5521,150.3512,475.4529,145.4504,478.2782,155.18,476.75" style="stroke:#181818;stroke-width:1.0;"/></g><!--link player to UC2--><g id="link_player_UC2"><path d="M46.13,404.29 C57.1,396.91 71.37,388.09 85,382 C106.03,372.61 124.3725,366.5128 145.6525,360.6928 " fill="none" id="player-to-UC2" style="stroke:#181818;stroke-width:1.0;"/><polygon fill="#181818" points="151.44,359.11,141.7036,357.626,146.6171,360.429,143.8141,365.3426,151.44,359.11" style="stroke:#181818;stroke-width:1.0;"/></g><!--link player to UC3--><g id="link_player_UC3"><path d="M46.03,418 C66.09,418 93.01,418 123.95,418 " fill="none" id="player-to-UC3" style="stroke:#181818;stroke-width:1.0;"/><polygon fill="#181818" points="129.95,418,120.95,414,124.95,418,120.95,422,129.95,418" style="stroke:#181818;stroke-width:1.0;"/></g><!--link player to UC4--><g id="link_player_UC4"><path d="M40.03,457.54 C49.3,479.97 63.9,506.89 85,524 C100.24,536.36 113.7813,542.9056 132.5513,548.3956 " fill="none" id="player-to-UC4" style="stroke:#181818;stroke-width:1.0;"/><polygon fill="#181818" points="138.31,550.08,130.7948,543.7143,133.5111,548.6764,128.549,551.3926,138.31,550.08" style="stroke:#181818;stroke-width:1.0;"/></g><!--link player to UC5--><g id="link_player_UC5"><path d="M29.13,457.6 C34,533.2 48.47,694.09 85,734 C103.25,753.94 126.1006,761.7395 151.2406,765.3395 " fill="none" id="player-to-UC5" style="stroke:#181818;stroke-width:1.0;"/><polygon fill="#181818" points="157.18,766.19,148.8379,760.9546,152.2305,765.4812,147.7039,768.8738,157.18,766.19" style="stroke:#181818;stroke-width:1.0;"/></g><!--link player to UC6--><g id="link_player_UC6"><path d="M40.48,457.55 C50.8,488.15 65.21,531.63 77,570 C80.8,582.37 75.81,588.89 85,598 C103.25,616.09 124.3047,623.7656 148.3347,627.8456 " fill="none" id="player-to-UC6" style="stroke:#181818;stroke-width:1.0;"/><polygon fill="#181818" points="154.25,628.85,146.0466,623.3999,149.3205,628.013,144.7074,631.287,154.25,628.85" style="stroke:#181818;stroke-width:1.0;"/></g><!--link player to UC7--><g id="link_player_UC7"><path d="M31.34,457.59 C38.94,519.81 56.62,636.47 85,666 C101.12,682.77 118.8279,690.3262 141.0379,694.7962 " fill="none" id="player-to-UC7" style="stroke:#181818;stroke-width:1.0;"/><polygon fill="#181818" points="146.92,695.98,138.8861,690.2829,142.0183,694.9935,137.3077,698.1256,146.92,695.98" style="stroke:#181818;stroke-width:1.0;"/></g><!--link player to UC8--><g id="link_player_UC8"><path d="M29.01,378.27 C33.7,301.55 47.92,136.95 85,96 C99.01,80.53 113.4863,73.1436 133.5763,68.1636 " fill="none" id="player-to-UC8" style="stroke:#181818;stroke-width:1.0;"/><polygon fill="#181818" points="139.4,66.72,129.702,65.0029,134.5469,67.923,131.6268,72.7679,139.4,66.72" style="stroke:#181818;stroke-width:1.0;"/></g><!--link player to UC10--><g id="link_player_UC10"><path d="M31.32,378.4 C38.92,315.81 56.62,198.04 85,168 C98.52,153.69 111.6221,146.5872 130.5221,141.2972 " fill="none" id="player-to-UC10" style="stroke:#181818;stroke-width:1.0;"/><polygon fill="#181818" points="136.3,139.68,126.5549,138.2539,131.485,141.0277,128.7112,145.9578,136.3,139.68" style="stroke:#181818;stroke-width:1.0;"/></g><!--link player to UC13--><g id="link_player_UC13"><path d="M29.43,378.46 C34.02,338.21 47.21,276.66 85,240 C98.97,226.44 111.9884,219.5898 130.6784,214.2798 " fill="none" id="player-to-UC13" style="stroke:#181818;stroke-width:1.0;"/><polygon fill="#181818" points="136.45,212.64,126.6994,211.2519,131.6403,214.0065,128.8858,218.9474,136.45,212.64" style="stroke:#181818;stroke-width:1.0;"/></g><!--link player to UC14--><g id="link_player_UC14"><path d="M39.44,378.4 C48.6,355.35 63.28,327.48 85,310 C101.35,296.85 116.5674,290.1279 136.6074,284.9979 " fill="none" id="player-to-UC14" style="stroke:#181818;stroke-width:1.0;"/><polygon fill="#181818" points="142.42,283.51,132.7092,281.8669,137.5762,284.75,134.6931,289.617,142.42,283.51" style="stroke:#181818;stroke-width:1.0;"/></g><!--link ai to UC5--><g id="link_ai_UC5"><path d="M39.73,753.13 C64.03,755.27 112.2333,759.5312 152.5833,763.1012 " fill="none" id="ai-to-UC5" style="stroke:#181818;stroke-width:1.0;"/><polygon fill="#181818" points="158.56,763.63,149.9475,758.8524,153.5795,763.1893,149.2425,766.8213,158.56,763.63" style="stroke:#181818;stroke-width:1.0;"/></g><!--link ai to UC6--><g id="link_ai_UC6"><path d="M39.54,723.69 C49.33,704.72 64.68,680.62 85,666 C105.95,650.93 127.4242,643.6952 151.0142,639.0252 " fill="none" id="ai-to-UC6" style="stroke:#181818;stroke-width:1.0;"/><polygon fill="#181818" points="156.9,637.86,147.2946,635.6839,151.9952,638.831,148.8481,643.5316,156.9,637.86" style="stroke:#181818;stroke-width:1.0;"/></g><!--link ai to UC7--><g id="link_ai_UC7"><path d="M39.87,747.88 C51.6,744.16 69.42,738.57 85,734 C111.15,726.33 134.7802,719.7543 158.2802,713.3643 " fill="none" id="ai-to-UC7" style="stroke:#181818;stroke-width:1.0;"/><polygon fill="#181818" points="164.07,711.79,154.3358,710.2916,159.2452,713.1019,156.4349,718.0113,164.07,711.79" style="stroke:#181818;stroke-width:1.0;"/></g><!--link ai to UC15--><g id="link_ai_UC15"><path d="M39.66,765.58 C50.7,776.73 67.62,792.21 85,802 C102.22,811.7 116.4172,817.6159 135.1372,823.6259 " fill="none" id="ai-to-UC15" style="stroke:#181818;stroke-width:1.0;"/><polygon fill="#181818" points="140.85,825.46,133.5035,818.9003,136.0893,823.9316,131.0581,826.5174,140.85,825.46" style="stroke:#181818;stroke-width:1.0;"/></g><!--link UC10 to UC11--><g id="link_UC10_UC11"><path d="M279.81,123.42 C324.49,117.93 376.4848,111.5418 422.1348,105.9318 " fill="none" id="UC10-to-UC11" style="stroke:#181818;stroke-width:1.0;stroke-dasharray:7.0,7.0;"/><polygon fill="#181818" points="428.09,105.2,418.6693,102.3276,423.1273,105.8099,419.6451,110.2679,428.09,105.2" style="stroke:#181818;stroke-width:1.0;"/><text fill="#000000" font-family="sans-serif" font-size="13" lengthAdjust="spacing" textLength="47.6963" x="340" y="107.0283">includes</text></g><!--link UC10 to UC12--><g id="link_UC10_UC12"><path d="M278.7,140.91 C324.36,146.83 378.2898,153.8282 424.6998,159.8482 " fill="none" id="UC10-to-UC12" style="stroke:#181818;stroke-width:1.0;stroke-dasharray:7.0,7.0;"/><polygon fill="#181818" points="430.65,160.62,422.2393,155.4955,425.6915,159.9768,421.2102,163.429,430.65,160.62" style="stroke:#181818;stroke-width:1.0;"/><text fill="#000000" font-family="sans-serif" font-size="13" lengthAdjust="spacing" textLength="47.6963" x="340" y="146.0283">includes</text></g><!--link UC1 to UC9--><g id="link_UC1_UC9"><path d="M261.37,476.55 C312.66,464.12 385.5187,446.4626 439.0587,433.4926 " fill="none" id="UC1-to-UC9" style="stroke:#181818;stroke-width:1.0;stroke-dasharray:7.0,7.0;"/><polygon fill="#181818" points="444.89,432.08,435.2012,430.3114,440.0306,433.2572,437.0848,438.0865,444.89,432.08" style="stroke:#181818;stroke-width:1.0;"/><text fill="#000000" font-family="sans-serif" font-size="13" lengthAdjust="spacing" textLength="45.5317" x="341" y="444.0283">extends</text></g><!--link UC2 to UC9--><g id="link_UC2_UC9"><path d="M265.11,359.54 C316.58,372.19 387.2832,389.5687 439.5532,402.4087 " fill="none" id="UC2-to-UC9" style="stroke:#181818;stroke-width:1.0;stroke-dasharray:7.0,7.0;"/><polygon fill="#181818" points="445.38,403.84,437.5941,397.8085,440.5244,402.6472,435.6856,405.5775,445.38,403.84" style="stroke:#181818;stroke-width:1.0;"/><text fill="#000000" font-family="sans-serif" font-size="13" lengthAdjust="spacing" textLength="45.5317" x="341" y="376.0283">extends</text></g><!--link UC3 to UC9--><g id="link_UC3_UC9"><path d="M288.13,418 C328.48,418 371.75,418 412.92,418 " fill="none" id="UC3-to-UC9" style="stroke:#181818;stroke-width:1.0;stroke-dasharray:7.0,7.0;"/><polygon fill="#181818" points="418.92,418,409.92,414,413.92,418,409.92,422,418.92,418" style="stroke:#181818;stroke-width:1.0;"/><text fill="#000000" font-family="sans-serif" font-size="13" lengthAdjust="spacing" textLength="45.5317" x="341" y="414.0283">extends</text></g><!--SRC=[RP9DJyCm38Rl-HNME8DOnpxWWCGwlWv8YCBkLcfAj3IP4XUO4F-Tj6nTKpKdltuVsObZJUyCRC6fueCXLuuaAsk4toYpHOSbR55kiA2CTvgWjj4KcZh0cwSKFIq3LpXRcJorsZeukLtSBUwcGg3a89yrxiW1UjWsqJvzyrYdK0dHbeRHIac2Uom9ifrdAaVm8o2SofCCdM1K5uDdLJJGgAxmbeu7a7j7b7UXP01Qegwu2qq6eBJoRCikTH5JBrPhg2- -jwUn_M1rthLdiRr4iu5CMdVmvx6_LlG56IChpqhwFRI8eLjq1cxaXw9FAidm0RkCiV1Vi5QEAzJmPFDsVkSnbkAMAqVDfU6n32jm07kJNX67h_ldrc6MTEWxJWOUqNphIwMFL6_ShxQebo0ZPcMAbkgD-matWM67J8MIi2AfVDZR5f-ANo7-DmrEJw-R_OXa4ij9B2zYEOtbB9RpM2vwVSzxkjSgl4oWQXkruUmOpezXU9YeQyBPMIF7S0NAI5tbv2CZwHdx_6L8qpUJoUjiCfYT36J_0000]--></g></svg>