<svg xmlns="http://www.w3.org/2000/svg" xmlns:xlink="http://www.w3.org/1999/xlink" contentStyleType="text/css" height="406.8px" preserveAspectRatio="none" style="width:900px;height:406px;background:#FFFFFF;" version="1.1" viewBox="0 0 900 406" width="900px" zoomAndPan="magnify"><defs/><g><!--cluster Game System--><g id="cluster_Game System"><rect fill="none" height="368.1" rx="2.25" ry="2.25" style="stroke:#181818;stroke-width:0.9;" width="762.3" x="132.3" y="6.3"/><text fill="#000000" font-family="sans-serif" font-size="12.6" font-weight="bold" lengthAdjust="spacing" textLength="83.3458" x="471.7771" y="21.6967">Game System</text></g><!--cluster Board Selection--><g id="cluster_Board Selection"><rect fill="none" height="306" rx="2.25" ry="2.25" style="stroke:#181818;stroke-width:0.9;" width="186.3" x="153.9" y="46.8"/><text fill="#000000" font-family="sans-serif" font-size="12.6" font-weight="bold" lengthAdjust="spacing" textLength="95.9212" x="199.0894" y="62.1967">Board Selection</text></g><!--cluster Gameplay--><g id="cluster_Gameplay"><rect fill="none" height="243.9" rx="2.25" ry="2.25" style="stroke:#181818;stroke-width:0.9;" width="452.7" x="420.3" y="78.3"/><text fill="#000000" font-family="sans-serif" font-size="12.6" font-weight="bold" lengthAdjust="spacing" textLength="60.2314" x="616.5343" y="93.6967">Gameplay</text></g><g id="elem_UC1"><ellipse cx="246.8761" cy="95.3988" fill="#E8F8F5" rx="62.8261" ry="14.8488" style="stroke:#181818;stroke-width:0.45;"/><text fill="#000000" font-family="sans-serif" font-size="12.6" lengthAdjust="spacing" textLength="72.1424" x="208.1049" y="99.7222">Select Board</text></g><g id="elem_UC2"><ellipse cx="247.2536" cy="173.9207" fill="#E8F8F5" rx="64.5536" ry="15.0707" style="stroke:#181818;stroke-width:0.45;"/><text fill="#000000" font-family="sans-serif" font-size="12.6" lengthAdjust="spacing" textLength="76.3383" x="206.3844" y="178.2441">View Settings</text></g><g id="elem_UC3"><ellipse cx="246.9725" cy="254.5945" fill="#E8F8F5" rx="78.6725" ry="17.8945" style="stroke:#181818;stroke-width:0.45;"/><text fill="#000000" font-family="sans-serif" font-size="12.6" lengthAdjust="spacing" textLength="114.8704" x="186.8373" y="258.9178">Change Board Color</text></g><g id="elem_UC4"><ellipse cx="246.9489" cy="321.4598" fill="#E8F8F5" rx="73.2489" ry="16.8098" style="stroke:#181818;stroke-width:0.45;"/><text fill="#000000" font-family="sans-serif" font-size="12.6" lengthAdjust="spacing" textLength="100.8369" x="193.8305" y="325.7831">View Game Rules</text></g><g id="elem_UC5"><ellipse cx="491.7671" cy="128.6628" fill="#E8F8F5" rx="57.0671" ry="14.8128" style="stroke:#181818;stroke-width:0.45;"/><text fill="#000000" font-family="sans-serif" font-size="12.6" lengthAdjust="spacing" textLength="64.4212" x="456.8566" y="132.9861">Start Game</text></g><g id="elem_UC6"><ellipse cx="756.2708" cy="126.7748" fill="#E8F8F5" rx="46.6208" ry="14.7248" style="stroke:#181818;stroke-width:0.45;"/><text fill="#000000" font-family="sans-serif" font-size="12.6" lengthAdjust="spacing" textLength="50.4123" x="728.3647" y="131.0982">Roll Dice</text></g><g id="elem_UC7"><ellipse cx="756.4684" cy="210.7837" fill="#E8F8F5" rx="93.6184" ry="20.8837" style="stroke:#181818;stroke-width:0.45;"/><text fill="#000000" font-family="sans-serif" font-size="12.6" lengthAdjust="spacing" textLength="150.5786" x="681.1791" y="214.2009">Bank or Save Score Points</text></g><g id="elem_UC8"><ellipse cx="491.7925" cy="276.24" fill="#E8F8F5" rx="53.9425" ry="14.79" style="stroke:#181818;stroke-width:0.45;"/><text fill="#000000" font-family="sans-serif" font-size="12.6" lengthAdjust="spacing" textLength="60.2314" x="458.9768" y="280.5634">End Game</text></g><g id="elem_UC9"><ellipse cx="756.4035" cy="285.3807" fill="#E8F8F5" rx="102.1035" ry="22.5807" style="stroke:#181818;stroke-width:0.45;"/><text fill="#000000" font-family="sans-serif" font-size="12.6" lengthAdjust="spacing" textLength="169.4848" x="671.6611" y="288.7979">Update Statistics and Analysis</text></g><!--entity player--><g id="elem_player"><ellipse cx="23.2572" cy="255.6" fill="#F1F1F1" rx="7.2" ry="7.2" style="stroke:#181818;stroke-width:0.45;"/><path d="M23.2572,262.8 L23.2572,287.1 M11.5572,270 L34.9572,270 M23.2572,287.1 L11.5572,300.6 M23.2572,287.1 L34.9572,300.6 " fill="none" style="stroke:#181818;stroke-width:0.45;"/><text fill="#000000" font-family="sans-serif" font-size="12.6" lengthAdjust="spacing" textLength="35.7144" x="5.4" y="315.5467">Player</text></g><!--link player to UC1--><g id="link_player_UC1"><path d="M41.517,249.138 C58.815,217.71 88.173,171.864 125.1,143.1 C147.825,125.406 177.939,113.499 202.446,106.011 " fill="none" id="player-UC1" style="stroke:#181818;stroke-width:0.9;"/></g><!--link player to UC5--><g id="link_player_UC5"><path d="M41.454,300.231 C60.219,317.241 92.043,342.531 125.1,352.8 C219.456,382.104 261.189,401.058 347.4,352.8 C396.126,325.53 383.031,292.752 413.1,245.7 C436.878,208.494 465.948,165.411 480.942,143.361 " fill="none" id="player-UC5" style="stroke:#181818;stroke-width:0.9;"/></g><!--link UC2 to UC1--><g id="link_UC2_UC1"><path d="M247.05,158.607 C247.05,144.738 247.05,129.699 247.05,115.848 " fill="none" id="UC2-to-UC1" style="stroke:#181818;stroke-width:0.9;stroke-dasharray:7.0,7.0;"/><polygon fill="#181818" points="247.05,110.448,243.45,118.548,247.05,114.948,250.65,118.548,247.05,110.448" style="stroke:#181818;stroke-width:0.9;"/><text fill="#000000" font-family="sans-serif" font-size="11.7" lengthAdjust="spacing" textLength="48.1425" x="211.95" y="139.5255">&#171;extend&#187;</text></g><!--link UC3 to UC2--><g id="link_UC3_UC2"><path d="M247.05,236.322 C247.05,221.94 247.05,207.603 247.05,194.157 " fill="none" id="UC3-to-UC2" style="stroke:#181818;stroke-width:0.9;stroke-dasharray:7.0,7.0;"/><polygon fill="#181818" points="247.05,188.757,243.45,196.857,247.05,193.257,250.65,196.857,247.05,188.757" style="stroke:#181818;stroke-width:0.9;"/><text fill="#000000" font-family="sans-serif" font-size="11.7" lengthAdjust="spacing" textLength="48.1425" x="211.95" y="217.6005">&#171;extend&#187;</text></g><!--link UC4 to UC2--><g id="link_UC4_UC2"><path d="M177.912,315.522 C145.305,308.556 110.646,293.697 97.2,262.35 C77.751,216.999 138.7708,194.5958 189.3598,183.4808 " fill="none" id="UC4-to-UC2" style="stroke:#181818;stroke-width:0.9;stroke-dasharray:7.0,7.0;"/><polygon fill="#181818" points="194.634,182.322,185.9502,180.5441,190.2388,183.2877,187.4952,187.5763,194.634,182.322" style="stroke:#181818;stroke-width:0.9;"/><text fill="#000000" font-family="sans-serif" font-size="11.7" lengthAdjust="spacing" textLength="48.1425" x="69.3" y="258.7755">&#171;extend&#187;</text></g><!--link UC5 to UC6--><g id="link_UC5_UC6"><path d="M549.126,128.313 C596.934,127.989 659.2771,127.558 703.9351,127.252 " fill="none" id="UC5-to-UC6" style="stroke:#181818;stroke-width:0.9;stroke-dasharray:7.0,7.0;"/><polygon fill="#181818" points="709.335,127.215,701.2105,123.6706,704.8351,127.2458,701.2599,130.8704,709.335,127.215" style="stroke:#181818;stroke-width:0.9;"/><text fill="#000000" font-family="sans-serif" font-size="11.7" lengthAdjust="spacing" textLength="50.0906" x="576.9" y="124.2255">&#171;include&#187;</text></g><!--link UC8 to UC9--><g id="link_UC8_UC9"><path d="M545.616,278.109 C577.089,279.189 612.6692,280.4085 650.0552,281.6865 " fill="none" id="UC8-to-UC9" style="stroke:#181818;stroke-width:0.9;stroke-dasharray:7.0,7.0;"/><polygon fill="#181818" points="655.452,281.871,647.4797,277.9964,650.9546,281.7173,647.2337,285.1922,655.452,281.871" style="stroke:#181818;stroke-width:0.9;"/><text fill="#000000" font-family="sans-serif" font-size="11.7" lengthAdjust="spacing" textLength="50.0906" x="576.9" y="275.4255">&#171;include&#187;</text></g><!--link UC7 to UC6--><g id="link_UC7_UC6"><path d="M756.45,189.477 C756.45,174.663 756.45,160.605 756.45,147.339 " fill="none" id="UC7-to-UC6" style="stroke:#181818;stroke-width:0.9;stroke-dasharray:7.0,7.0;"/><polygon fill="#181818" points="756.45,141.939,752.85,150.039,756.45,146.439,760.05,150.039,756.45,141.939" style="stroke:#181818;stroke-width:0.9;"/><text fill="#000000" font-family="sans-serif" font-size="11.7" lengthAdjust="spacing" textLength="48.1425" x="721.35" y="170.8005">&#171;extend&#187;</text></g><!--link UC1 to UC5--><g id="link_UC1_UC5"><path d="M301.878,102.789 C343.404,108.477 395.024,115.5559 435.551,121.1089 " fill="none" id="UC1-to-UC5" style="stroke:#181818;stroke-width:0.9;stroke-dasharray:7.0,7.0;"/><polygon fill="#181818" points="440.901,121.842,433.3647,117.1757,436.4427,121.2311,432.3873,124.3091,440.901,121.842" style="stroke:#181818;stroke-width:0.9;"/><text fill="#000000" font-family="sans-serif" font-size="11.7" lengthAdjust="spacing" textLength="50.0906" x="355.5" y="107.1255">&#171;include&#187;</text></g><!--SRC=[TL9BJzmm4BxxLupI0oUsuX5O45g93T0hOhLSLzDachNMiIDxKXfL_U-TE0aA6_0fcVaUytbyqWJACT3t4YlQXJOmLJkfxRhYecugevIXNmpimEjopr1eJpbhPrKuQ5kZnmfgp0zOqePRGz2rqPQ69e1je4m4ru8hlMjiaJdZF7nxN3ujdrAbC6VvJPuDjkGJm01r_5JgNGsI7p8YREA82VnL86SmXcJjq1Um8TFFDlQxCoI4fEz2X4QFRNOsHxrgUXCXPctBCC3Evx1iBrDHBmOnpO2z-48oJl_I61f5BoFmd_eOf8DrsJzFmEWvAWqQwHppueo11vsFaAivP8ts07BV6_mj5vexJ_3ijELnikivvT4MKz_b7B6j2sIHOsGTMES1K3Zt5aqRzAXyCsIMr2VGRnjgholqBSW0v36kBwX-_N1w6fSq_Kixwj6wvSqPZCIzheEIXS5YrJ7X5kxkw0-JBLOhgL_qzVFZ-kMdTJ4Qrp5pI64HALUHecrkceAYrdBetCmwrp2XJ5qoP-sGv2Vn6v4T7qHdTJO8faU2_m40]--></g></svg>