<svg xmlns="http://www.w3.org/2000/svg" xmlns:xlink="http://www.w3.org/1999/xlink" contentStyleType="text/css" height="544px" preserveAspectRatio="none" style="width:594px;height:544px;background:#FFFFFF;" version="1.1" viewBox="0 0 594 544" width="594px" zoomAndPan="magnify"><defs/><g><!--cluster Main Menu--><g id="cluster_Main Menu"><rect fill="none" height="531" rx="2.5" ry="2.5" style="stroke:#181818;stroke-width:1.0;" width="495" x="93" y="7"/><text fill="#000000" font-family="sans-serif" font-size="14" font-weight="bold" lengthAdjust="spacing" textLength="72.3311" x="304.3345" y="24.1074">Main Menu</text></g><g id="elem_UC1"><ellipse cx="197.3912" cy="224.1671" fill="#E8F8F5" rx="32.3912" ry="16.1671" style="stroke:#181818;stroke-width:0.5;"/><text fill="#000000" font-family="sans-serif" font-size="14" lengthAdjust="spacing" textLength="29.5654" x="182.6085" y="227.964">Start</text></g><g id="elem_UC2"><ellipse cx="197.2929" cy="292.0586" fill="#E8F8F5" rx="73.2929" ry="17.0586" style="stroke:#181818;stroke-width:0.5;"/><text fill="#000000" font-family="sans-serif" font-size="14" lengthAdjust="spacing" textLength="89.4961" x="149.5448" y="296.8623">Show Settings</text></g><g id="elem_UC3"><ellipse cx="197.3077" cy="363.0615" fill="#E8F8F5" rx="80.8077" ry="18.5615" style="stroke:#181818;stroke-width:0.5;"/><text fill="#000000" font-family="sans-serif" font-size="14" lengthAdjust="spacing" textLength="110.4961" x="139.0597" y="367.8653">Show Instructions</text></g><g id="elem_UC4"><ellipse cx="197.6638" cy="61.9328" fill="#E8F8F5" rx="75.1638" ry="17.4328" style="stroke:#181818;stroke-width:0.5;"/><text fill="#000000" font-family="sans-serif" font-size="14" lengthAdjust="spacing" textLength="94.9238" x="147.2019" y="66.7365">Show Statistics</text></g><g id="elem_UC5"><ellipse cx="197.2739" cy="436.1548" fill="#E8F8F5" rx="83.7739" ry="19.1548" style="stroke:#181818;stroke-width:0.5;"/><text fill="#000000" font-family="sans-serif" font-size="14" lengthAdjust="spacing" textLength="118.3096" x="135.1191" y="440.9585">Show Leaderboard</text></g><g id="elem_UC6"><ellipse cx="197.468" cy="506.2365" fill="#E8F8F5" rx="41.968" ry="16.2365" style="stroke:#181818;stroke-width:0.5;"/><text fill="#000000" font-family="sans-serif" font-size="14" lengthAdjust="spacing" textLength="42.8203" x="173.2406" y="510.9903">Logout</text></g><g id="elem_UC7"><ellipse cx="487.5734" cy="315.2147" fill="#E8F8F5" rx="79.0734" ry="18.2147" style="stroke:#181818;stroke-width:0.5;"/><text fill="#000000" font-family="sans-serif" font-size="14" lengthAdjust="spacing" textLength="105.8203" x="431.6632" y="320.0184">View Instructions</text></g><g id="elem_UC8"><ellipse cx="487.3619" cy="223.7724" fill="#E8F8F5" rx="84.3619" ry="19.2724" style="stroke:#181818;stroke-width:0.5;"/><text fill="#000000" font-family="sans-serif" font-size="14" lengthAdjust="spacing" textLength="119.834" x="424.4449" y="228.5761">Select Game Mode</text></g><g id="elem_UC9"><ellipse cx="197.3285" cy="153.0657" fill="#E8F8F5" rx="88.3285" ry="20.0657" style="stroke:#181818;stroke-width:0.5;"/><text fill="#000000" font-family="sans-serif" font-size="14" lengthAdjust="spacing" textLength="129.9375" x="129.3598" y="157.8694">View Player Analysis</text></g><g id="elem_UC10"><ellipse cx="487.5378" cy="487.245" fill="#E8F8F5" rx="42.5378" ry="16.245" style="stroke:#181818;stroke-width:0.5;"/><text fill="#000000" font-family="sans-serif" font-size="14" lengthAdjust="spacing" textLength="43.5859" x="462.7448" y="492.0487">Sign In</text></g><!--entity player--><g id="elem_player"><ellipse cx="25.8413" cy="305" fill="#F1F1F1" rx="8" ry="8" style="stroke:#181818;stroke-width:0.5;"/><path d="M25.8413,313 L25.8413,340 M12.8413,321 L38.8413,321 M25.8413,340 L12.8413,355 M25.8413,340 L38.8413,355 " fill="none" style="stroke:#181818;stroke-width:0.5;"/><text fill="#000000" font-family="sans-serif" font-size="14" lengthAdjust="spacing" textLength="39.6826" x="6" y="371.6074">Player</text></g><!--link player to UC1--><g id="link_player_UC1"><path d="M46.09,300.34 C55.89,285.04 69.13,268.15 85,257 C109.11,240.05 141.99,231.7 165.79,227.66 " fill="none" id="player-UC1" style="stroke:#181818;stroke-width:1.0;"/></g><!--link player to UC2--><g id="link_player_UC2"><path d="M46.04,330.4 C55.09,327.77 66.09,324.65 76,322 C98.91,315.88 124.38,309.48 145.98,304.17 " fill="none" id="player-UC2" style="stroke:#181818;stroke-width:1.0;"/></g><!--link player to UC3--><g id="link_player_UC3"><path d="M46.11,339.04 C66.63,342.31 100.38,347.69 130.71,352.52 " fill="none" id="player-UC3" style="stroke:#181818;stroke-width:1.0;"/></g><!--link player to UC4--><g id="link_player_UC4"><path d="M27.62,296.36 C30.38,248.29 41.73,167.23 85,115 C100.86,95.85 125.24,83.18 147.16,75.04 " fill="none" id="player-UC4" style="stroke:#181818;stroke-width:1.0;"/></g><!--link player to UC5--><g id="link_player_UC5"><path d="M46.03,362.25 C56.33,374.87 70.01,389.32 85,399 C100.93,409.29 120,416.99 137.83,422.62 " fill="none" id="player-UC5" style="stroke:#181818;stroke-width:1.0;"/></g><!--link player to UC6--><g id="link_player_UC6"><path d="M34.4,375.57 C42.07,405.96 57.02,446.87 85,472 C104.65,489.65 133.24,498.14 156.55,502.22 " fill="none" id="player-UC6" style="stroke:#181818;stroke-width:1.0;"/></g><!--link UC1 to UC8--><g id="link_UC1_UC8"><path d="M230.14,224 C271.35,224 338.93,224 396.73,224 " fill="none" id="UC1-to-UC8" style="stroke:#181818;stroke-width:1.0;stroke-dasharray:7.0,7.0;"/><polygon fill="#181818" points="402.73,224,393.73,220,397.73,224,393.73,228,402.73,224" style="stroke:#181818;stroke-width:1.0;"/><text fill="#000000" font-family="sans-serif" font-size="13" lengthAdjust="spacing" textLength="55.6563" x="317" y="220.0283">&#171;include&#187;</text></g><!--link UC6 to UC10--><g id="link_UC6_UC10"><path d="M239.15,503.32 C293.89,499.71 384.733,493.715 439.603,490.095 " fill="none" id="UC6-to-UC10" style="stroke:#181818;stroke-width:1.0;stroke-dasharray:7.0,7.0;"/><polygon fill="#181818" points="445.59,489.7,436.3462,486.3012,440.6008,490.0292,436.8728,494.2838,445.59,489.7" style="stroke:#181818;stroke-width:1.0;"/><text fill="#000000" font-family="sans-serif" font-size="13" lengthAdjust="spacing" textLength="55.6563" x="317" y="491.0283">&#171;include&#187;</text></g><!--link UC7 to UC8--><g id="link_UC7_UC8"><path d="M487.5,296.58 C487.5,281.21 487.5,265.35 487.5,249.65 " fill="none" id="UC7-to-UC8" style="stroke:#181818;stroke-width:1.0;stroke-dasharray:7.0,7.0;"/><polygon fill="#181818" points="487.5,243.65,483.5,252.65,487.5,248.65,491.5,252.65,487.5,243.65" style="stroke:#181818;stroke-width:1.0;"/><text fill="#000000" font-family="sans-serif" font-size="13" lengthAdjust="spacing" textLength="53.4917" x="448.5" y="275.7783">&#171;extend&#187;</text></g><!--link UC9 to UC4--><g id="link_UC9_UC4"><path d="M197.5,132.8 C197.5,116.89 197.5,100.91 197.5,85.68 " fill="none" id="UC9-to-UC4" style="stroke:#181818;stroke-width:1.0;stroke-dasharray:7.0,7.0;"/><polygon fill="#181818" points="197.5,79.68,193.5,88.68,197.5,84.68,201.5,88.68,197.5,79.68" style="stroke:#181818;stroke-width:1.0;"/><text fill="#000000" font-family="sans-serif" font-size="13" lengthAdjust="spacing" textLength="53.4917" x="158.5" y="111.7783">&#171;extend&#187;</text></g><!--SRC=[RP9RQy9048NVzrSCwODFMk-N8a8hMeGA1R6lCascSN6p6tOdj5BwtxlcKenDddBcV7jcTf9MvYX4H_S9Idr8I6U7ij99iqG9eUY3WGrO6HyP8cafP6cqS2UfKxIOG8hX2MFQyLaHN6pKiQ8hOEzewGEVF1TRa-beQPInSBUQhgVhaH0OifV1gy8psG3GGPg_2l6N1i7MpmTRFry0tmByKuu9mOxHSdvil-pTM4Vp2JjYbZfs9T9lG3RQiStoYrNOe2c9aQLZ6LRGi05w8Op8lXkqKKcDwjIBYKrM3JokUs-I6gUPt3GYvJS3pvWGR4r49JLj22ks2eyQrTd9AczsaoTZxTjMI-oA7o5QrT7KoWJj6QHcibYC9Oel1ErsllHhrQ-fGKqDQsfKK-DBouqELHPTVYE5UQEZJ9tmBQ3JMLnk20ymdyk2MYoyCowTNlV6ycchBoOT_GkRm5KMvKmUDIlgmthz5m00]--></g></svg>