<svg xmlns="http://www.w3.org/2000/svg" xmlns:xlink="http://www.w3.org/1999/xlink" contentStyleType="text/css" height="714px" preserveAspectRatio="none" style="width:1650px;height:714px;background:#FFFFFF;" version="1.1" viewBox="0 0 1650 714" width="1650px" zoomAndPan="magnify"><defs/><g><!--cluster com.mayor.kavi--><g id="cluster_com.mayor.kavi"><polygon fill="none" points="16,16,26,6,1592,6,1592,687.5,1582,697.5,16,697.5,16,16" style="stroke:#181818;stroke-width:1.0;"/><line style="stroke:#181818;stroke-width:1.0;" x1="1582" x2="1592" y1="16" y2="6"/><line style="stroke:#181818;stroke-width:1.0;" x1="16" x2="1582" y1="16" y2="16"/><line style="stroke:#181818;stroke-width:1.0;" x1="1582" x2="1582" y1="16" y2="697.5"/><text fill="#000000" font-family="sans-serif" font-size="14" font-weight="bold" lengthAdjust="spacing" textLength="105.834" x="747.083" y="34.1074">com.mayor.kavi</text></g><!--cluster data--><g id="cluster_data"><polygon fill="#E0FFFF" points="894,197,904,187,1560,187,1560,415.5,1550,425.5,894,425.5,894,197" style="stroke:#181818;stroke-width:1.0;"/><line style="stroke:#181818;stroke-width:1.0;" x1="1550" x2="1560" y1="197" y2="187"/><line style="stroke:#181818;stroke-width:1.0;" x1="894" x2="1550" y1="197" y2="197"/><line style="stroke:#181818;stroke-width:1.0;" x1="1550" x2="1550" y1="197" y2="425.5"/><text fill="#000000" font-family="sans-serif" font-size="14" font-weight="bold" lengthAdjust="spacing" textLength="28.7861" x="1208.6069" y="215.1074">data</text></g><!--cluster ui--><g id="cluster_ui"><polygon fill="#D3D3D3" points="48,74,58,64,854,64,854,300,844,310,48,310,48,74" style="stroke:#181818;stroke-width:1.0;"/><line style="stroke:#181818;stroke-width:1.0;" x1="844" x2="854" y1="74" y2="64"/><line style="stroke:#181818;stroke-width:1.0;" x1="48" x2="844" y1="74" y2="74"/><line style="stroke:#181818;stroke-width:1.0;" x1="844" x2="844" y1="74" y2="310"/><text fill="#000000" font-family="sans-serif" font-size="14" font-weight="bold" lengthAdjust="spacing" textLength="12.4414" x="440.7793" y="92.1074">ui</text></g><!--cluster core--><g id="cluster_core"><polygon fill="#FFC0CB" points="978,467.5,988,457.5,1391,457.5,1391,663.5,1381,673.5,978,673.5,978,467.5" style="stroke:#181818;stroke-width:1.0;"/><line style="stroke:#181818;stroke-width:1.0;" x1="1381" x2="1391" y1="467.5" y2="457.5"/><line style="stroke:#181818;stroke-width:1.0;" x1="978" x2="1381" y1="467.5" y2="467.5"/><line style="stroke:#181818;stroke-width:1.0;" x1="1381" x2="1381" y1="467.5" y2="673.5"/><text fill="#000000" font-family="sans-serif" font-size="14" font-weight="bold" lengthAdjust="spacing" textLength="29.5723" x="1165.7139" y="485.6074">core</text></g><!--entity models (with enums and data classes)--><g id="elem_models (with enums and data classes)"><rect fill="#F1F1F1" height="48.6211" rx="2.5" ry="2.5" style="stroke:#181818;stroke-width:0.5;" width="278.1094" x="918" y="237"/><rect fill="#F1F1F1" height="10" style="stroke:#181818;stroke-width:0.5;" width="15" x="1176.1094" y="242"/><rect fill="#F1F1F1" height="2" style="stroke:#181818;stroke-width:0.5;" width="4" x="1174.1094" y="244"/><rect fill="#F1F1F1" height="2" style="stroke:#181818;stroke-width:0.5;" width="4" x="1174.1094" y="248"/><text fill="#000000" font-family="sans-serif" font-size="14" lengthAdjust="spacing" textLength="238.1094" x="933" y="272.1074">models (with enums and data classes)</text></g><!--entity repository/service (Roboflow, Statistics)--><g id="elem_repository/service (Roboflow, Statistics)"><rect fill="#F1F1F1" height="48.6211" rx="2.5" ry="2.5" style="stroke:#181818;stroke-width:0.5;" width="285.0752" x="1231.5" y="237"/><rect fill="#F1F1F1" height="10" style="stroke:#181818;stroke-width:0.5;" width="15" x="1496.5752" y="242"/><rect fill="#F1F1F1" height="2" style="stroke:#181818;stroke-width:0.5;" width="4" x="1494.5752" y="244"/><rect fill="#F1F1F1" height="2" style="stroke:#181818;stroke-width:0.5;" width="4" x="1494.5752" y="248"/><text fill="#000000" font-family="sans-serif" font-size="14" lengthAdjust="spacing" textLength="245.0752" x="1246.5" y="272.1074">repository/service (Roboflow, Statistics)</text></g><!--entity manager (Game, Dice, Stats managers)--><g id="elem_manager (Game, Dice, Stats managers)"><rect fill="#F1F1F1" height="48.6211" rx="2.5" ry="2.5" style="stroke:#181818;stroke-width:0.5;" width="288.2061" x="918" y="352.5"/><rect fill="#F1F1F1" height="10" style="stroke:#181818;stroke-width:0.5;" width="15" x="1186.2061" y="357.5"/><rect fill="#F1F1F1" height="2" style="stroke:#181818;stroke-width:0.5;" width="4" x="1184.2061" y="359.5"/><rect fill="#F1F1F1" height="2" style="stroke:#181818;stroke-width:0.5;" width="4" x="1184.2061" y="363.5"/><text fill="#000000" font-family="sans-serif" font-size="14" lengthAdjust="spacing" textLength="248.2061" x="933" y="387.6074">manager (Game, Dice, Stats managers)</text></g><!--entity screens (MainMenu, VirtualMode, Boards)--><g id="elem_screens (MainMenu, VirtualMode, Boards)"><rect fill="#F1F1F1" height="48.6211" rx="2.5" ry="2.5" style="stroke:#181818;stroke-width:0.5;" width="302.2197" x="72" y="114"/><rect fill="#F1F1F1" height="10" style="stroke:#181818;stroke-width:0.5;" width="15" x="354.2197" y="119"/><rect fill="#F1F1F1" height="2" style="stroke:#181818;stroke-width:0.5;" width="4" x="352.2197" y="121"/><rect fill="#F1F1F1" height="2" style="stroke:#181818;stroke-width:0.5;" width="4" x="352.2197" y="125"/><text fill="#000000" font-family="sans-serif" font-size="14" lengthAdjust="spacing" textLength="262.2197" x="87" y="149.1074">screens (MainMenu, VirtualMode, Boards)</text></g><!--entity components (CameraPreview, DetectionBox, DiceDisplay)--><g id="elem_components (CameraPreview, DetectionBox, DiceDisplay)"><rect fill="#F1F1F1" height="48.6211" rx="2.5" ry="2.5" style="stroke:#181818;stroke-width:0.5;" width="401.8057" x="409" y="114"/><rect fill="#F1F1F1" height="10" style="stroke:#181818;stroke-width:0.5;" width="15" x="790.8057" y="119"/><rect fill="#F1F1F1" height="2" style="stroke:#181818;stroke-width:0.5;" width="4" x="788.8057" y="121"/><rect fill="#F1F1F1" height="2" style="stroke:#181818;stroke-width:0.5;" width="4" x="788.8057" y="125"/><text fill="#000000" font-family="sans-serif" font-size="14" lengthAdjust="spacing" textLength="361.8057" x="424" y="149.1074">components (CameraPreview, DetectionBox, DiceDisplay)</text></g><!--entity viewmodel (GameViewModel, DetectionViewModel)--><g id="elem_viewmodel (GameViewModel, DetectionViewModel)"><rect fill="#F1F1F1" height="48.6211" rx="2.5" ry="2.5" style="stroke:#181818;stroke-width:0.5;" width="361.3506" x="72.5" y="237"/><rect fill="#F1F1F1" height="10" style="stroke:#181818;stroke-width:0.5;" width="15" x="413.8506" y="242"/><rect fill="#F1F1F1" height="2" style="stroke:#181818;stroke-width:0.5;" width="4" x="411.8506" y="244"/><rect fill="#F1F1F1" height="2" style="stroke:#181818;stroke-width:0.5;" width="4" x="411.8506" y="248"/><text fill="#000000" font-family="sans-serif" font-size="14" lengthAdjust="spacing" textLength="321.3506" x="87.5" y="272.1074">viewmodel (GameViewModel, DetectionViewModel)</text></g><!--entity di (AppModule)--><g id="elem_di (AppModule)"><rect fill="#F1F1F1" height="48.6211" rx="2.5" ry="2.5" style="stroke:#181818;stroke-width:0.5;" width="134.9375" x="994.5" y="499.5"/><rect fill="#F1F1F1" height="10" style="stroke:#181818;stroke-width:0.5;" width="15" x="1109.4375" y="504.5"/><rect fill="#F1F1F1" height="2" style="stroke:#181818;stroke-width:0.5;" width="4" x="1107.4375" y="506.5"/><rect fill="#F1F1F1" height="2" style="stroke:#181818;stroke-width:0.5;" width="4" x="1107.4375" y="510.5"/><text fill="#000000" font-family="sans-serif" font-size="14" lengthAdjust="spacing" textLength="94.9375" x="1009.5" y="534.6074">di (AppModule)</text></g><!--entity util (Constants, Extensions)--><g id="elem_util (Constants, Extensions)"><rect fill="#F1F1F1" height="48.6211" rx="2.5" ry="2.5" style="stroke:#181818;stroke-width:0.5;" width="210.4063" x="1165" y="499.5"/><rect fill="#F1F1F1" height="10" style="stroke:#181818;stroke-width:0.5;" width="15" x="1355.4063" y="504.5"/><rect fill="#F1F1F1" height="2" style="stroke:#181818;stroke-width:0.5;" width="4" x="1353.4063" y="506.5"/><rect fill="#F1F1F1" height="2" style="stroke:#181818;stroke-width:0.5;" width="4" x="1353.4063" y="510.5"/><text fill="#000000" font-family="sans-serif" font-size="14" lengthAdjust="spacing" textLength="170.4063" x="1180" y="534.6074">util (Constants, Extensions)</text></g><!--entity MainActivity, KaviApplication, AppNavigation--><g id="elem_MainActivity, KaviApplication, AppNavigation"><rect fill="#F1F1F1" height="48.6211" rx="2.5" ry="2.5" style="stroke:#181818;stroke-width:0.5;" width="317.0264" x="994.5" y="608.5"/><rect fill="#F1F1F1" height="10" style="stroke:#181818;stroke-width:0.5;" width="15" x="1291.5264" y="613.5"/><rect fill="#F1F1F1" height="2" style="stroke:#181818;stroke-width:0.5;" width="4" x="1289.5264" y="615.5"/><rect fill="#F1F1F1" height="2" style="stroke:#181818;stroke-width:0.5;" width="4" x="1289.5264" y="619.5"/><text fill="#000000" font-family="sans-serif" font-size="14" lengthAdjust="spacing" textLength="277.0264" x="1009.5" y="643.6074">MainActivity, KaviApplication, AppNavigation</text></g><!--entity util--><g id="elem_util"><ellipse cx="1635" cy="377" fill="#F1F1F1" rx="8" ry="8" style="stroke:#181818;stroke-width:0.5;"/><text fill="#000000" font-family="sans-serif" font-size="14" lengthAdjust="spacing" textLength="17.8965" x="1626.0518" y="409.1074">util</text></g><!--link ui to data--><g id="link_ui_data"><path d="M854.2146,139.5911 C854.5292,139.5947 854.8525,139.5985 855.1842,139.6024 C860.4922,139.6647 867.9846,139.756 877.3546,139.879 C896.0945,140.125 922.3445,140.4978 953.6503,141.0188 C1016.2619,142.0606 1099.0963,143.695 1182.5175,146.0925 C1349.36,150.8875 1518.55,158.735 1533,171 C1536.815,174.2375 1539.9788,178.0333 1542.5938,182.2009 C1543.2475,183.2429 1543.867,184.308 1544.4537,185.3935 C1544.6004,185.6649 1544.7451,185.9375 1544.8877,186.2114 C1544.959,186.3483 1542.2989,181.1431 1542.3692,181.2806 " fill="none" id="ui-to-data" style="stroke:#181818;stroke-width:1.0;stroke-dasharray:7.0,7.0;"/><polygon fill="#181818" points="1545.1002,186.6231,1544.5653,176.7888,1542.8243,182.1711,1537.442,180.4301,1545.1002,186.6231" style="stroke:#181818;stroke-width:1.0;"/></g><!--link data to util--><g id="link_data_util"><path d="M1560.2202,273.74 C1560.8865,274.6513 1561.5861,275.608 1562.3161,276.6063 C1568.1559,284.5925 1575.9419,295.24 1584.2488,306.6 C1600.8625,329.32 1616.0189,350.0464 1625.3989,362.8764 " fill="none" id="data-to-util" style="stroke:#181818;stroke-width:1.0;stroke-dasharray:7.0,7.0;"/><polygon fill="#181818" points="1628.94,367.72,1626.8573,358.0939,1625.989,363.6837,1620.3992,362.8154,1628.94,367.72" style="stroke:#181818;stroke-width:1.0;"/></g><!--SRC=[RP7FIiD04CRlUOgXNYA4-WP2RQK7hOW5B-9Xt8nrw6Odx4xI1l7TdIHMKt1lys-_tpUZKeCAl8cgL51o9ASi8Kjx3ZL6hA16jySTRRNp145AohAV5CoSLFCAEudpFROyWyyCxFsMIrISmSKzxpvqsM4Oo_rxgUmZdo0_i7u0XQPAWA64VWASnvGeNRx-jKUg9R5AxAuInPOTGVuaR_BkvL30Lb4vARkpcGg3KKJ8rrXH0IiR6biJ_9HExL_ds0sVeDUHkWbqSf4e6FK6EMoCke1dZjgWtvYT0cu4Otd6O0kg9L0mpNnf614V8xLC1hqY7NTz8yUHRiMfzjXDv_lMOLMZYsSBUoa_6V_D_M_6IIIpyyXX3nCh9KE-g6iRR3nD5Hjb4rjAI8g6NS3jKSsp2PqPwpUmCFsMjIlWpgvlltbss2CLOC63vNP3UEBwohA6OJw_7iwS3RVkerxo6m00]--></g></svg>